M48
; DRILL file KiCad 10.0.3 date 2026-05-19T12:31:36
; FORMAT={3:3/ absolute / metric / suppress leading zeros}
; #@! TF.CreationDate,2026-05-19T12:31:36+01:00
; #@! TF.GenerationSoftware,Kicad,Pcbnew,10.0.3
; #@! TF.FileFunction,Plated,1,2,PTH
FMAT,2
METRIC,TZ
; #@! TA.AperFunction,Plated,PTH,ViaDrill
T1C0.300
; #@! TA.AperFunction,Plated,PTH,ComponentDrill
T2C1.000
%
G90
G05
T1
X130500Y-73500
X136750Y-73500
X139096Y-74048
X139103Y-78391
X140000Y-70000
X142000Y-68000
X143732Y-76233
X144500Y-80000
X147000Y-79380
X148273Y-79375
X149555Y-79369
X151750Y-82250
X152750Y-83250
X153125Y-88875
X153125Y-91375
X154750Y-77443
X155000Y-72750
X155750Y-78750
X156250Y-79750
X157250Y-81000
X160250Y-82250
X160250Y-91100
X160250Y-93550
X161250Y-82250
X162250Y-82250
X163000Y-76750
X163065Y-74815
X163250Y-82250
X163741Y-104189
X164250Y-82250
X164500Y-100890
X165250Y-97600
X166375Y-77875
X166500Y-72500
X167000Y-83000
X167500Y-78000
X169250Y-119000
X170000Y-86000
X170000Y-115750
X170250Y-79250
X175000Y-76750
X175000Y-74750
T2
X157750Y-84780
X157750Y-87320
X157750Y-89860
X157750Y-92400
X157750Y-94940
X157750Y-97480
X157750Y-100020
X157750Y-102560
X157750Y-105100
X157750Y-107640
X157750Y-110180
X157750Y-112720
X157750Y-115260
X157750Y-117800
X157750Y-120340
X157750Y-122880
X157750Y-125420
X157750Y-127960
X157750Y-130500
X157750Y-133040
X172750Y-84740
X172750Y-87280
X172750Y-89820
X172750Y-92360
X172750Y-94900
X172750Y-97440
X172750Y-99980
X172750Y-102520
X172750Y-105060
X172750Y-107600
X172750Y-110140
X172750Y-112680
X172750Y-115220
X172750Y-117760
X172750Y-120300
X172750Y-122840
X172750Y-125380
X172750Y-127920
X172750Y-130460
X172750Y-133000
M30
