%TF.GenerationSoftware,KiCad,Pcbnew,10.0.3*%
%TF.CreationDate,2026-05-19T12:27:24+01:00*%
%TF.ProjectId,tactileskin,74616374-696c-4657-936b-696e2e6b6963,rev?*%
%TF.SameCoordinates,Original*%
%TF.FileFunction,Copper,L1,Top*%
%TF.FilePolarity,Positive*%
%FSLAX46Y46*%
G04 Gerber Fmt 4.6, Leading zero omitted, Abs format (unit mm)*
G04 Created by KiCad (PCBNEW 10.0.3) date 2026-05-19 12:27:24*
%MOMM*%
%LPD*%
G01*
G04 APERTURE LIST*
G04 Aperture macros list*
%AMRoundRect*
0 Rectangle with rounded corners*
0 $1 Rounding radius*
0 $2 $3 $4 $5 $6 $7 $8 $9 X,Y pos of 4 corners*
0 Add a 4 corners polygon primitive as box body*
4,1,4,$2,$3,$4,$5,$6,$7,$8,$9,$2,$3,0*
0 Add four circle primitives for the rounded corners*
1,1,$1+$1,$2,$3*
1,1,$1+$1,$4,$5*
1,1,$1+$1,$6,$7*
1,1,$1+$1,$8,$9*
0 Add four rect primitives between the rounded corners*
20,1,$1+$1,$2,$3,$4,$5,0*
20,1,$1+$1,$4,$5,$6,$7,0*
20,1,$1+$1,$6,$7,$8,$9,0*
20,1,$1+$1,$8,$9,$2,$3,0*%
G04 Aperture macros list end*
%ADD10C,0.300000*%
%TA.AperFunction,NonConductor*%
%ADD11C,0.300000*%
%TD*%
%TA.AperFunction,NonConductor*%
%ADD12C,0.200000*%
%TD*%
%TA.AperFunction,SMDPad,CuDef*%
%ADD13R,0.400000X0.800000*%
%TD*%
%TA.AperFunction,SMDPad,CuDef*%
%ADD14R,0.300000X0.800000*%
%TD*%
%TA.AperFunction,SMDPad,CuDef*%
%ADD15RoundRect,0.135000X0.135000X0.185000X-0.135000X0.185000X-0.135000X-0.185000X0.135000X-0.185000X0*%
%TD*%
%TA.AperFunction,SMDPad,CuDef*%
%ADD16R,3.700000X3.700000*%
%TD*%
%TA.AperFunction,SMDPad,CuDef*%
%ADD17RoundRect,0.032500X-0.397500X0.097500X-0.397500X-0.097500X0.397500X-0.097500X0.397500X0.097500X0*%
%TD*%
%TA.AperFunction,SMDPad,CuDef*%
%ADD18RoundRect,0.032500X-0.097500X0.397500X-0.097500X-0.397500X0.097500X-0.397500X0.097500X0.397500X0*%
%TD*%
%TA.AperFunction,SMDPad,CuDef*%
%ADD19R,1.800000X2.200000*%
%TD*%
%TA.AperFunction,SMDPad,CuDef*%
%ADD20R,0.300000X1.300000*%
%TD*%
%TA.AperFunction,ComponentPad*%
%ADD21C,1.700000*%
%TD*%
%TA.AperFunction,ComponentPad*%
%ADD22R,1.700000X1.700000*%
%TD*%
%TA.AperFunction,SMDPad,CuDef*%
%ADD23RoundRect,0.150000X0.150000X-0.825000X0.150000X0.825000X-0.150000X0.825000X-0.150000X-0.825000X0*%
%TD*%
%TA.AperFunction,SMDPad,CuDef*%
%ADD24RoundRect,0.140000X0.140000X0.170000X-0.140000X0.170000X-0.140000X-0.170000X0.140000X-0.170000X0*%
%TD*%
%TA.AperFunction,SMDPad,CuDef*%
%ADD25RoundRect,0.140000X-0.170000X0.140000X-0.170000X-0.140000X0.170000X-0.140000X0.170000X0.140000X0*%
%TD*%
%TA.AperFunction,ViaPad*%
%ADD26C,0.600000*%
%TD*%
%TA.AperFunction,Conductor*%
%ADD27C,0.200000*%
%TD*%
%TA.AperFunction,Conductor*%
%ADD28C,0.300000*%
%TD*%
G04 APERTURE END LIST*
D10*
D11*
X148725000Y-46628328D02*
X149653572Y-46628328D01*
X149653572Y-46628328D02*
X149153572Y-47199757D01*
X149153572Y-47199757D02*
X149367857Y-47199757D01*
X149367857Y-47199757D02*
X149510715Y-47271185D01*
X149510715Y-47271185D02*
X149582143Y-47342614D01*
X149582143Y-47342614D02*
X149653572Y-47485471D01*
X149653572Y-47485471D02*
X149653572Y-47842614D01*
X149653572Y-47842614D02*
X149582143Y-47985471D01*
X149582143Y-47985471D02*
X149510715Y-48056900D01*
X149510715Y-48056900D02*
X149367857Y-48128328D01*
X149367857Y-48128328D02*
X148939286Y-48128328D01*
X148939286Y-48128328D02*
X148796429Y-48056900D01*
X148796429Y-48056900D02*
X148725000Y-47985471D01*
X150939286Y-47128328D02*
X150939286Y-48128328D01*
X150582143Y-46556900D02*
X150225000Y-47628328D01*
X150225000Y-47628328D02*
X151153571Y-47628328D01*
X151724999Y-47985471D02*
X151796428Y-48056900D01*
X151796428Y-48056900D02*
X151724999Y-48128328D01*
X151724999Y-48128328D02*
X151653571Y-48056900D01*
X151653571Y-48056900D02*
X151724999Y-47985471D01*
X151724999Y-47985471D02*
X151724999Y-48128328D01*
X152296428Y-46628328D02*
X153296428Y-46628328D01*
X153296428Y-46628328D02*
X152653571Y-48128328D01*
X154582142Y-46628328D02*
X153867856Y-46628328D01*
X153867856Y-46628328D02*
X153796428Y-47342614D01*
X153796428Y-47342614D02*
X153867856Y-47271185D01*
X153867856Y-47271185D02*
X154010714Y-47199757D01*
X154010714Y-47199757D02*
X154367856Y-47199757D01*
X154367856Y-47199757D02*
X154510714Y-47271185D01*
X154510714Y-47271185D02*
X154582142Y-47342614D01*
X154582142Y-47342614D02*
X154653571Y-47485471D01*
X154653571Y-47485471D02*
X154653571Y-47842614D01*
X154653571Y-47842614D02*
X154582142Y-47985471D01*
X154582142Y-47985471D02*
X154510714Y-48056900D01*
X154510714Y-48056900D02*
X154367856Y-48128328D01*
X154367856Y-48128328D02*
X154010714Y-48128328D01*
X154010714Y-48128328D02*
X153867856Y-48056900D01*
X153867856Y-48056900D02*
X153796428Y-47985471D01*
D12*
X169100000Y-59150000D02*
X169100000Y-48663580D01*
X134350000Y-48663580D02*
X134350000Y-59150000D01*
X169100000Y-49250000D02*
X134350000Y-49250000D01*
X169100000Y-49250000D02*
X167973496Y-49836421D01*
X169100000Y-49250000D02*
X167973496Y-48663579D01*
X134350000Y-49250000D02*
X135476504Y-48663579D01*
X134350000Y-49250000D02*
X135476504Y-49836421D01*
D10*
D11*
X164964286Y-140128328D02*
X164107143Y-140128328D01*
X164535714Y-140128328D02*
X164535714Y-138628328D01*
X164535714Y-138628328D02*
X164392857Y-138842614D01*
X164392857Y-138842614D02*
X164250000Y-138985471D01*
X164250000Y-138985471D02*
X164107143Y-139056900D01*
X166321428Y-138628328D02*
X165607142Y-138628328D01*
X165607142Y-138628328D02*
X165535714Y-139342614D01*
X165535714Y-139342614D02*
X165607142Y-139271185D01*
X165607142Y-139271185D02*
X165750000Y-139199757D01*
X165750000Y-139199757D02*
X166107142Y-139199757D01*
X166107142Y-139199757D02*
X166250000Y-139271185D01*
X166250000Y-139271185D02*
X166321428Y-139342614D01*
X166321428Y-139342614D02*
X166392857Y-139485471D01*
X166392857Y-139485471D02*
X166392857Y-139842614D01*
X166392857Y-139842614D02*
X166321428Y-139985471D01*
X166321428Y-139985471D02*
X166250000Y-140056900D01*
X166250000Y-140056900D02*
X166107142Y-140128328D01*
X166107142Y-140128328D02*
X165750000Y-140128328D01*
X165750000Y-140128328D02*
X165607142Y-140056900D01*
X165607142Y-140056900D02*
X165535714Y-139985471D01*
D12*
X157750000Y-135830000D02*
X157750000Y-141836420D01*
X172750000Y-141836420D02*
X172750000Y-135830000D01*
X157750000Y-141250000D02*
X172750000Y-141250000D01*
X157750000Y-141250000D02*
X158876504Y-140663579D01*
X157750000Y-141250000D02*
X158876504Y-141836421D01*
X172750000Y-141250000D02*
X171623496Y-141836421D01*
X172750000Y-141250000D02*
X171623496Y-140663579D01*
D13*
%TO.P,FH19,10,MP2_10*%
%TO.N,unconnected-(J_ROW1-MP2-Pad10)*%
X137095975Y-61241266D03*
%TO.P,FH19,9,MP1_9*%
%TO.N,unconnected-(J_ROW1-MP1-Pad9)*%
X131595975Y-61241266D03*
D14*
%TO.P,FH19,8,8_8*%
%TO.N,Net-(U2-A0)*%
X136095975Y-63741266D03*
%TO.P,FH19,7,7_7*%
%TO.N,Net-(U2-A1)*%
X135595975Y-63741266D03*
%TO.P,FH19,6,6_6*%
%TO.N,Net-(U2-A2)*%
X135095975Y-63741266D03*
%TO.P,FH19,5,5_5*%
%TO.N,Net-(U2-A3)*%
X134595975Y-63741266D03*
%TO.P,FH19,4,4_4*%
%TO.N,Net-(U2-A4)*%
X134095975Y-63741266D03*
%TO.P,FH19,3,3_3*%
%TO.N,Net-(U2-A5)*%
X133595975Y-63741266D03*
%TO.P,FH19,2,2_2*%
%TO.N,Net-(U2-A6)*%
X133095975Y-63741266D03*
%TO.P,FH19,1,1_1*%
%TO.N,Net-(U2-A7)*%
X132595975Y-63741266D03*
%TD*%
D15*
%TO.P,R1,2*%
%TO.N,/A3*%
X173616834Y-79743965D03*
%TO.P,R1,1*%
%TO.N,+3.3V*%
X174636832Y-79743965D03*
%TD*%
D16*
%TO.P,AD7142_a1,33*%
%TO.N,N/C*%
X171185000Y-75500000D03*
D17*
%TO.P,AD7142_a1,32,CIN2_32*%
%TO.N,Net-(AD7142_a1-CIN2)*%
X173620000Y-73750000D03*
%TO.P,AD7142_a1,31,CIN1_31*%
%TO.N,Net-(AD7142_a1-CIN1)*%
X173620000Y-74250000D03*
%TO.P,AD7142_a1,30,CIN0_30*%
%TO.N,Net-(AD7142_a1-CIN0)*%
X173620000Y-74750000D03*
%TO.P,AD7142_a1,29,Vref-_29*%
%TO.N,GND*%
X173620000Y-75250000D03*
%TO.P,AD7142_a1,28,Vref+_28*%
%TO.N,+3.3V*%
X173620000Y-75750000D03*
%TO.P,AD7142_a1,27,TEST_27*%
%TO.N,GND*%
X173620000Y-76250000D03*
%TO.P,AD7142_a1,26*%
%TO.N,N/C*%
X173620000Y-76750000D03*
%TO.P,AD7142_a1,25,~{INT}_25*%
%TO.N,/A3*%
X173620000Y-77250000D03*
D18*
%TO.P,AD7142_a1,24,~{CS}_24*%
%TO.N,/A4*%
X172935000Y-77935000D03*
%TO.P,AD7142_a1,23,SCLK_23*%
%TO.N,/A5*%
X172435000Y-77935000D03*
%TO.P,AD7142_a1,22,SDI_22*%
%TO.N,/A7*%
X171935000Y-77935000D03*
%TO.P,AD7142_a1,21,SDO_21*%
%TO.N,/A6*%
X171435000Y-77935000D03*
%TO.P,AD7142_a1,20,VDRIVE_20*%
%TO.N,+3.3V*%
X170935000Y-77935000D03*
%TO.P,AD7142_a1,19,DGND2_19*%
%TO.N,GND*%
X170435000Y-77935000D03*
%TO.P,AD7142_a1,18,DGND1_18*%
X169935000Y-77935000D03*
%TO.P,AD7142_a1,17,DVCC_17*%
%TO.N,+3.3V*%
X169435000Y-77935000D03*
D17*
%TO.P,AD7142_a1,16,~{SRC}_16*%
%TO.N,unconnected-(AD7142_a1-~{SRC}-Pad16)*%
X168750000Y-77250000D03*
%TO.P,AD7142_a1,15,SRC_15*%
%TO.N,Net-(AD7142_a1-SRC)*%
X168750000Y-76750000D03*
%TO.P,AD7142_a1,14,AGND_14*%
%TO.N,GND*%
X168750000Y-76250000D03*
%TO.P,AD7142_a1,13,AVCC_13*%
%TO.N,+3.3V*%
X168750000Y-75750000D03*
%TO.P,AD7142_a1,12,CSHIELD_12*%
%TO.N,Net-(AD7142_a1-CIN10)*%
X168750000Y-75250000D03*
%TO.P,AD7142_a1,11,CIN13_11*%
X168750000Y-74750000D03*
%TO.P,AD7142_a1,10,CIN12_10*%
X168750000Y-74250000D03*
%TO.P,AD7142_a1,9,CIN11_9*%
X168750000Y-73750000D03*
D18*
%TO.P,AD7142_a1,8,CIN10_8*%
X169435000Y-73065000D03*
%TO.P,AD7142_a1,7,CIN9_7*%
X169935000Y-73065000D03*
%TO.P,AD7142_a1,6,CIN8_6*%
X170435000Y-73065000D03*
%TO.P,AD7142_a1,5,CIN7_5*%
%TO.N,Net-(AD7142_a1-CIN7)*%
X170935000Y-73065000D03*
%TO.P,AD7142_a1,4,CIN6_4*%
%TO.N,Net-(AD7142_a1-CIN6)*%
X171435000Y-73065000D03*
%TO.P,AD7142_a1,3,CIN5_3*%
%TO.N,Net-(AD7142_a1-CIN5)*%
X171935000Y-73065000D03*
%TO.P,AD7142_a1,2,CIN4_2*%
%TO.N,Net-(AD7142_a1-CIN4)*%
X172435000Y-73065000D03*
%TO.P,AD7142_a1,1,CIN3_1*%
%TO.N,Net-(AD7142_a1-CIN3)*%
X172935000Y-73065000D03*
%TD*%
D16*
%TO.P,AD7142_b1,33*%
%TO.N,N/C*%
X159315000Y-75500000D03*
D17*
%TO.P,AD7142_b1,32,CIN2_32*%
%TO.N,Net-(AD7142_b1-CIN2)*%
X161750000Y-73750000D03*
%TO.P,AD7142_b1,31,CIN1_31*%
%TO.N,Net-(AD7142_b1-CIN1)*%
X161750000Y-74250000D03*
%TO.P,AD7142_b1,30,CIN0_30*%
%TO.N,Net-(AD7142_b1-CIN0)*%
X161750000Y-74750000D03*
%TO.P,AD7142_b1,29,Vref-_29*%
%TO.N,GND*%
X161750000Y-75250000D03*
%TO.P,AD7142_b1,28,Vref+_28*%
%TO.N,+3.3V*%
X161750000Y-75750000D03*
%TO.P,AD7142_b1,27,TEST_27*%
%TO.N,GND*%
X161750000Y-76250000D03*
%TO.P,AD7142_b1,26*%
%TO.N,N/C*%
X161750000Y-76750000D03*
%TO.P,AD7142_b1,25,~{INT}_25*%
%TO.N,/A8*%
X161750000Y-77250000D03*
D18*
%TO.P,AD7142_b1,24,~{CS}_24*%
%TO.N,/B12*%
X161065000Y-77935000D03*
%TO.P,AD7142_b1,23,SCLK_23*%
%TO.N,/B13*%
X160565000Y-77935000D03*
%TO.P,AD7142_b1,22,SDI_22*%
%TO.N,/B15*%
X160065000Y-77935000D03*
%TO.P,AD7142_b1,21,SDO_21*%
%TO.N,/B14*%
X159565000Y-77935000D03*
%TO.P,AD7142_b1,20,VDRIVE_20*%
%TO.N,+3.3V*%
X159065000Y-77935000D03*
%TO.P,AD7142_b1,19,DGND2_19*%
%TO.N,GND*%
X158565000Y-77935000D03*
%TO.P,AD7142_b1,18,DGND1_18*%
X158065000Y-77935000D03*
%TO.P,AD7142_b1,17,DVCC_17*%
%TO.N,+3.3V*%
X157565000Y-77935000D03*
D17*
%TO.P,AD7142_b1,16,~{SRC}_16*%
%TO.N,unconnected-(AD7142_b1-~{SRC}-Pad16)*%
X156880000Y-77250000D03*
%TO.P,AD7142_b1,15,SRC_15*%
%TO.N,Net-(AD7142_a1-SRC)*%
X156880000Y-76750000D03*
%TO.P,AD7142_b1,14,AGND_14*%
%TO.N,GND*%
X156880000Y-76250000D03*
%TO.P,AD7142_b1,13,AVCC_13*%
%TO.N,+3.3V*%
X156880000Y-75750000D03*
%TO.P,AD7142_b1,12,CSHIELD_12*%
%TO.N,Net-(AD7142_b1-CIN10)*%
X156880000Y-75250000D03*
%TO.P,AD7142_b1,11,CIN13_11*%
X156880000Y-74750000D03*
%TO.P,AD7142_b1,10,CIN12_10*%
X156880000Y-74250000D03*
%TO.P,AD7142_b1,9,CIN11_9*%
X156880000Y-73750000D03*
D18*
%TO.P,AD7142_b1,8,CIN10_8*%
X157565000Y-73065000D03*
%TO.P,AD7142_b1,7,CIN9_7*%
X158065000Y-73065000D03*
%TO.P,AD7142_b1,6,CIN8_6*%
X158565000Y-73065000D03*
%TO.P,AD7142_b1,5,CIN7_5*%
%TO.N,Net-(AD7142_b1-CIN7)*%
X159065000Y-73065000D03*
%TO.P,AD7142_b1,4,CIN6_4*%
%TO.N,Net-(AD7142_b1-CIN6)*%
X159565000Y-73065000D03*
%TO.P,AD7142_b1,3,CIN5_3*%
%TO.N,Net-(AD7142_b1-CIN5)*%
X160065000Y-73065000D03*
%TO.P,AD7142_b1,2,CIN4_2*%
%TO.N,Net-(AD7142_b1-CIN4)*%
X160565000Y-73065000D03*
%TO.P,AD7142_b1,1,CIN3_1*%
%TO.N,Net-(AD7142_b1-CIN3)*%
X161065000Y-73065000D03*
%TD*%
D19*
%TO.P,COLUMNS,SH2*%
%TO.N,N/C*%
X163450000Y-63000000D03*
%TO.P,COLUMNS,SH1*%
X174750000Y-63000000D03*
D20*
%TO.P,COLUMNS,16,16_16*%
%TO.N,Net-(AD7142_b1-CIN7)*%
X165350000Y-66250000D03*
%TO.P,COLUMNS,15,15_15*%
%TO.N,Net-(AD7142_b1-CIN6)*%
X165850000Y-66250000D03*
%TO.P,COLUMNS,14,14_14*%
%TO.N,Net-(AD7142_b1-CIN5)*%
X166350000Y-66250000D03*
%TO.P,COLUMNS,13,13_13*%
%TO.N,Net-(AD7142_b1-CIN4)*%
X166850000Y-66250000D03*
%TO.P,COLUMNS,12,12_12*%
%TO.N,Net-(AD7142_b1-CIN3)*%
X167350000Y-66250000D03*
%TO.P,COLUMNS,11,11_11*%
%TO.N,Net-(AD7142_b1-CIN2)*%
X167850000Y-66250000D03*
%TO.P,COLUMNS,10,10_10*%
%TO.N,Net-(AD7142_b1-CIN1)*%
X168350000Y-66250000D03*
%TO.P,COLUMNS,9,9_9*%
%TO.N,Net-(AD7142_b1-CIN0)*%
X168850000Y-66250000D03*
%TO.P,COLUMNS,8,8_8*%
%TO.N,Net-(AD7142_a1-CIN7)*%
X169350000Y-66250000D03*
%TO.P,COLUMNS,7,7_7*%
%TO.N,Net-(AD7142_a1-CIN6)*%
X169850000Y-66250000D03*
%TO.P,COLUMNS,6,6_6*%
%TO.N,Net-(AD7142_a1-CIN5)*%
X170350000Y-66250000D03*
%TO.P,COLUMNS,5,5_5*%
%TO.N,Net-(AD7142_a1-CIN4)*%
X170850000Y-66250000D03*
%TO.P,COLUMNS,4,4_4*%
%TO.N,Net-(AD7142_a1-CIN3)*%
X171350000Y-66250000D03*
%TO.P,COLUMNS,3,3_3*%
%TO.N,Net-(AD7142_a1-CIN2)*%
X171850000Y-66250000D03*
%TO.P,COLUMNS,2,2_2*%
%TO.N,Net-(AD7142_a1-CIN1)*%
X172350000Y-66250000D03*
%TO.P,COLUMNS,1,1_1*%
%TO.N,Net-(AD7142_a1-CIN0)*%
X172850000Y-66250000D03*
%TD*%
D21*
%TO.P,Black,20,Pin_20_20*%
%TO.N,/VB*%
X157750000Y-84780000D03*
%TO.P,Black,19,Pin_19_19*%
%TO.N,/C13*%
X157750000Y-87320000D03*
%TO.P,Black,18,Pin_18_18*%
%TO.N,/C14*%
X157750000Y-89860000D03*
%TO.P,Black,17,Pin_17_17*%
%TO.N,/C15*%
X157750000Y-92400000D03*
%TO.P,Black,16,Pin_16_16*%
%TO.N,/R*%
X157750000Y-94940000D03*
%TO.P,Black,15,Pin_15_15*%
%TO.N,/A0*%
X157750000Y-97480000D03*
%TO.P,Black,14,Pin_14_14*%
%TO.N,/A1*%
X157750000Y-100020000D03*
%TO.P,Black,13,Pin_13_13*%
%TO.N,/A2*%
X157750000Y-102560000D03*
%TO.P,Black,12,Pin_12_12*%
%TO.N,/A3*%
X157750000Y-105100000D03*
%TO.P,Black,11,Pin_11_11*%
%TO.N,/A4*%
X157750000Y-107640000D03*
%TO.P,Black,10,Pin_10_10*%
%TO.N,/A5*%
X157750000Y-110180000D03*
%TO.P,Black,9,Pin_9_9*%
%TO.N,/A6*%
X157750000Y-112720000D03*
%TO.P,Black,8,Pin_8_8*%
%TO.N,/A7*%
X157750000Y-115260000D03*
%TO.P,Black,7,Pin_7_7*%
%TO.N,/B0*%
X157750000Y-117800000D03*
%TO.P,Black,6,Pin_6_6*%
%TO.N,/B1*%
X157750000Y-120340000D03*
%TO.P,Black,5,Pin_5_5*%
%TO.N,/B2*%
X157750000Y-122880000D03*
%TO.P,Black,4,Pin_4_4*%
%TO.N,/B10*%
X157750000Y-125420000D03*
%TO.P,Black,3,Pin_3_3*%
%TO.N,+3.3V*%
X157750000Y-127960000D03*
%TO.P,Black,2,Pin_2_2*%
%TO.N,GND*%
X157750000Y-130500000D03*
D22*
%TO.P,Black,1,Pin_1_1*%
%TO.N,+5V*%
X157750000Y-133040000D03*
%TD*%
D23*
%TO.P,74HC4051,16,VCC_16*%
%TO.N,+3.3V*%
X140650000Y-72800000D03*
%TO.P,74HC4051,15,A2_15*%
%TO.N,Net-(U2-A2)*%
X141920000Y-72800000D03*
%TO.P,74HC4051,14,A1_14*%
%TO.N,Net-(U2-A1)*%
X143190000Y-72800000D03*
%TO.P,74HC4051,13,A0_13*%
%TO.N,Net-(U2-A0)*%
X144460000Y-72800000D03*
%TO.P,74HC4051,12,A3_12*%
%TO.N,Net-(U2-A3)*%
X145730000Y-72800000D03*
%TO.P,74HC4051,11,S0_11*%
%TO.N,/A0*%
X147000000Y-72800000D03*
%TO.P,74HC4051,10,S1_10*%
%TO.N,/A1*%
X148270000Y-72800000D03*
%TO.P,74HC4051,9,S2_9*%
%TO.N,/A2*%
X149540000Y-72800000D03*
%TO.P,74HC4051,8,GND_8*%
%TO.N,GND*%
X149540000Y-77750000D03*
%TO.P,74HC4051,7,VEE_7*%
X148270000Y-77750000D03*
%TO.P,74HC4051,6,~{E}_6*%
X147000000Y-77750000D03*
%TO.P,74HC4051,5,A5_5*%
%TO.N,Net-(U2-A5)*%
X145730000Y-77750000D03*
%TO.P,74HC4051,4,A7_4*%
%TO.N,Net-(U2-A7)*%
X144460000Y-77750000D03*
%TO.P,74HC4051,3,A_3*%
%TO.N,Net-(AD7142_a1-SRC)*%
X143190000Y-77750000D03*
%TO.P,74HC4051,2,A6_2*%
%TO.N,Net-(U2-A6)*%
X141920000Y-77750000D03*
%TO.P,74HC4051,1,A4_1*%
%TO.N,Net-(U2-A4)*%
X140650000Y-77750000D03*
%TD*%
D24*
%TO.P,C1,1*%
%TO.N,Net-(AD7142_a1-CIN10)*%
X167230000Y-73750000D03*
%TO.P,C1,2*%
%TO.N,GND*%
X166270000Y-73750000D03*
%TD*%
%TO.P,C6,1*%
%TO.N,+3.3V*%
X155710000Y-74750000D03*
%TO.P,C6,2*%
%TO.N,GND*%
X154750000Y-74750000D03*
%TD*%
D25*
%TO.P,C4,1*%
%TO.N,+3.3V*%
X139095000Y-72295000D03*
%TO.P,C4,2*%
%TO.N,GND*%
X139095000Y-73255000D03*
%TD*%
D15*
%TO.P,R2,1*%
%TO.N,+3.3V*%
X162769998Y-79750000D03*
%TO.P,R2,2*%
%TO.N,/A8*%
X161750000Y-79750000D03*
%TD*%
D24*
%TO.P,C2,1*%
%TO.N,+3.3V*%
X167210000Y-74750000D03*
%TO.P,C2,2*%
%TO.N,GND*%
X166250000Y-74750000D03*
%TD*%
D22*
%TO.P,J_MCU_LEFT1,1,Pin_1_1*%
%TO.N,/B12*%
X172750000Y-133000000D03*
D21*
%TO.P,J_MCU_LEFT1,2,Pin_2_2*%
%TO.N,/B13*%
X172750000Y-130460000D03*
%TO.P,J_MCU_LEFT1,3,Pin_3_3*%
%TO.N,/B14*%
X172750000Y-127920000D03*
%TO.P,J_MCU_LEFT1,4,Pin_4_4*%
%TO.N,/B15*%
X172750000Y-125380000D03*
%TO.P,J_MCU_LEFT1,5,Pin_5_5*%
%TO.N,/A8*%
X172750000Y-122840000D03*
%TO.P,J_MCU_LEFT1,6,Pin_6_6*%
%TO.N,/A9*%
X172750000Y-120300000D03*
%TO.P,J_MCU_LEFT1,7,Pin_7_7*%
%TO.N,/A10*%
X172750000Y-117760000D03*
%TO.P,J_MCU_LEFT1,8,Pin_8_8*%
%TO.N,/A11*%
X172750000Y-115220000D03*
%TO.P,J_MCU_LEFT1,9,Pin_9_9*%
%TO.N,/A12*%
X172750000Y-112680000D03*
%TO.P,J_MCU_LEFT1,10,Pin_10_10*%
%TO.N,/A15*%
X172750000Y-110140000D03*
%TO.P,J_MCU_LEFT1,11,Pin_11_11*%
%TO.N,/B3*%
X172750000Y-107600000D03*
%TO.P,J_MCU_LEFT1,12,Pin_12_12*%
%TO.N,/B4*%
X172750000Y-105060000D03*
%TO.P,J_MCU_LEFT1,13,Pin_13_13*%
%TO.N,/B5*%
X172750000Y-102520000D03*
%TO.P,J_MCU_LEFT1,14,Pin_14_14*%
%TO.N,/B6*%
X172750000Y-99980000D03*
%TO.P,J_MCU_LEFT1,15,Pin_15_15*%
%TO.N,/B7*%
X172750000Y-97440000D03*
%TO.P,J_MCU_LEFT1,16,Pin_16_16*%
%TO.N,/B8*%
X172750000Y-94900000D03*
%TO.P,J_MCU_LEFT1,17,Pin_17_17*%
%TO.N,/B9*%
X172750000Y-92360000D03*
%TO.P,J_MCU_LEFT1,18,Pin_18_18*%
%TO.N,+5V*%
X172750000Y-89820000D03*
%TO.P,J_MCU_LEFT1,19,Pin_19_19*%
%TO.N,GND*%
X172750000Y-87280000D03*
%TO.P,J_MCU_LEFT1,20,Pin_20_20*%
%TO.N,+3.3V*%
X172750000Y-84740000D03*
%TD*%
D24*
%TO.P,C5,1*%
%TO.N,Net-(AD7142_b1-CIN10)*%
X155705738Y-73748918D03*
%TO.P,C5,2*%
%TO.N,GND*%
X154745738Y-73748918D03*
%TD*%
%TO.P,C3,1*%
%TO.N,+3.3V*%
X167210000Y-75750000D03*
%TO.P,C3,2*%
%TO.N,GND*%
X166250000Y-75750000D03*
%TD*%
%TO.P,C7,1*%
%TO.N,+3.3V*%
X155710000Y-75750000D03*
%TO.P,C7,2*%
%TO.N,GND*%
X154750000Y-75750000D03*
%TD*%
D26*
%TO.N,GND*%
X147000000Y-79380000D03*
X175000000Y-76750000D03*
X149554531Y-79369123D03*
X157250000Y-81000000D03*
X163065171Y-74815171D03*
X170250000Y-79250000D03*
X163000000Y-76750000D03*
X155000000Y-72750000D03*
X175000171Y-74750171D03*
X148272741Y-79374629D03*
X166500000Y-72500000D03*
X166375000Y-77875000D03*
X139095787Y-74047893D03*
X154750000Y-77442822D03*
%TO.N,+3.3V*%
X130500000Y-73500000D03*
X160250000Y-93550000D03*
X160250000Y-91100000D03*
X142000000Y-68000000D03*
X167000000Y-83000000D03*
X170000000Y-86000000D03*
X140000000Y-70000000D03*
X153125000Y-91375000D03*
X151750000Y-82250000D03*
X152750000Y-83250000D03*
X156250000Y-79750000D03*
X153125000Y-88875000D03*
X136750000Y-73500000D03*
%TO.N,Net-(AD7142_a1-SRC)*%
X143732500Y-76232500D03*
X167500000Y-78000000D03*
X155750000Y-78750000D03*
%TO.N,Net-(U2-A5)*%
X144500000Y-80000000D03*
X139103365Y-78391346D03*
%TO.N,/B14*%
X160250000Y-82250000D03*
%TO.N,/B15*%
X161250000Y-82250000D03*
%TO.N,/B13*%
X169250000Y-119000000D03*
X162250000Y-82250000D03*
%TO.N,/B12*%
X170000000Y-115750000D03*
X163250000Y-82250000D03*
%TO.N,/A8*%
X164250000Y-82250000D03*
%TO.N,/A5*%
X163741051Y-104188949D03*
%TO.N,/A4*%
X164500000Y-100890000D03*
%TO.N,/A3*%
X165250000Y-97600000D03*
%TD*%
%TO.N,Net-(U2-A2)*%
D27*
X136743970Y-65240343D02*
X141920000Y-70416373D01*
X141920000Y-70416373D02*
X141920000Y-72800000D01*
X135879366Y-65240343D02*
X136743970Y-65240343D01*
X135095975Y-64456952D02*
X135879366Y-65240343D01*
%TO.N,Net-(U2-A1)*%
X135595975Y-63741266D02*
X135595975Y-64391266D01*
%TO.N,Net-(U2-A0)*%
X136095975Y-63741266D02*
X136095975Y-64325580D01*
X136095975Y-64325580D02*
X136210738Y-64440343D01*
X136210738Y-64440343D02*
X137075342Y-64440343D01*
X144460000Y-71825001D02*
X144460000Y-72800000D01*
X137075342Y-64440343D02*
X144460000Y-71825001D01*
%TO.N,Net-(U2-A2)*%
X135095975Y-64456952D02*
X135095975Y-63741266D01*
%TO.N,Net-(U2-A1)*%
X138034656Y-65965344D02*
X136909656Y-64840343D01*
X136909656Y-64840343D02*
X136045052Y-64840343D01*
X136045052Y-64840343D02*
X135595975Y-64391266D01*
X143190000Y-72800000D02*
X143190000Y-71120687D01*
X143190000Y-71120687D02*
X138034656Y-65965344D01*
%TO.N,Net-(U2-A3)*%
X134595975Y-63741266D02*
X134595975Y-66245975D01*
X134595975Y-66245975D02*
X134600000Y-66250000D01*
%TO.N,Net-(U2-A4)*%
X134095975Y-63741266D02*
X134095975Y-66245975D01*
X134095975Y-66245975D02*
X134100000Y-66250000D01*
%TO.N,Net-(U2-A5)*%
X133595975Y-63741266D02*
X133595975Y-66245975D01*
X133595975Y-66245975D02*
X133600000Y-66250000D01*
%TO.N,Net-(U2-A6)*%
X133100000Y-66250000D02*
X133095975Y-66245975D01*
X133095975Y-66245975D02*
X133095975Y-63741266D01*
%TO.N,Net-(U2-A7)*%
X132600000Y-66250000D02*
X132595975Y-66245975D01*
X132595975Y-66245975D02*
X132595975Y-63741266D01*
%TO.N,Net-(AD7142_a1-CIN10)*%
X167230000Y-73750000D02*
X168750000Y-73750000D01*
X170435000Y-73065000D02*
X169320000Y-73065000D01*
X168750000Y-73750000D02*
X168750000Y-75250000D01*
X168750000Y-73635000D02*
X168750000Y-73750000D01*
X169320000Y-73065000D02*
X168750000Y-73635000D01*
%TO.N,GND*%
X149554531Y-77764531D02*
X149540000Y-77750000D01*
X163000000Y-76750000D02*
X162500000Y-76250000D01*
X157250000Y-79750000D02*
X158065000Y-78935000D01*
X158065000Y-77935000D02*
X158565000Y-77935000D01*
X148270000Y-77750000D02*
X148270000Y-79371888D01*
X170435000Y-79065000D02*
X170435000Y-77935000D01*
X154750000Y-73790000D02*
X154790000Y-73750000D01*
X161750000Y-75250000D02*
X162630342Y-75250000D01*
X168000000Y-76250000D02*
X168750000Y-76250000D01*
X149554531Y-79369123D02*
X149554531Y-77764531D01*
X169935000Y-77935000D02*
X170435000Y-77935000D01*
X162630342Y-75250000D02*
X163065171Y-74815171D01*
X158565000Y-77935000D02*
X158565000Y-78435000D01*
X166375000Y-77875000D02*
X168000000Y-76250000D01*
X155155366Y-77442822D02*
X156348188Y-76250000D01*
X173620000Y-76250000D02*
X174500000Y-76250000D01*
X139095000Y-73255000D02*
X139095000Y-74047106D01*
X166270000Y-72730000D02*
X166500000Y-72500000D01*
X154750000Y-77442822D02*
X155155366Y-77442822D01*
X157250000Y-81000000D02*
X157250000Y-79750000D01*
X173620000Y-75250000D02*
X174500342Y-75250000D01*
X174500342Y-75250000D02*
X175000171Y-74750171D01*
X166250000Y-75750000D02*
X166250000Y-73770000D01*
X162500000Y-76250000D02*
X161750000Y-76250000D01*
X147000000Y-79380000D02*
X147000000Y-77750000D01*
X139095000Y-74047106D02*
X139095787Y-74047893D01*
X154750000Y-75750000D02*
X154750000Y-73790000D01*
X154745738Y-73748918D02*
X154745738Y-73004262D01*
X158065000Y-77935000D02*
X158065000Y-78935000D01*
X156348188Y-76250000D02*
X156880000Y-76250000D01*
X158565000Y-78435000D02*
X158065000Y-78935000D01*
X166250000Y-73770000D02*
X166270000Y-73750000D01*
X166270000Y-73750000D02*
X166270000Y-72730000D01*
X170250000Y-79250000D02*
X170435000Y-79065000D01*
X174500000Y-76250000D02*
X175000000Y-76750000D01*
X148270000Y-79371888D02*
X148272741Y-79374629D01*
X154745738Y-73004262D02*
X155000000Y-72750000D01*
%TO.N,+3.3V*%
D28*
X157565000Y-78435000D02*
X157565000Y-77935000D01*
X139095000Y-72295000D02*
X139640000Y-72295000D01*
X166500000Y-76750000D02*
X167210000Y-76040000D01*
X159065000Y-77935000D02*
X159065000Y-79435000D01*
X159065000Y-79435000D02*
X158750000Y-79750000D01*
X167210000Y-74750000D02*
X167210000Y-75750000D01*
X139640000Y-72295000D02*
X140145000Y-72295000D01*
X155710000Y-75750000D02*
X155710000Y-74750000D01*
X173620000Y-75750000D02*
X175500000Y-75750000D01*
X156880000Y-75750000D02*
X155710000Y-75750000D01*
X168750000Y-75750000D02*
X167210000Y-75750000D01*
X153500000Y-76500000D02*
X155250000Y-76500000D01*
X156250000Y-79750000D02*
X157565000Y-78435000D01*
X169435000Y-78565000D02*
X169435000Y-77935000D01*
X155250000Y-76500000D02*
X155710000Y-76040000D01*
X170935000Y-77935000D02*
X170935000Y-79815000D01*
X170935000Y-79815000D02*
X170500000Y-80250000D01*
X166250000Y-76750000D02*
X166500000Y-76750000D01*
X161750000Y-75750000D02*
X163500000Y-75750000D01*
D27*
X167210000Y-76040000D02*
X167210000Y-75750000D01*
D28*
X169000000Y-79000000D02*
X169435000Y-78565000D01*
X140145000Y-72295000D02*
X140650000Y-72800000D01*
D27*
X155710000Y-75750000D02*
X155710000Y-76040000D01*
%TO.N,Net-(U2-A4)*%
X134100000Y-66250000D02*
X134100000Y-73350000D01*
X134100000Y-73350000D02*
X138500000Y-77750000D01*
X138500000Y-77750000D02*
X140650000Y-77750000D01*
%TO.N,Net-(U2-A6)*%
X138275000Y-79025000D02*
X133100000Y-73850000D01*
X141920000Y-77750000D02*
X141920000Y-78830000D01*
X141920000Y-78830000D02*
X141725000Y-79025000D01*
X141725000Y-79025000D02*
X138275000Y-79025000D01*
X133100000Y-73850000D02*
X133100000Y-66250000D01*
%TO.N,Net-(AD7142_a1-SRC)*%
X155750000Y-78750000D02*
X155750000Y-77413874D01*
X167500000Y-77533874D02*
X167500000Y-78000000D01*
X168283874Y-76750000D02*
X167500000Y-77533874D01*
X168750000Y-76750000D02*
X168283874Y-76750000D01*
X155750000Y-77413874D02*
X156413874Y-76750000D01*
X143732500Y-76232500D02*
X143190000Y-76775001D01*
X143190000Y-76775001D02*
X143190000Y-77750000D01*
X156413874Y-76750000D02*
X156880000Y-76750000D01*
%TO.N,Net-(U2-A7)*%
X144460000Y-78724999D02*
X144460000Y-77750000D01*
X137925000Y-79425000D02*
X143759999Y-79425000D01*
X132600000Y-74100000D02*
X137925000Y-79425000D01*
X132600000Y-66250000D02*
X132600000Y-74100000D01*
X143759999Y-79425000D02*
X144460000Y-78724999D01*
%TO.N,Net-(U2-A5)*%
X145730000Y-78770000D02*
X145730000Y-77750000D01*
X138391346Y-78391346D02*
X139103365Y-78391346D01*
X145730000Y-78770000D02*
X144500000Y-80000000D01*
X133600000Y-66250000D02*
X133600000Y-73600000D01*
X133600000Y-73600000D02*
X138391346Y-78391346D01*
%TO.N,/A2*%
X156800000Y-93550000D02*
X158950000Y-93550000D01*
X149540000Y-72800000D02*
X149540000Y-74479313D01*
X159400000Y-100910000D02*
X157750000Y-102560000D01*
X159400000Y-94000000D02*
X159400000Y-100910000D01*
X152500000Y-80250000D02*
X155250000Y-83000000D01*
X158950000Y-93550000D02*
X159400000Y-94000000D01*
X155250000Y-83000000D02*
X155250000Y-92000000D01*
X149540000Y-74479313D02*
X152500000Y-77439313D01*
X152500000Y-77439313D02*
X152500000Y-80250000D01*
X155250000Y-92000000D02*
X156800000Y-93550000D01*
%TO.N,/A1*%
X154850000Y-83165686D02*
X154850000Y-94014314D01*
X152100000Y-80415686D02*
X154850000Y-83165686D01*
X154850000Y-94014314D02*
X157085686Y-96250000D01*
X159000000Y-96750000D02*
X159000000Y-98770000D01*
X152100000Y-77604999D02*
X152100000Y-80415686D01*
X148270000Y-72800000D02*
X148270000Y-73774999D01*
X148270000Y-73774999D02*
X152100000Y-77604999D01*
X158500000Y-96250000D02*
X159000000Y-96750000D01*
X157085686Y-96250000D02*
X158500000Y-96250000D01*
X159000000Y-98770000D02*
X157750000Y-100020000D01*
%TO.N,/A0*%
X151700000Y-80581372D02*
X154374314Y-83255685D01*
X147000000Y-73250000D02*
X151700000Y-77950000D01*
X147000000Y-72800000D02*
X147000000Y-73250000D01*
X154374314Y-83255685D02*
X154374314Y-94104314D01*
X154374314Y-94104314D02*
X157750000Y-97480000D01*
X151700000Y-77950000D02*
X151700000Y-80581372D01*
%TO.N,Net-(U2-A3)*%
X136065686Y-74750000D02*
X134600000Y-73284314D01*
X134600000Y-73284314D02*
X134600000Y-66250000D01*
X145730000Y-72800000D02*
X145730000Y-73770000D01*
X145730000Y-73770000D02*
X144750000Y-74750000D01*
X136065686Y-74750000D02*
X144750000Y-74750000D01*
%TO.N,Net-(AD7142_b1-CIN3)*%
X167350000Y-66250000D02*
X167350000Y-67275000D01*
X167350000Y-67275000D02*
X161560000Y-73065000D01*
X161560000Y-73065000D02*
X161065000Y-73065000D01*
%TO.N,Net-(AD7142_b1-CIN4)*%
X161750000Y-72250000D02*
X160913874Y-72250000D01*
X166850000Y-66250000D02*
X166850000Y-67150000D01*
X166850000Y-67150000D02*
X161750000Y-72250000D01*
X160565000Y-72598874D02*
X160565000Y-73065000D01*
X160913874Y-72250000D02*
X160565000Y-72598874D01*
%TO.N,Net-(AD7142_b1-CIN5)*%
X166350000Y-67084314D02*
X161584314Y-71850000D01*
X160065000Y-72533188D02*
X160065000Y-73065000D01*
X160748188Y-71850000D02*
X160065000Y-72533188D01*
X161584314Y-71850000D02*
X160748188Y-71850000D01*
X166350000Y-66250000D02*
X166350000Y-67084314D01*
%TO.N,Net-(AD7142_b1-CIN6)*%
X159565000Y-72467502D02*
X159565000Y-73065000D01*
X160582502Y-71450000D02*
X159565000Y-72467502D01*
X161418628Y-71450000D02*
X160582502Y-71450000D01*
X165850000Y-67018628D02*
X161418628Y-71450000D01*
X165850000Y-66250000D02*
X165850000Y-67018628D01*
%TO.N,Net-(AD7142_b1-CIN7)*%
X161252942Y-71050000D02*
X160416816Y-71050000D01*
X165350000Y-66250000D02*
X165350000Y-66952942D01*
X160416816Y-71050000D02*
X159065000Y-72401816D01*
X159065000Y-72401816D02*
X159065000Y-73065000D01*
X165350000Y-66952942D02*
X161252942Y-71050000D01*
%TO.N,Net-(AD7142_b1-CIN10)*%
X157450000Y-73065000D02*
X156880000Y-73635000D01*
X155705738Y-73748918D02*
X155706820Y-73750000D01*
X158565000Y-73065000D02*
X157450000Y-73065000D01*
X155706820Y-73750000D02*
X156880000Y-73750000D01*
X156880000Y-73635000D02*
X156880000Y-75250000D01*
%TO.N,/B14*%
X160250000Y-82250000D02*
X159565000Y-81565000D01*
X159565000Y-77935000D02*
X159565000Y-81565000D01*
%TO.N,/B15*%
X160065000Y-77935000D02*
X160065000Y-81065000D01*
X161250000Y-82250000D02*
X160065000Y-81065000D01*
%TO.N,/B13*%
X160565000Y-77935000D02*
X160565000Y-80565000D01*
X172750000Y-130460000D02*
X169250000Y-126960000D01*
X169250000Y-126960000D02*
X169250000Y-119000000D01*
X160565000Y-80565000D02*
X162250000Y-82250000D01*
%TO.N,/B12*%
X167500000Y-118250000D02*
X167500000Y-127750000D01*
X161065000Y-77935000D02*
X161065000Y-80065000D01*
X170000000Y-115750000D02*
X167500000Y-118250000D01*
X167500000Y-127750000D02*
X172750000Y-133000000D01*
X161065000Y-80065000D02*
X163250000Y-82250000D01*
%TO.N,/A8*%
X161750000Y-77250000D02*
X161750000Y-79750000D01*
X161750000Y-79750000D02*
X164250000Y-82250000D01*
%TO.N,Net-(AD7142_b1-CIN0)*%
X168850000Y-68181812D02*
X162281812Y-74750000D01*
X168850000Y-66250000D02*
X168850000Y-68181812D01*
X162281812Y-74750000D02*
X161750000Y-74750000D01*
%TO.N,Net-(AD7142_b1-CIN1)*%
X162216126Y-74250000D02*
X161750000Y-74250000D01*
X168350000Y-68116126D02*
X162216126Y-74250000D01*
X168350000Y-66250000D02*
X168350000Y-68116126D01*
%TO.N,Net-(AD7142_b1-CIN2)*%
X167850000Y-66250000D02*
X167850000Y-68050440D01*
X167850000Y-68050440D02*
X162150440Y-73750000D01*
X162150440Y-73750000D02*
X161750000Y-73750000D01*
%TO.N,/A7*%
X171935000Y-77935000D02*
X171935000Y-78500685D01*
X163000000Y-110010000D02*
X157750000Y-115260000D01*
X171935000Y-78500685D02*
X172100000Y-78665686D01*
X172100000Y-80215686D02*
X163000000Y-89315686D01*
X163000000Y-89315686D02*
X163000000Y-110010000D01*
X172100000Y-78665686D02*
X172100000Y-80215686D01*
%TO.N,/A6*%
X162250000Y-89500000D02*
X162250000Y-108250000D01*
X162250000Y-108250000D02*
X157780000Y-112720000D01*
X171700000Y-80050000D02*
X162250000Y-89500000D01*
X171435000Y-77935000D02*
X171435000Y-78566371D01*
X171700000Y-78831371D02*
X171700000Y-80050000D01*
X171435000Y-78566371D02*
X171700000Y-78831371D01*
X157780000Y-112720000D02*
X157750000Y-112720000D01*
%TO.N,/A5*%
X172500000Y-80381372D02*
X163750000Y-89131372D01*
X163741051Y-103752983D02*
X163741051Y-104188949D01*
X163750000Y-103744034D02*
X163741051Y-103752983D01*
X163750000Y-89131372D02*
X163750000Y-103744034D01*
X172435000Y-77935000D02*
X172435000Y-78435000D01*
X172435000Y-78435000D02*
X172500000Y-78500001D01*
X172500000Y-78500001D02*
X172500000Y-80381372D01*
%TO.N,/A4*%
X164500000Y-100890000D02*
X164500000Y-89000000D01*
X164500000Y-89000000D02*
X172935000Y-80565000D01*
X172935000Y-80565000D02*
X172935000Y-77935000D01*
%TO.N,/A3*%
X165250000Y-88815686D02*
X173616834Y-80448852D01*
X173616834Y-80448852D02*
X173616834Y-79743965D01*
X173620000Y-77250000D02*
X173620000Y-79620000D01*
X165250000Y-97600000D02*
X165250000Y-88815686D01*
X173620000Y-77250000D02*
X174028752Y-77250000D01*
%TO.N,/C15*%
X157750000Y-92330000D02*
X157330000Y-92330000D01*
%TO.N,Net-(AD7142_a1-CIN3)*%
X171350000Y-67837256D02*
X172935000Y-69422256D01*
X171350000Y-66250000D02*
X171350000Y-67837256D01*
X172935000Y-69422256D02*
X172935000Y-73065000D01*
%TO.N,Net-(AD7142_a1-CIN4)*%
X170850000Y-66250000D02*
X170850000Y-67902942D01*
X172435000Y-69487942D02*
X172435000Y-73065000D01*
X170850000Y-67902942D02*
X172435000Y-69487942D01*
%TO.N,Net-(AD7142_a1-CIN5)*%
X170350000Y-66250000D02*
X170350000Y-67968628D01*
X171935000Y-69553628D02*
X171935000Y-73065000D01*
X170350000Y-67968628D02*
X171935000Y-69553628D01*
%TO.N,Net-(AD7142_a1-CIN6)*%
X169850000Y-66250000D02*
X169850000Y-68034314D01*
X169850000Y-68034314D02*
X171435000Y-69619314D01*
X171435000Y-69619314D02*
X171435000Y-73065000D01*
%TO.N,Net-(AD7142_a1-CIN7)*%
X169350000Y-68100000D02*
X170935000Y-69685000D01*
X169350000Y-66250000D02*
X169350000Y-68100000D01*
X170935000Y-69685000D02*
X170935000Y-73065000D01*
%TO.N,Net-(AD7142_a1-CIN0)*%
X172850000Y-67600000D02*
X174750000Y-69500000D01*
X174151812Y-74750000D02*
X173620000Y-74750000D01*
X172850000Y-66250000D02*
X172850000Y-67600000D01*
X174750000Y-69500000D02*
X174750000Y-74151812D01*
X174750000Y-74151812D02*
X174151812Y-74750000D01*
%TO.N,Net-(AD7142_a1-CIN1)*%
X172350000Y-66250000D02*
X172350000Y-67684314D01*
X174350000Y-73986126D02*
X174086126Y-74250000D01*
X174350000Y-69684314D02*
X174350000Y-73986126D01*
X172350000Y-67684314D02*
X174350000Y-69684314D01*
X174086126Y-74250000D02*
X173620000Y-74250000D01*
%TO.N,Net-(AD7142_a1-CIN2)*%
X171850000Y-67750000D02*
X173500000Y-69400000D01*
X173500000Y-73750000D02*
X173620000Y-73750000D01*
X171850000Y-66250000D02*
X171850000Y-67750000D01*
X173500000Y-69400000D02*
X173500000Y-73750000D01*
%TD*%
%TA.AperFunction,Conductor*%
%TO.N,+3.3V*%
G36*
X131044453Y-60270185D02*
G01*
X131090208Y-60322989D01*
X131100152Y-60392147D01*
X131071127Y-60455703D01*
X131051726Y-60473766D01*
X131038427Y-60483721D01*
X130952181Y-60598930D01*
X130952177Y-60598937D01*
X130901883Y-60733783D01*
X130895476Y-60793382D01*
X130895476Y-60793389D01*
X130895475Y-60793401D01*
X130895475Y-61689136D01*
X130895476Y-61689142D01*
X130901883Y-61748749D01*
X130952177Y-61883594D01*
X130952181Y-61883601D01*
X131038427Y-61998810D01*
X131038430Y-61998813D01*
X131153639Y-62085059D01*
X131153646Y-62085063D01*
X131169964Y-62091149D01*
X131288492Y-62135357D01*
X131348102Y-62141766D01*
X131843847Y-62141765D01*
X131903458Y-62135357D01*
X132038306Y-62085062D01*
X132153521Y-61998812D01*
X132239771Y-61883597D01*
X132290066Y-61748749D01*
X132296475Y-61689139D01*
X132296474Y-60793394D01*
X132290066Y-60733783D01*
X132282381Y-60713179D01*
X132239772Y-60598937D01*
X132239768Y-60598930D01*
X132153522Y-60483721D01*
X132140224Y-60473766D01*
X132098354Y-60417832D01*
X132093370Y-60348140D01*
X132126856Y-60286817D01*
X132188180Y-60253333D01*
X132214536Y-60250500D01*
X136477414Y-60250500D01*
X136544453Y-60270185D01*
X136590208Y-60322989D01*
X136600152Y-60392147D01*
X136571127Y-60455703D01*
X136551726Y-60473766D01*
X136538427Y-60483721D01*
X136452181Y-60598930D01*
X136452177Y-60598937D01*
X136401883Y-60733783D01*
X136395476Y-60793382D01*
X136395476Y-60793389D01*
X136395475Y-60793401D01*
X136395475Y-61689136D01*
X136395476Y-61689142D01*
X136401883Y-61748749D01*
X136452177Y-61883594D01*
X136452181Y-61883601D01*
X136538427Y-61998810D01*
X136538430Y-61998813D01*
X136653639Y-62085059D01*
X136653646Y-62085063D01*
X136669964Y-62091149D01*
X136788492Y-62135357D01*
X136848102Y-62141766D01*
X137343847Y-62141765D01*
X137403458Y-62135357D01*
X137538306Y-62085062D01*
X137653521Y-61998812D01*
X137739771Y-61883597D01*
X137790066Y-61748749D01*
X137796475Y-61689139D01*
X137796474Y-60793394D01*
X137790066Y-60733783D01*
X137782381Y-60713179D01*
X137739772Y-60598937D01*
X137739768Y-60598930D01*
X137653522Y-60483721D01*
X137640224Y-60473766D01*
X137598354Y-60417832D01*
X137593370Y-60348140D01*
X137626856Y-60286817D01*
X137688180Y-60253333D01*
X137714536Y-60250500D01*
X175805735Y-60250500D01*
X175816038Y-60250929D01*
X176098219Y-60274456D01*
X176112792Y-60276550D01*
X176389678Y-60333311D01*
X176403894Y-60337119D01*
X176672081Y-60426353D01*
X176685752Y-60431825D01*
X176941434Y-60552262D01*
X176954358Y-60559316D01*
X177193941Y-60709264D01*
X177205942Y-60717809D01*
X177426024Y-60895138D01*
X177436915Y-60905037D01*
X177625777Y-61098426D01*
X177634384Y-61107239D01*
X177644042Y-61118385D01*
X177816095Y-61342586D01*
X177824362Y-61354799D01*
X177968581Y-61597843D01*
X177975340Y-61610952D01*
X178084796Y-61858359D01*
X178089683Y-61869404D01*
X178094837Y-61883222D01*
X178177686Y-62153419D01*
X178181161Y-62167740D01*
X178212148Y-62339474D01*
X178231344Y-62445861D01*
X178233095Y-62460505D01*
X178250121Y-62746318D01*
X178250340Y-62753694D01*
X178249564Y-105899574D01*
X178229878Y-105966613D01*
X178177073Y-106012367D01*
X178107915Y-106022310D01*
X178044360Y-105993283D01*
X178018177Y-105961572D01*
X178005599Y-105939786D01*
X177958587Y-105858359D01*
X177794956Y-105645110D01*
X177794951Y-105645104D01*
X177604895Y-105455048D01*
X177604888Y-105455042D01*
X177391645Y-105291416D01*
X177391644Y-105291415D01*
X177391641Y-105291413D01*
X177244199Y-105206287D01*
X177158866Y-105157019D01*
X177158850Y-105157011D01*
X176910524Y-105054152D01*
X176780708Y-105019368D01*
X176650891Y-104984584D01*
X176650885Y-104984583D01*
X176650880Y-104984582D01*
X176384398Y-104949500D01*
X176384397Y-104949500D01*
X176115603Y-104949500D01*
X176115602Y-104949500D01*
X175849119Y-104984582D01*
X175849112Y-104984583D01*
X175849109Y-104984584D01*
X175830953Y-104989449D01*
X175589475Y-105054152D01*
X175341149Y-105157011D01*
X175341133Y-105157019D01*
X175108354Y-105291416D01*
X174895111Y-105455042D01*
X174895104Y-105455048D01*
X174705048Y-105645104D01*
X174705042Y-105645111D01*
X174541416Y-105858354D01*
X174407019Y-106091133D01*
X174407011Y-106091149D01*
X174304152Y-106339475D01*
X174234585Y-106599106D01*
X174234582Y-106599119D01*
X174199500Y-106865602D01*
X174199500Y-106953575D01*
X174179815Y-107020614D01*
X174127011Y-107066369D01*
X174057853Y-107076313D01*
X173994297Y-107047288D01*
X173965015Y-107009870D01*
X173936331Y-106953575D01*
X173905051Y-106892184D01*
X173844506Y-106808850D01*
X173780109Y-106720213D01*
X173629786Y-106569890D01*
X173457820Y-106444951D01*
X173457115Y-106444591D01*
X173449054Y-106440485D01*
X173398259Y-106392512D01*
X173381463Y-106324692D01*
X173403999Y-106258556D01*
X173449054Y-106219515D01*
X173457816Y-106215051D01*
X173479789Y-106199086D01*
X173629786Y-106090109D01*
X173629788Y-106090106D01*
X173629792Y-106090104D01*
X173780104Y-105939792D01*
X173780106Y-105939788D01*
X173780109Y-105939786D01*
X173905048Y-105767820D01*
X173905047Y-105767820D01*
X173905051Y-105767816D01*
X174001557Y-105578412D01*
X174067246Y-105376243D01*
X174100500Y-105166287D01*
X174100500Y-104953713D01*
X174067246Y-104743757D01*
X174001557Y-104541588D01*
X173905051Y-104352184D01*
X173905049Y-104352181D01*
X173905048Y-104352179D01*
X173780109Y-104180213D01*
X173629786Y-104029890D01*
X173457820Y-103904951D01*
X173457115Y-103904591D01*
X173449054Y-103900485D01*
X173398259Y-103852512D01*
X173381463Y-103784692D01*
X173403999Y-103718556D01*
X173449054Y-103679515D01*
X173457816Y-103675051D01*
X173530042Y-103622576D01*
X173629786Y-103550109D01*
X173629788Y-103550106D01*
X173629792Y-103550104D01*
X173780104Y-103399792D01*
X173780106Y-103399788D01*
X173780109Y-103399786D01*
X173905048Y-103227820D01*
X173905047Y-103227820D01*
X173905051Y-103227816D01*
X174001557Y-103038412D01*
X174067246Y-102836243D01*
X174100500Y-102626287D01*
X174100500Y-102413713D01*
X174067246Y-102203757D01*
X174001557Y-102001588D01*
X173905051Y-101812184D01*
X173905049Y-101812181D01*
X173905048Y-101812179D01*
X173780109Y-101640213D01*
X173629786Y-101489890D01*
X173457820Y-101364951D01*
X173457115Y-101364591D01*
X173449054Y-101360485D01*
X173398259Y-101312512D01*
X173381463Y-101244692D01*
X173403999Y-101178556D01*
X173449054Y-101139515D01*
X173457816Y-101135051D01*
X173479789Y-101119086D01*
X173629786Y-101010109D01*
X173629788Y-101010106D01*
X173629792Y-101010104D01*
X173780104Y-100859792D01*
X173780106Y-100859788D01*
X173780109Y-100859786D01*
X173905048Y-100687820D01*
X173905047Y-100687820D01*
X173905051Y-100687816D01*
X174001557Y-100498412D01*
X174067246Y-100296243D01*
X174100500Y-100086287D01*
X174100500Y-99873713D01*
X174067246Y-99663757D01*
X174001557Y-99461588D01*
X173905051Y-99272184D01*
X173905049Y-99272181D01*
X173905048Y-99272179D01*
X173780109Y-99100213D01*
X173629786Y-98949890D01*
X173457820Y-98824951D01*
X173457115Y-98824591D01*
X173449054Y-98820485D01*
X173398259Y-98772512D01*
X173381463Y-98704692D01*
X173403999Y-98638556D01*
X173449054Y-98599515D01*
X173457816Y-98595051D01*
X173554922Y-98524500D01*
X173629786Y-98470109D01*
X173629788Y-98470106D01*
X173629792Y-98470104D01*
X173780104Y-98319792D01*
X173780106Y-98319788D01*
X173780109Y-98319786D01*
X173905048Y-98147820D01*
X173905047Y-98147820D01*
X173905051Y-98147816D01*
X174001557Y-97958412D01*
X174067246Y-97756243D01*
X174100500Y-97546287D01*
X174100500Y-97333713D01*
X174067246Y-97123757D01*
X174001557Y-96921588D01*
X173905051Y-96732184D01*
X173905049Y-96732181D01*
X173905048Y-96732179D01*
X173780109Y-96560213D01*
X173629786Y-96409890D01*
X173457820Y-96284951D01*
X173457115Y-96284591D01*
X173449054Y-96280485D01*
X173398259Y-96232512D01*
X173381463Y-96164692D01*
X173403999Y-96098556D01*
X173449054Y-96059515D01*
X173457816Y-96055051D01*
X173479789Y-96039086D01*
X173629786Y-95930109D01*
X173629788Y-95930106D01*
X173629792Y-95930104D01*
X173780104Y-95779792D01*
X173780106Y-95779788D01*
X173780109Y-95779786D01*
X173905048Y-95607820D01*
X173905047Y-95607820D01*
X173905051Y-95607816D01*
X174001557Y-95418412D01*
X174067246Y-95216243D01*
X174100500Y-95006287D01*
X174100500Y-94793713D01*
X174067246Y-94583757D01*
X174001557Y-94381588D01*
X173905051Y-94192184D01*
X173905049Y-94192181D01*
X173905048Y-94192179D01*
X173780109Y-94020213D01*
X173629786Y-93869890D01*
X173457820Y-93744951D01*
X173457115Y-93744591D01*
X173449054Y-93740485D01*
X173398259Y-93692512D01*
X173381463Y-93624692D01*
X173403999Y-93558556D01*
X173449054Y-93519515D01*
X173457816Y-93515051D01*
X173479789Y-93499086D01*
X173629786Y-93390109D01*
X173629788Y-93390106D01*
X173629792Y-93390104D01*
X173780104Y-93239792D01*
X173780106Y-93239788D01*
X173780109Y-93239786D01*
X173905048Y-93067820D01*
X173905047Y-93067820D01*
X173905051Y-93067816D01*
X174001557Y-92878412D01*
X174067246Y-92676243D01*
X174100500Y-92466287D01*
X174100500Y-92253713D01*
X174067246Y-92043757D01*
X174001557Y-91841588D01*
X173905051Y-91652184D01*
X173905049Y-91652181D01*
X173905048Y-91652179D01*
X173780109Y-91480213D01*
X173629786Y-91329890D01*
X173457820Y-91204951D01*
X173457115Y-91204591D01*
X173449054Y-91200485D01*
X173398259Y-91152512D01*
X173381463Y-91084692D01*
X173403999Y-91018556D01*
X173449054Y-90979515D01*
X173457816Y-90975051D01*
X173564313Y-90897677D01*
X173629786Y-90850109D01*
X173629788Y-90850106D01*
X173629792Y-90850104D01*
X173780104Y-90699792D01*
X173780106Y-90699788D01*
X173780109Y-90699786D01*
X173905048Y-90527820D01*
X173905047Y-90527820D01*
X173905051Y-90527816D01*
X174001557Y-90338412D01*
X174067246Y-90136243D01*
X174100500Y-89926287D01*
X174100500Y-89713713D01*
X174067246Y-89503757D01*
X174001557Y-89301588D01*
X173905051Y-89112184D01*
X173905049Y-89112181D01*
X173905048Y-89112179D01*
X173780109Y-88940213D01*
X173629786Y-88789890D01*
X173457820Y-88664951D01*
X173457115Y-88664591D01*
X173449054Y-88660485D01*
X173398259Y-88612512D01*
X173381463Y-88544692D01*
X173403999Y-88478556D01*
X173449054Y-88439515D01*
X173457816Y-88435051D01*
X173495364Y-88407771D01*
X173629786Y-88310109D01*
X173629788Y-88310106D01*
X173629792Y-88310104D01*
X173780104Y-88159792D01*
X173780106Y-88159788D01*
X173780109Y-88159786D01*
X173892357Y-88005288D01*
X173905051Y-87987816D01*
X174001557Y-87798412D01*
X174067246Y-87596243D01*
X174100500Y-87386287D01*
X174100500Y-87173713D01*
X174067246Y-86963757D01*
X174001557Y-86761588D01*
X173905051Y-86572184D01*
X173905049Y-86572181D01*
X173905048Y-86572179D01*
X173780109Y-86400213D01*
X173629786Y-86249890D01*
X173457817Y-86124949D01*
X173448504Y-86120204D01*
X173397707Y-86072230D01*
X173380912Y-86004409D01*
X173403449Y-85938274D01*
X173448507Y-85899232D01*
X173457555Y-85894622D01*
X173511716Y-85855270D01*
X173511717Y-85855270D01*
X172879408Y-85222962D01*
X172942993Y-85205925D01*
X173057007Y-85140099D01*
X173150099Y-85047007D01*
X173215925Y-84932993D01*
X173232962Y-84869408D01*
X173865270Y-85501717D01*
X173865270Y-85501716D01*
X173904622Y-85447554D01*
X174001095Y-85258217D01*
X174066757Y-85056130D01*
X174066757Y-85056127D01*
X174100000Y-84846246D01*
X174100000Y-84633753D01*
X174066757Y-84423872D01*
X174066757Y-84423869D01*
X174001095Y-84221782D01*
X173904624Y-84032449D01*
X173865270Y-83978282D01*
X173865269Y-83978282D01*
X173232962Y-84610590D01*
X173215925Y-84547007D01*
X173150099Y-84432993D01*
X173057007Y-84339901D01*
X172942993Y-84274075D01*
X172879409Y-84257037D01*
X173511716Y-83624728D01*
X173457550Y-83585375D01*
X173268217Y-83488904D01*
X173066129Y-83423242D01*
X172856246Y-83390000D01*
X172643754Y-83390000D01*
X172433872Y-83423242D01*
X172433869Y-83423242D01*
X172231782Y-83488904D01*
X172042439Y-83585380D01*
X171988282Y-83624727D01*
X171988282Y-83624728D01*
X172620591Y-84257037D01*
X172557007Y-84274075D01*
X172442993Y-84339901D01*
X172349901Y-84432993D01*
X172284075Y-84547007D01*
X172267037Y-84610591D01*
X171634728Y-83978282D01*
X171634727Y-83978282D01*
X171595380Y-84032439D01*
X171498904Y-84221782D01*
X171433242Y-84423869D01*
X171433242Y-84423872D01*
X171400000Y-84633753D01*
X171400000Y-84846246D01*
X171433242Y-85056127D01*
X171433242Y-85056130D01*
X171498904Y-85258217D01*
X171595375Y-85447550D01*
X171634728Y-85501716D01*
X172267037Y-84869408D01*
X172284075Y-84932993D01*
X172349901Y-85047007D01*
X172442993Y-85140099D01*
X172557007Y-85205925D01*
X172620590Y-85222962D01*
X171988282Y-85855269D01*
X171988282Y-85855270D01*
X172042452Y-85894626D01*
X172042451Y-85894626D01*
X172051495Y-85899234D01*
X172102292Y-85947208D01*
X172119087Y-86015029D01*
X172096550Y-86081164D01*
X172051499Y-86120202D01*
X172042182Y-86124949D01*
X171870213Y-86249890D01*
X171719890Y-86400213D01*
X171594951Y-86572179D01*
X171498444Y-86761585D01*
X171432753Y-86963760D01*
X171417708Y-87058751D01*
X171399500Y-87173713D01*
X171399500Y-87386287D01*
X171405835Y-87426286D01*
X171425135Y-87548143D01*
X171432754Y-87596243D01*
X171461623Y-87685093D01*
X171498444Y-87798414D01*
X171594951Y-87987820D01*
X171719890Y-88159786D01*
X171870213Y-88310109D01*
X172042182Y-88435050D01*
X172050946Y-88439516D01*
X172101742Y-88487491D01*
X172118536Y-88555312D01*
X172095998Y-88621447D01*
X172050946Y-88660484D01*
X172042182Y-88664949D01*
X171870213Y-88789890D01*
X171719890Y-88940213D01*
X171594951Y-89112179D01*
X171498444Y-89301585D01*
X171432753Y-89503760D01*
X171420827Y-89579060D01*
X171399500Y-89713713D01*
X171399500Y-89926287D01*
X171432754Y-90136243D01*
X171489233Y-90310068D01*
X171498444Y-90338414D01*
X171594951Y-90527820D01*
X171719890Y-90699786D01*
X171870213Y-90850109D01*
X172042182Y-90975050D01*
X172050946Y-90979516D01*
X172101742Y-91027491D01*
X172118536Y-91095312D01*
X172095998Y-91161447D01*
X172050946Y-91200484D01*
X172042182Y-91204949D01*
X171870213Y-91329890D01*
X171719890Y-91480213D01*
X171594951Y-91652179D01*
X171498444Y-91841585D01*
X171432753Y-92043760D01*
X171415486Y-92152781D01*
X171399500Y-92253713D01*
X171399500Y-92466287D01*
X171432754Y-92676243D01*
X171478150Y-92815958D01*
X171498444Y-92878414D01*
X171594951Y-93067820D01*
X171719890Y-93239786D01*
X171870213Y-93390109D01*
X172042182Y-93515050D01*
X172050946Y-93519516D01*
X172101742Y-93567491D01*
X172118536Y-93635312D01*
X172095998Y-93701447D01*
X172050946Y-93740484D01*
X172042182Y-93744949D01*
X171870213Y-93869890D01*
X171719890Y-94020213D01*
X171594951Y-94192179D01*
X171498444Y-94381585D01*
X171432753Y-94583760D01*
X171399500Y-94793713D01*
X171399500Y-95006286D01*
X171432753Y-95216239D01*
X171498444Y-95418414D01*
X171594951Y-95607820D01*
X171719890Y-95779786D01*
X171870213Y-95930109D01*
X172042182Y-96055050D01*
X172050946Y-96059516D01*
X172101742Y-96107491D01*
X172118536Y-96175312D01*
X172095998Y-96241447D01*
X172050946Y-96280484D01*
X172042182Y-96284949D01*
X171870213Y-96409890D01*
X171719890Y-96560213D01*
X171594951Y-96732179D01*
X171498444Y-96921585D01*
X171432753Y-97123760D01*
X171399500Y-97333713D01*
X171399500Y-97546287D01*
X171432754Y-97756243D01*
X171457855Y-97833497D01*
X171498444Y-97958414D01*
X171594951Y-98147820D01*
X171719890Y-98319786D01*
X171870213Y-98470109D01*
X172042182Y-98595050D01*
X172050946Y-98599516D01*
X172101742Y-98647491D01*
X172118536Y-98715312D01*
X172095998Y-98781447D01*
X172050946Y-98820484D01*
X172042182Y-98824949D01*
X171870213Y-98949890D01*
X171719890Y-99100213D01*
X171594951Y-99272179D01*
X171498444Y-99461585D01*
X171432753Y-99663760D01*
X171399500Y-99873713D01*
X171399500Y-100086287D01*
X171432754Y-100296243D01*
X171496095Y-100491187D01*
X171498444Y-100498414D01*
X171594951Y-100687820D01*
X171719890Y-100859786D01*
X171870213Y-101010109D01*
X172042182Y-101135050D01*
X172050946Y-101139516D01*
X172101742Y-101187491D01*
X172118536Y-101255312D01*
X172095998Y-101321447D01*
X172050946Y-101360484D01*
X172042182Y-101364949D01*
X171870213Y-101489890D01*
X171719890Y-101640213D01*
X171594951Y-101812179D01*
X171498444Y-102001585D01*
X171432753Y-102203760D01*
X171399500Y-102413713D01*
X171399500Y-102626287D01*
X171432754Y-102836243D01*
X171496095Y-103031187D01*
X171498444Y-103038414D01*
X171594951Y-103227820D01*
X171719890Y-103399786D01*
X171870213Y-103550109D01*
X172042182Y-103675050D01*
X172050946Y-103679516D01*
X172101742Y-103727491D01*
X172118536Y-103795312D01*
X172095998Y-103861447D01*
X172050946Y-103900484D01*
X172042182Y-103904949D01*
X171870213Y-104029890D01*
X171719890Y-104180213D01*
X171594951Y-104352179D01*
X171498444Y-104541585D01*
X171432753Y-104743760D01*
X171399500Y-104953713D01*
X171399500Y-105166286D01*
X171419318Y-105291416D01*
X171432754Y-105376243D01*
X171496095Y-105571187D01*
X171498444Y-105578414D01*
X171594951Y-105767820D01*
X171719890Y-105939786D01*
X171870213Y-106090109D01*
X172042182Y-106215050D01*
X172050946Y-106219516D01*
X172101742Y-106267491D01*
X172118536Y-106335312D01*
X172095998Y-106401447D01*
X172050946Y-106440484D01*
X172042182Y-106444949D01*
X171870213Y-106569890D01*
X171719890Y-106720213D01*
X171594951Y-106892179D01*
X171498444Y-107081585D01*
X171432753Y-107283760D01*
X171399500Y-107493713D01*
X171399500Y-107706287D01*
X171409534Y-107769644D01*
X171432753Y-107916239D01*
X171432753Y-107916241D01*
X171432754Y-107916243D01*
X171496095Y-108111187D01*
X171498444Y-108118414D01*
X171594951Y-108307820D01*
X171719890Y-108479786D01*
X171870213Y-108630109D01*
X172042182Y-108755050D01*
X172050946Y-108759516D01*
X172101742Y-108807491D01*
X172118536Y-108875312D01*
X172095998Y-108941447D01*
X172050946Y-108980484D01*
X172042182Y-108984949D01*
X171870213Y-109109890D01*
X171719890Y-109260213D01*
X171594951Y-109432179D01*
X171498444Y-109621585D01*
X171432753Y-109823760D01*
X171399500Y-110033713D01*
X171399500Y-110246286D01*
X171418632Y-110367084D01*
X171432754Y-110456243D01*
X171496095Y-110651187D01*
X171498444Y-110658414D01*
X171594951Y-110847820D01*
X171719890Y-111019786D01*
X171870213Y-111170109D01*
X172042182Y-111295050D01*
X172050946Y-111299516D01*
X172101742Y-111347491D01*
X172118536Y-111415312D01*
X172095998Y-111481447D01*
X172050946Y-111520484D01*
X172042182Y-111524949D01*
X171870213Y-111649890D01*
X171719890Y-111800213D01*
X171594951Y-111972179D01*
X171498444Y-112161585D01*
X171432753Y-112363760D01*
X171426418Y-112403760D01*
X171399500Y-112573713D01*
X171399500Y-112786287D01*
X171432754Y-112996243D01*
X171496095Y-113191187D01*
X171498444Y-113198414D01*
X171594951Y-113387820D01*
X171719890Y-113559786D01*
X171870213Y-113710109D01*
X172042182Y-113835050D01*
X172050946Y-113839516D01*
X172101742Y-113887491D01*
X172118536Y-113955312D01*
X172095998Y-114021447D01*
X172050946Y-114060484D01*
X172042182Y-114064949D01*
X171870213Y-114189890D01*
X171719890Y-114340213D01*
X171594951Y-114512179D01*
X171498444Y-114701585D01*
X171432753Y-114903760D01*
X171399500Y-115113713D01*
X171399500Y-115326287D01*
X171409534Y-115389644D01*
X171429628Y-115516510D01*
X171432754Y-115536243D01*
X171496095Y-115731187D01*
X171498444Y-115738414D01*
X171594951Y-115927820D01*
X171719890Y-116099786D01*
X171870213Y-116250109D01*
X172042182Y-116375050D01*
X172050946Y-116379516D01*
X172101742Y-116427491D01*
X172118536Y-116495312D01*
X172095998Y-116561447D01*
X172050946Y-116600484D01*
X172042182Y-116604949D01*
X171870213Y-116729890D01*
X171719890Y-116880213D01*
X171594951Y-117052179D01*
X171498444Y-117241585D01*
X171432753Y-117443760D01*
X171426418Y-117483760D01*
X171399500Y-117653713D01*
X171399500Y-117866287D01*
X171432754Y-118076243D01*
X171496095Y-118271187D01*
X171498444Y-118278414D01*
X171594951Y-118467820D01*
X171719890Y-118639786D01*
X171870213Y-118790109D01*
X172042182Y-118915050D01*
X172050946Y-118919516D01*
X172101742Y-118967491D01*
X172118536Y-119035312D01*
X172095998Y-119101447D01*
X172050946Y-119140484D01*
X172042182Y-119144949D01*
X171870213Y-119269890D01*
X171719890Y-119420213D01*
X171594951Y-119592179D01*
X171498444Y-119781585D01*
X171432753Y-119983760D01*
X171426418Y-120023760D01*
X171399500Y-120193713D01*
X171399500Y-120406287D01*
X171432754Y-120616243D01*
X171496095Y-120811187D01*
X171498444Y-120818414D01*
X171594951Y-121007820D01*
X171719890Y-121179786D01*
X171870213Y-121330109D01*
X172042182Y-121455050D01*
X172050946Y-121459516D01*
X172101742Y-121507491D01*
X172118536Y-121575312D01*
X172095998Y-121641447D01*
X172050946Y-121680484D01*
X172042182Y-121684949D01*
X171870213Y-121809890D01*
X171719890Y-121960213D01*
X171594951Y-122132179D01*
X171498444Y-122321585D01*
X171432753Y-122523760D01*
X171426418Y-122563760D01*
X171399500Y-122733713D01*
X171399500Y-122946287D01*
X171432754Y-123156243D01*
X171496095Y-123351187D01*
X171498444Y-123358414D01*
X171594951Y-123547820D01*
X171719890Y-123719786D01*
X171870213Y-123870109D01*
X172042182Y-123995050D01*
X172050946Y-123999516D01*
X172101742Y-124047491D01*
X172118536Y-124115312D01*
X172095998Y-124181447D01*
X172050946Y-124220484D01*
X172042182Y-124224949D01*
X171870213Y-124349890D01*
X171719890Y-124500213D01*
X171594951Y-124672179D01*
X171498444Y-124861585D01*
X171432753Y-125063760D01*
X171426418Y-125103760D01*
X171399500Y-125273713D01*
X171399500Y-125486287D01*
X171432754Y-125696243D01*
X171496095Y-125891187D01*
X171498444Y-125898414D01*
X171594951Y-126087820D01*
X171719890Y-126259786D01*
X171870213Y-126410109D01*
X172042182Y-126535050D01*
X172050946Y-126539516D01*
X172101742Y-126587491D01*
X172118536Y-126655312D01*
X172095998Y-126721447D01*
X172050946Y-126760484D01*
X172042182Y-126764949D01*
X171870213Y-126889890D01*
X171719890Y-127040213D01*
X171594951Y-127212179D01*
X171498444Y-127401585D01*
X171432753Y-127603760D01*
X171399500Y-127813713D01*
X171399500Y-127960903D01*
X171379815Y-128027942D01*
X171327011Y-128073697D01*
X171257853Y-128083641D01*
X171194297Y-128054616D01*
X171187819Y-128048584D01*
X169886819Y-126747584D01*
X169853334Y-126686261D01*
X169850500Y-126659903D01*
X169850500Y-119579765D01*
X169870185Y-119512726D01*
X169871398Y-119510874D01*
X169959390Y-119379185D01*
X169959390Y-119379184D01*
X169959394Y-119379179D01*
X170019737Y-119233497D01*
X170050500Y-119078842D01*
X170050500Y-118921158D01*
X170050500Y-118921155D01*
X170050499Y-118921153D01*
X170032388Y-118830104D01*
X170019737Y-118766503D01*
X170019735Y-118766498D01*
X169959397Y-118620827D01*
X169959390Y-118620814D01*
X169871789Y-118489711D01*
X169871786Y-118489707D01*
X169760292Y-118378213D01*
X169760288Y-118378210D01*
X169629185Y-118290609D01*
X169629172Y-118290602D01*
X169483501Y-118230264D01*
X169483489Y-118230261D01*
X169328845Y-118199500D01*
X169328842Y-118199500D01*
X169171158Y-118199500D01*
X169171155Y-118199500D01*
X169016510Y-118230261D01*
X169016498Y-118230264D01*
X168870827Y-118290602D01*
X168870814Y-118290609D01*
X168739711Y-118378210D01*
X168739707Y-118378213D01*
X168628213Y-118489707D01*
X168628210Y-118489711D01*
X168540609Y-118620814D01*
X168540602Y-118620827D01*
X168480264Y-118766498D01*
X168480261Y-118766510D01*
X168449500Y-118921153D01*
X168449500Y-119078846D01*
X168480261Y-119233489D01*
X168480264Y-119233501D01*
X168540602Y-119379172D01*
X168540609Y-119379185D01*
X168628602Y-119510874D01*
X168649480Y-119577551D01*
X168649500Y-119579765D01*
X168649500Y-126873330D01*
X168649499Y-126873348D01*
X168649499Y-127039054D01*
X168649498Y-127039054D01*
X168690423Y-127191785D01*
X168719358Y-127241900D01*
X168719359Y-127241904D01*
X168719360Y-127241904D01*
X168769479Y-127328714D01*
X168769481Y-127328717D01*
X168888349Y-127447585D01*
X168888355Y-127447590D01*
X171416241Y-129975476D01*
X171449726Y-130036799D01*
X171446492Y-130101473D01*
X171432753Y-130143757D01*
X171399500Y-130353713D01*
X171399500Y-130500903D01*
X171379815Y-130567942D01*
X171327011Y-130613697D01*
X171257853Y-130623641D01*
X171194297Y-130594616D01*
X171187819Y-130588584D01*
X168136819Y-127537584D01*
X168103334Y-127476261D01*
X168100500Y-127449903D01*
X168100500Y-118550097D01*
X168120185Y-118483058D01*
X168136819Y-118462416D01*
X168945522Y-117653713D01*
X170014662Y-116584572D01*
X170075983Y-116551089D01*
X170078150Y-116550638D01*
X170136085Y-116539113D01*
X170233497Y-116519737D01*
X170379179Y-116459394D01*
X170510289Y-116371789D01*
X170621789Y-116260289D01*
X170709394Y-116129179D01*
X170769737Y-115983497D01*
X170800500Y-115828842D01*
X170800500Y-115671158D01*
X170800500Y-115671155D01*
X170800499Y-115671153D01*
X170781619Y-115576239D01*
X170769737Y-115516503D01*
X170769735Y-115516498D01*
X170709397Y-115370827D01*
X170709390Y-115370814D01*
X170621789Y-115239711D01*
X170621786Y-115239707D01*
X170510292Y-115128213D01*
X170510288Y-115128210D01*
X170379185Y-115040609D01*
X170379172Y-115040602D01*
X170233501Y-114980264D01*
X170233489Y-114980261D01*
X170078845Y-114949500D01*
X170078842Y-114949500D01*
X169921158Y-114949500D01*
X169921155Y-114949500D01*
X169766510Y-114980261D01*
X169766498Y-114980264D01*
X169620827Y-115040602D01*
X169620814Y-115040609D01*
X169489711Y-115128210D01*
X169489707Y-115128213D01*
X169378213Y-115239707D01*
X169378210Y-115239711D01*
X169290609Y-115370814D01*
X169290602Y-115370827D01*
X169230264Y-115516498D01*
X169230261Y-115516508D01*
X169199361Y-115671850D01*
X169166976Y-115733761D01*
X169165425Y-115735339D01*
X167019482Y-117881281D01*
X167019480Y-117881283D01*
X167011146Y-117895718D01*
X167005045Y-117906287D01*
X166940423Y-118018215D01*
X166899499Y-118170943D01*
X166899499Y-118170945D01*
X166899499Y-118339046D01*
X166899500Y-118339059D01*
X166899500Y-127663330D01*
X166899499Y-127663348D01*
X166899499Y-127829054D01*
X166899498Y-127829054D01*
X166940423Y-127981786D01*
X166940424Y-127981787D01*
X166961644Y-128018541D01*
X166999229Y-128083641D01*
X167019481Y-128118717D01*
X167138349Y-128237585D01*
X167138355Y-128237590D01*
X171363181Y-132462416D01*
X171396666Y-132523739D01*
X171399500Y-132550097D01*
X171399500Y-133897870D01*
X171399501Y-133897876D01*
X171405908Y-133957483D01*
X171452413Y-134082167D01*
X171457397Y-134151859D01*
X171423912Y-134213182D01*
X171362589Y-134246666D01*
X171336231Y-134249500D01*
X159178688Y-134249500D01*
X159111649Y-134229815D01*
X159065894Y-134177011D01*
X159055950Y-134107853D01*
X159062506Y-134082167D01*
X159094091Y-133997482D01*
X159100500Y-133937873D01*
X159100499Y-132142128D01*
X159094091Y-132082517D01*
X159052521Y-131971063D01*
X159043797Y-131947671D01*
X159043793Y-131947664D01*
X158957547Y-131832455D01*
X158957544Y-131832452D01*
X158842335Y-131746206D01*
X158842328Y-131746202D01*
X158710917Y-131697189D01*
X158654983Y-131655318D01*
X158630566Y-131589853D01*
X158645418Y-131521580D01*
X158666563Y-131493332D01*
X158780104Y-131379792D01*
X158809166Y-131339792D01*
X158905048Y-131207820D01*
X158905047Y-131207820D01*
X158905051Y-131207816D01*
X159001557Y-131018412D01*
X159067246Y-130816243D01*
X159100500Y-130606287D01*
X159100500Y-130393713D01*
X159096048Y-130365602D01*
X163199500Y-130365602D01*
X163199500Y-130634397D01*
X163234582Y-130900880D01*
X163234583Y-130900885D01*
X163234584Y-130900891D01*
X163250398Y-130959908D01*
X163304152Y-131160524D01*
X163407011Y-131408850D01*
X163407019Y-131408866D01*
X163477017Y-131530104D01*
X163541413Y-131641641D01*
X163541415Y-131641644D01*
X163541416Y-131641645D01*
X163705042Y-131854888D01*
X163705048Y-131854895D01*
X163895104Y-132044951D01*
X163895111Y-132044957D01*
X163969618Y-132102128D01*
X164108359Y-132208587D01*
X164257968Y-132294964D01*
X164341133Y-132342980D01*
X164341149Y-132342988D01*
X164496008Y-132407132D01*
X164589474Y-132445847D01*
X164849109Y-132515416D01*
X165037319Y-132540193D01*
X165115602Y-132550500D01*
X165115603Y-132550500D01*
X165384398Y-132550500D01*
X165444905Y-132542534D01*
X165650891Y-132515416D01*
X165910526Y-132445847D01*
X166097457Y-132368417D01*
X166158850Y-132342988D01*
X166158853Y-132342986D01*
X166158859Y-132342984D01*
X166391641Y-132208587D01*
X166604890Y-132044956D01*
X166794956Y-131854890D01*
X166958587Y-131641641D01*
X167092984Y-131408859D01*
X167105027Y-131379786D01*
X167118417Y-131347457D01*
X167195847Y-131160526D01*
X167265416Y-130900891D01*
X167300500Y-130634397D01*
X167300500Y-130365603D01*
X167265416Y-130099109D01*
X167195847Y-129839474D01*
X167157132Y-129746008D01*
X167092988Y-129591149D01*
X167092980Y-129591133D01*
X167022983Y-129469896D01*
X166958587Y-129358359D01*
X166823841Y-129182754D01*
X166794957Y-129145111D01*
X166794951Y-129145104D01*
X166604895Y-128955048D01*
X166604888Y-128955042D01*
X166391645Y-128791416D01*
X166391644Y-128791415D01*
X166391641Y-128791413D01*
X166298832Y-128737830D01*
X166158866Y-128657019D01*
X166158850Y-128657011D01*
X165910524Y-128554152D01*
X165780708Y-128519368D01*
X165650891Y-128484584D01*
X165650885Y-128484583D01*
X165650880Y-128484582D01*
X165384398Y-128449500D01*
X165384397Y-128449500D01*
X165115603Y-128449500D01*
X165115602Y-128449500D01*
X164849119Y-128484582D01*
X164849112Y-128484583D01*
X164849109Y-128484584D01*
X164804224Y-128496611D01*
X164589475Y-128554152D01*
X164341149Y-128657011D01*
X164341133Y-128657019D01*
X164108354Y-128791416D01*
X163895111Y-128955042D01*
X163895104Y-128955048D01*
X163705048Y-129145104D01*
X163705042Y-129145111D01*
X163541416Y-129358354D01*
X163407019Y-129591133D01*
X163407011Y-129591149D01*
X163304152Y-129839475D01*
X163264138Y-129988812D01*
X163241567Y-130073050D01*
X163234585Y-130099106D01*
X163234582Y-130099119D01*
X163199500Y-130365602D01*
X159096048Y-130365602D01*
X159067246Y-130183757D01*
X159001557Y-129981588D01*
X158905051Y-129792184D01*
X158905049Y-129792181D01*
X158905048Y-129792179D01*
X158780109Y-129620213D01*
X158629786Y-129469890D01*
X158457817Y-129344949D01*
X158448504Y-129340204D01*
X158397707Y-129292230D01*
X158380912Y-129224409D01*
X158403449Y-129158274D01*
X158448507Y-129119232D01*
X158457555Y-129114622D01*
X158511716Y-129075270D01*
X158511717Y-129075270D01*
X157879408Y-128442962D01*
X157942993Y-128425925D01*
X158057007Y-128360099D01*
X158150099Y-128267007D01*
X158215925Y-128152993D01*
X158232962Y-128089409D01*
X158865270Y-128721717D01*
X158865270Y-128721716D01*
X158904622Y-128667554D01*
X159001095Y-128478217D01*
X159066757Y-128276130D01*
X159066757Y-128276127D01*
X159100000Y-128066246D01*
X159100000Y-127853753D01*
X159066757Y-127643872D01*
X159066757Y-127643869D01*
X159001095Y-127441782D01*
X158904624Y-127252449D01*
X158865270Y-127198282D01*
X158865269Y-127198282D01*
X158232962Y-127830590D01*
X158215925Y-127767007D01*
X158150099Y-127652993D01*
X158057007Y-127559901D01*
X157942993Y-127494075D01*
X157879409Y-127477037D01*
X158511716Y-126844728D01*
X158457547Y-126805373D01*
X158457547Y-126805372D01*
X158448500Y-126800763D01*
X158397706Y-126752788D01*
X158380912Y-126684966D01*
X158403451Y-126618832D01*
X158448508Y-126579793D01*
X158457816Y-126575051D01*
X158537007Y-126517515D01*
X158629786Y-126450109D01*
X158629788Y-126450106D01*
X158629792Y-126450104D01*
X158780104Y-126299792D01*
X158780106Y-126299788D01*
X158780109Y-126299786D01*
X158905048Y-126127820D01*
X158905047Y-126127820D01*
X158905051Y-126127816D01*
X159001557Y-125938412D01*
X159067246Y-125736243D01*
X159100500Y-125526287D01*
X159100500Y-125313713D01*
X159067246Y-125103757D01*
X159001557Y-124901588D01*
X158905051Y-124712184D01*
X158905049Y-124712181D01*
X158905048Y-124712179D01*
X158780109Y-124540213D01*
X158629786Y-124389890D01*
X158457820Y-124264951D01*
X158457115Y-124264591D01*
X158449054Y-124260485D01*
X158398259Y-124212512D01*
X158381463Y-124144692D01*
X158403999Y-124078556D01*
X158449054Y-124039515D01*
X158457816Y-124035051D01*
X158512876Y-123995048D01*
X158629786Y-123910109D01*
X158629788Y-123910106D01*
X158629792Y-123910104D01*
X158780104Y-123759792D01*
X158780106Y-123759788D01*
X158780109Y-123759786D01*
X158905048Y-123587820D01*
X158905047Y-123587820D01*
X158905051Y-123587816D01*
X159001557Y-123398412D01*
X159067246Y-123196243D01*
X159100500Y-122986287D01*
X159100500Y-122773713D01*
X159067246Y-122563757D01*
X159001557Y-122361588D01*
X158905051Y-122172184D01*
X158905049Y-122172181D01*
X158905048Y-122172179D01*
X158780109Y-122000213D01*
X158629786Y-121849890D01*
X158457820Y-121724951D01*
X158457115Y-121724591D01*
X158449054Y-121720485D01*
X158398259Y-121672512D01*
X158381463Y-121604692D01*
X158403999Y-121538556D01*
X158449054Y-121499515D01*
X158457816Y-121495051D01*
X158512876Y-121455048D01*
X158629786Y-121370109D01*
X158629788Y-121370106D01*
X158629792Y-121370104D01*
X158780104Y-121219792D01*
X158780106Y-121219788D01*
X158780109Y-121219786D01*
X158905048Y-121047820D01*
X158905047Y-121047820D01*
X158905051Y-121047816D01*
X159001557Y-120858412D01*
X159067246Y-120656243D01*
X159100500Y-120446287D01*
X159100500Y-120233713D01*
X159067246Y-120023757D01*
X159001557Y-119821588D01*
X158905051Y-119632184D01*
X158905049Y-119632181D01*
X158905048Y-119632179D01*
X158780109Y-119460213D01*
X158629786Y-119309890D01*
X158457820Y-119184951D01*
X158457115Y-119184591D01*
X158449054Y-119180485D01*
X158398259Y-119132512D01*
X158381463Y-119064692D01*
X158403999Y-118998556D01*
X158449054Y-118959515D01*
X158457816Y-118955051D01*
X158512876Y-118915048D01*
X158629786Y-118830109D01*
X158629788Y-118830106D01*
X158629792Y-118830104D01*
X158780104Y-118679792D01*
X158780106Y-118679788D01*
X158780109Y-118679786D01*
X158905048Y-118507820D01*
X158905047Y-118507820D01*
X158905051Y-118507816D01*
X159001557Y-118318412D01*
X159067246Y-118116243D01*
X159100500Y-117906287D01*
X159100500Y-117693713D01*
X159067246Y-117483757D01*
X159001557Y-117281588D01*
X158905051Y-117092184D01*
X158905049Y-117092181D01*
X158905048Y-117092179D01*
X158780109Y-116920213D01*
X158629786Y-116769890D01*
X158457820Y-116644951D01*
X158457115Y-116644591D01*
X158449054Y-116640485D01*
X158398259Y-116592512D01*
X158381463Y-116524692D01*
X158403999Y-116458556D01*
X158449054Y-116419515D01*
X158457816Y-116415051D01*
X158512876Y-116375048D01*
X158629786Y-116290109D01*
X158629788Y-116290106D01*
X158629792Y-116290104D01*
X158780104Y-116139792D01*
X158780106Y-116139788D01*
X158780109Y-116139786D01*
X158905048Y-115967820D01*
X158905047Y-115967820D01*
X158905051Y-115967816D01*
X159001557Y-115778412D01*
X159067246Y-115576243D01*
X159100500Y-115366287D01*
X159100500Y-115153713D01*
X159067246Y-114943757D01*
X159053506Y-114901473D01*
X159051512Y-114831635D01*
X159083755Y-114775478D01*
X163358506Y-110500728D01*
X163358511Y-110500724D01*
X163368714Y-110490520D01*
X163368716Y-110490520D01*
X163480520Y-110378716D01*
X163538356Y-110278541D01*
X163559577Y-110241785D01*
X163600500Y-110089058D01*
X163600500Y-109930943D01*
X163600500Y-105113449D01*
X163620185Y-105046410D01*
X163672989Y-105000655D01*
X163724500Y-104989449D01*
X163819895Y-104989449D01*
X163819896Y-104989448D01*
X163974548Y-104958686D01*
X164120230Y-104898343D01*
X164251340Y-104810738D01*
X164362840Y-104699238D01*
X164450445Y-104568128D01*
X164510788Y-104422446D01*
X164541551Y-104267791D01*
X164541551Y-104110107D01*
X164541551Y-104110104D01*
X164541550Y-104110102D01*
X164510789Y-103955459D01*
X164510788Y-103955452D01*
X164484718Y-103892512D01*
X164450448Y-103809776D01*
X164450441Y-103809763D01*
X164371398Y-103691467D01*
X164350520Y-103624789D01*
X164350500Y-103622576D01*
X164350500Y-101814500D01*
X164370185Y-101747461D01*
X164422989Y-101701706D01*
X164474500Y-101690500D01*
X164578844Y-101690500D01*
X164578845Y-101690499D01*
X164733497Y-101659737D01*
X164879179Y-101599394D01*
X165010289Y-101511789D01*
X165121789Y-101400289D01*
X165209394Y-101269179D01*
X165269737Y-101123497D01*
X165300500Y-100968842D01*
X165300500Y-100811158D01*
X165300500Y-100811155D01*
X165300499Y-100811153D01*
X165275966Y-100687820D01*
X165269737Y-100656503D01*
X165229030Y-100558226D01*
X165209397Y-100510827D01*
X165209390Y-100510814D01*
X165121398Y-100379125D01*
X165100520Y-100312447D01*
X165100500Y-100310234D01*
X165100500Y-98524500D01*
X165120185Y-98457461D01*
X165172989Y-98411706D01*
X165224500Y-98400500D01*
X165328844Y-98400500D01*
X165328845Y-98400499D01*
X165483497Y-98369737D01*
X165629179Y-98309394D01*
X165760289Y-98221789D01*
X165871789Y-98110289D01*
X165959394Y-97979179D01*
X166019737Y-97833497D01*
X166050500Y-97678842D01*
X166050500Y-97521158D01*
X166050500Y-97521155D01*
X166050499Y-97521153D01*
X166019738Y-97366510D01*
X166019737Y-97366503D01*
X166006155Y-97333713D01*
X165959397Y-97220827D01*
X165959390Y-97220814D01*
X165871398Y-97089125D01*
X165850520Y-97022447D01*
X165850500Y-97020234D01*
X165850500Y-89115782D01*
X165870185Y-89048743D01*
X165886814Y-89028106D01*
X173975340Y-80939579D01*
X173975345Y-80939576D01*
X173985548Y-80929372D01*
X173985550Y-80929372D01*
X174097354Y-80817568D01*
X174169367Y-80692837D01*
X174176411Y-80680637D01*
X174190927Y-80626461D01*
X174192614Y-80621738D01*
X174210315Y-80597388D01*
X174225980Y-80571687D01*
X174230647Y-80569419D01*
X174233698Y-80565223D01*
X174261750Y-80554309D01*
X174288827Y-80541156D01*
X174294686Y-80541496D01*
X174298814Y-80539891D01*
X174311560Y-80542477D01*
X174343986Y-80544362D01*
X174386831Y-80556809D01*
X174386832Y-80556809D01*
X174386832Y-80556808D01*
X174886832Y-80556808D01*
X175026026Y-80516369D01*
X175164117Y-80434703D01*
X175164126Y-80434696D01*
X175277563Y-80321259D01*
X175277570Y-80321250D01*
X175359238Y-80183156D01*
X175359239Y-80183153D01*
X175403998Y-80029093D01*
X175403999Y-80029087D01*
X175406763Y-79993965D01*
X174886832Y-79993965D01*
X174886832Y-80556808D01*
X174386832Y-80556808D01*
X174386832Y-80004399D01*
X174386836Y-80003392D01*
X174386871Y-79999023D01*
X174387334Y-79993146D01*
X174387333Y-79494785D01*
X174387213Y-79493271D01*
X174386832Y-79483547D01*
X174386832Y-78958827D01*
X174305654Y-78932048D01*
X174304308Y-78931119D01*
X174886832Y-78931119D01*
X174886832Y-79493965D01*
X175406763Y-79493965D01*
X175403999Y-79458842D01*
X175403998Y-79458836D01*
X175359239Y-79304776D01*
X175359238Y-79304773D01*
X175277570Y-79166679D01*
X175277563Y-79166670D01*
X175164126Y-79053233D01*
X175164117Y-79053226D01*
X175026023Y-78971558D01*
X175026020Y-78971556D01*
X174886833Y-78931118D01*
X174886832Y-78931119D01*
X174304308Y-78931119D01*
X174278391Y-78913226D01*
X174250556Y-78895225D01*
X174249753Y-78893455D01*
X174248156Y-78892352D01*
X174235395Y-78861777D01*
X174221712Y-78831587D01*
X174221493Y-78828465D01*
X174221246Y-78827873D01*
X174221393Y-78827042D01*
X174220500Y-78814290D01*
X174220500Y-77923119D01*
X174240185Y-77856080D01*
X174275405Y-77822880D01*
X174274426Y-77821588D01*
X174281183Y-77816463D01*
X174281185Y-77816463D01*
X174378909Y-77742353D01*
X174391840Y-77733768D01*
X174397468Y-77730520D01*
X174509272Y-77618716D01*
X174550660Y-77547028D01*
X174601224Y-77498814D01*
X174669831Y-77485590D01*
X174705495Y-77494467D01*
X174766503Y-77519737D01*
X174921153Y-77550499D01*
X174921156Y-77550500D01*
X174921158Y-77550500D01*
X175078844Y-77550500D01*
X175078845Y-77550499D01*
X175233497Y-77519737D01*
X175379179Y-77459394D01*
X175510289Y-77371789D01*
X175621789Y-77260289D01*
X175709394Y-77129179D01*
X175769737Y-76983497D01*
X175800500Y-76828842D01*
X175800500Y-76671158D01*
X175800500Y-76671155D01*
X175800499Y-76671153D01*
X175783228Y-76584326D01*
X175769737Y-76516503D01*
X175769721Y-76516465D01*
X175709397Y-76370827D01*
X175709390Y-76370814D01*
X175621789Y-76239711D01*
X175621786Y-76239707D01*
X175510292Y-76128213D01*
X175510288Y-76128210D01*
X175379185Y-76040609D01*
X175379172Y-76040602D01*
X175233501Y-75980264D01*
X175233491Y-75980261D01*
X175078151Y-75949362D01*
X175061394Y-75940596D01*
X175042916Y-75936577D01*
X175017875Y-75917831D01*
X175016241Y-75916977D01*
X175014664Y-75915428D01*
X175014660Y-75915425D01*
X175002083Y-75902848D01*
X174980521Y-75881285D01*
X174980520Y-75881284D01*
X174937088Y-75837852D01*
X174903603Y-75776529D01*
X174908587Y-75706837D01*
X174937088Y-75662490D01*
X174957931Y-75641647D01*
X174980862Y-75618716D01*
X174980862Y-75618714D01*
X174991068Y-75608509D01*
X174991074Y-75608502D01*
X175014834Y-75584743D01*
X175076157Y-75551259D01*
X175078322Y-75550809D01*
X175153223Y-75535909D01*
X175233668Y-75519908D01*
X175379350Y-75459565D01*
X175510460Y-75371960D01*
X175621960Y-75260460D01*
X175709565Y-75129350D01*
X175769908Y-74983668D01*
X175800671Y-74829013D01*
X175800671Y-74671329D01*
X175800671Y-74671326D01*
X175800670Y-74671324D01*
X175782608Y-74580520D01*
X175769908Y-74516674D01*
X175768177Y-74512494D01*
X175709568Y-74370998D01*
X175709561Y-74370985D01*
X175621960Y-74239882D01*
X175621957Y-74239878D01*
X175510463Y-74128384D01*
X175510459Y-74128381D01*
X175405609Y-74058322D01*
X175360804Y-74004710D01*
X175350500Y-73955220D01*
X175350500Y-69589060D01*
X175350501Y-69589047D01*
X175350501Y-69420944D01*
X175309576Y-69268214D01*
X175309573Y-69268209D01*
X175230524Y-69131290D01*
X175230518Y-69131282D01*
X173486819Y-67387583D01*
X173472115Y-67360655D01*
X173455523Y-67334837D01*
X173454631Y-67328636D01*
X173453334Y-67326260D01*
X173450500Y-67299902D01*
X173450500Y-67146728D01*
X173458318Y-67103394D01*
X173494091Y-67007483D01*
X173500500Y-66947873D01*
X173500499Y-65552128D01*
X173494091Y-65492517D01*
X173443796Y-65357669D01*
X173443795Y-65357668D01*
X173443793Y-65357664D01*
X173357547Y-65242455D01*
X173357544Y-65242452D01*
X173242335Y-65156206D01*
X173242328Y-65156202D01*
X173107486Y-65105910D01*
X173107485Y-65105909D01*
X173107483Y-65105909D01*
X173047873Y-65099500D01*
X173047863Y-65099500D01*
X172652130Y-65099500D01*
X172652119Y-65099501D01*
X172613253Y-65103679D01*
X172586748Y-65103679D01*
X172547874Y-65099500D01*
X172152130Y-65099500D01*
X172152119Y-65099501D01*
X172113253Y-65103679D01*
X172086748Y-65103679D01*
X172047874Y-65099500D01*
X171652130Y-65099500D01*
X171652119Y-65099501D01*
X171613253Y-65103679D01*
X171586748Y-65103679D01*
X171547874Y-65099500D01*
X171152130Y-65099500D01*
X171152119Y-65099501D01*
X171113253Y-65103679D01*
X171086748Y-65103679D01*
X171047874Y-65099500D01*
X170652130Y-65099500D01*
X170652119Y-65099501D01*
X170613253Y-65103679D01*
X170586748Y-65103679D01*
X170547874Y-65099500D01*
X170152130Y-65099500D01*
X170152119Y-65099501D01*
X170113253Y-65103679D01*
X170086748Y-65103679D01*
X170047874Y-65099500D01*
X169652130Y-65099500D01*
X169652119Y-65099501D01*
X169613253Y-65103679D01*
X169586748Y-65103679D01*
X169547874Y-65099500D01*
X169152130Y-65099500D01*
X169152119Y-65099501D01*
X169113253Y-65103679D01*
X169086748Y-65103679D01*
X169047874Y-65099500D01*
X168652130Y-65099500D01*
X168652119Y-65099501D01*
X168613253Y-65103679D01*
X168586748Y-65103679D01*
X168547874Y-65099500D01*
X168152130Y-65099500D01*
X168152119Y-65099501D01*
X168113253Y-65103679D01*
X168086748Y-65103679D01*
X168047874Y-65099500D01*
X167652130Y-65099500D01*
X167652119Y-65099501D01*
X167613253Y-65103679D01*
X167586748Y-65103679D01*
X167547874Y-65099500D01*
X167152130Y-65099500D01*
X167152119Y-65099501D01*
X167113253Y-65103679D01*
X167086748Y-65103679D01*
X167047874Y-65099500D01*
X166652130Y-65099500D01*
X166652119Y-65099501D01*
X166613253Y-65103679D01*
X166586748Y-65103679D01*
X166547874Y-65099500D01*
X166152130Y-65099500D01*
X166152119Y-65099501D01*
X166113253Y-65103679D01*
X166086748Y-65103679D01*
X166047874Y-65099500D01*
X165652130Y-65099500D01*
X165652119Y-65099501D01*
X165613253Y-65103679D01*
X165586748Y-65103679D01*
X165547874Y-65099500D01*
X165152129Y-65099500D01*
X165152123Y-65099501D01*
X165092516Y-65105908D01*
X164957671Y-65156202D01*
X164957664Y-65156206D01*
X164842455Y-65242452D01*
X164842452Y-65242455D01*
X164756206Y-65357664D01*
X164756202Y-65357671D01*
X164705908Y-65492517D01*
X164699501Y-65552116D01*
X164699501Y-65552123D01*
X164699500Y-65552135D01*
X164699500Y-66702844D01*
X164679815Y-66769883D01*
X164663181Y-66790525D01*
X161040526Y-70413181D01*
X160979203Y-70446666D01*
X160952845Y-70449500D01*
X160503486Y-70449500D01*
X160503470Y-70449499D01*
X160495874Y-70449499D01*
X160337759Y-70449499D01*
X160261395Y-70469961D01*
X160185030Y-70490423D01*
X160185025Y-70490426D01*
X160048106Y-70569475D01*
X160048098Y-70569481D01*
X158584481Y-72033098D01*
X158584477Y-72033103D01*
X158561732Y-72072500D01*
X158557152Y-72076866D01*
X158555059Y-72082837D01*
X158532174Y-72100683D01*
X158511165Y-72120716D01*
X158503695Y-72122892D01*
X158499962Y-72125804D01*
X158481867Y-72129253D01*
X158465630Y-72133985D01*
X158459994Y-72134500D01*
X158425772Y-72134500D01*
X158340118Y-72144786D01*
X158337910Y-72145656D01*
X158326285Y-72146719D01*
X158309747Y-72143462D01*
X158298049Y-72143462D01*
X158297776Y-72145734D01*
X158289882Y-72144786D01*
X158204228Y-72134500D01*
X157925772Y-72134500D01*
X157840118Y-72144786D01*
X157840117Y-72144786D01*
X157832224Y-72145734D01*
X157831951Y-72143462D01*
X157798049Y-72143462D01*
X157797776Y-72145734D01*
X157789882Y-72144786D01*
X157704228Y-72134500D01*
X157425772Y-72134500D01*
X157387213Y-72139130D01*
X157340119Y-72144785D01*
X157203815Y-72198536D01*
X157087069Y-72287069D01*
X156998536Y-72403815D01*
X156944785Y-72540119D01*
X156943029Y-72554746D01*
X156934500Y-72625772D01*
X156934500Y-72625778D01*
X156934500Y-72679902D01*
X156914815Y-72746941D01*
X156898181Y-72767583D01*
X156582584Y-73083181D01*
X156559205Y-73095946D01*
X156537823Y-73111835D01*
X156526358Y-73113882D01*
X156521261Y-73116666D01*
X156503309Y-73119215D01*
X156499115Y-73119500D01*
X156440772Y-73119500D01*
X156364736Y-73128630D01*
X156361527Y-73128849D01*
X156330423Y-73121966D01*
X156298996Y-73116698D01*
X156295559Y-73114252D01*
X156293308Y-73113754D01*
X156289569Y-73109988D01*
X156265440Y-73092815D01*
X156241430Y-73068805D01*
X156241422Y-73068799D01*
X156142970Y-73010575D01*
X156102133Y-72986424D01*
X156102132Y-72986423D01*
X156102131Y-72986423D01*
X156102128Y-72986422D01*
X155946735Y-72941275D01*
X155946730Y-72941274D01*
X155914769Y-72938759D01*
X155849481Y-72913874D01*
X155808011Y-72857642D01*
X155800500Y-72815141D01*
X155800500Y-72671155D01*
X155800499Y-72671153D01*
X155775405Y-72545000D01*
X155769737Y-72516503D01*
X155754993Y-72480908D01*
X155709397Y-72370827D01*
X155709390Y-72370814D01*
X155621789Y-72239711D01*
X155621786Y-72239707D01*
X155510292Y-72128213D01*
X155510288Y-72128210D01*
X155379185Y-72040609D01*
X155379172Y-72040602D01*
X155233501Y-71980264D01*
X155233489Y-71980261D01*
X155078845Y-71949500D01*
X155078842Y-71949500D01*
X154921158Y-71949500D01*
X154921155Y-71949500D01*
X154766510Y-71980261D01*
X154766498Y-71980264D01*
X154620827Y-72040602D01*
X154620814Y-72040609D01*
X154489711Y-72128210D01*
X154489707Y-72128213D01*
X154378213Y-72239707D01*
X154378210Y-72239711D01*
X154290609Y-72370814D01*
X154290602Y-72370827D01*
X154230264Y-72516498D01*
X154230261Y-72516510D01*
X154199500Y-72671153D01*
X154199500Y-72716147D01*
X154186708Y-72763905D01*
X154189272Y-72764967D01*
X154186161Y-72772475D01*
X154165699Y-72848841D01*
X154145237Y-72925205D01*
X154145237Y-72925207D01*
X154145237Y-73082252D01*
X154125552Y-73149291D01*
X154108918Y-73169933D01*
X154095625Y-73183225D01*
X154095619Y-73183233D01*
X154013243Y-73322524D01*
X154013242Y-73322527D01*
X153968095Y-73477920D01*
X153968094Y-73477926D01*
X153965238Y-73514220D01*
X153965238Y-73983615D01*
X153968094Y-74019909D01*
X153968095Y-74019915D01*
X154013242Y-74175308D01*
X154013242Y-74175309D01*
X154013243Y-74175311D01*
X154013244Y-74175313D01*
X154021894Y-74189940D01*
X154039078Y-74257662D01*
X154021898Y-74316178D01*
X154017504Y-74323607D01*
X153972357Y-74479002D01*
X153972356Y-74479008D01*
X153969500Y-74515302D01*
X153969500Y-74984697D01*
X153972356Y-75020991D01*
X153972357Y-75020997D01*
X154017505Y-75176394D01*
X154023708Y-75186884D01*
X154040887Y-75254608D01*
X154023708Y-75313116D01*
X154017505Y-75323605D01*
X153972357Y-75479002D01*
X153972356Y-75479008D01*
X153969500Y-75515302D01*
X153969500Y-75984697D01*
X153972356Y-76020991D01*
X153972357Y-76020997D01*
X154017504Y-76176390D01*
X154017505Y-76176393D01*
X154017506Y-76176395D01*
X154042015Y-76217837D01*
X154099881Y-76315684D01*
X154099887Y-76315692D01*
X154214307Y-76430112D01*
X154214311Y-76430115D01*
X154214313Y-76430117D01*
X154353605Y-76512494D01*
X154353608Y-76512494D01*
X154355791Y-76513440D01*
X154357230Y-76514638D01*
X154360320Y-76516465D01*
X154360025Y-76516963D01*
X154409499Y-76558130D01*
X154430519Y-76624763D01*
X154412178Y-76692182D01*
X154375436Y-76730343D01*
X154239707Y-76821035D01*
X154128213Y-76932529D01*
X154128210Y-76932533D01*
X154040609Y-77063636D01*
X154040602Y-77063649D01*
X153980264Y-77209320D01*
X153980261Y-77209332D01*
X153949500Y-77363975D01*
X153949500Y-77521668D01*
X153980261Y-77676311D01*
X153980264Y-77676323D01*
X154040602Y-77821994D01*
X154040609Y-77822007D01*
X154128210Y-77953110D01*
X154128213Y-77953114D01*
X154239707Y-78064608D01*
X154239711Y-78064611D01*
X154370814Y-78152212D01*
X154370827Y-78152219D01*
X154498662Y-78205169D01*
X154516503Y-78212559D01*
X154671153Y-78243321D01*
X154671156Y-78243322D01*
X154671158Y-78243322D01*
X154828844Y-78243322D01*
X154889643Y-78231228D01*
X154959235Y-78237455D01*
X155014412Y-78280318D01*
X155037657Y-78346207D01*
X155028396Y-78400297D01*
X154980264Y-78516498D01*
X154980261Y-78516510D01*
X154949500Y-78671153D01*
X154949500Y-78828846D01*
X154980261Y-78983489D01*
X154980264Y-78983501D01*
X155040602Y-79129172D01*
X155040609Y-79129185D01*
X155128210Y-79260288D01*
X155128213Y-79260292D01*
X155239707Y-79371786D01*
X155239711Y-79371789D01*
X155370814Y-79459390D01*
X155370827Y-79459397D01*
X155516498Y-79519735D01*
X155516503Y-79519737D01*
X155671153Y-79550499D01*
X155671156Y-79550500D01*
X155671158Y-79550500D01*
X155828844Y-79550500D01*
X155828845Y-79550499D01*
X155983497Y-79519737D01*
X156129179Y-79459394D01*
X156260289Y-79371789D01*
X156371789Y-79260289D01*
X156459394Y-79129179D01*
X156519737Y-78983497D01*
X156550500Y-78828842D01*
X156550500Y-78671158D01*
X156550500Y-78671155D01*
X156550499Y-78671153D01*
X156545245Y-78644738D01*
X156519737Y-78516503D01*
X156496284Y-78459882D01*
X156459397Y-78370827D01*
X156459390Y-78370814D01*
X156371398Y-78239125D01*
X156365747Y-78221078D01*
X156355523Y-78205169D01*
X156351071Y-78174207D01*
X156350520Y-78172447D01*
X156350500Y-78170234D01*
X156350500Y-78004500D01*
X156370185Y-77937461D01*
X156422989Y-77891706D01*
X156474500Y-77880500D01*
X156820139Y-77880500D01*
X156887178Y-77900185D01*
X156932933Y-77952989D01*
X156942877Y-78022147D01*
X156935001Y-78039393D01*
X156935001Y-78374177D01*
X156945276Y-78459760D01*
X156998977Y-78595937D01*
X156998978Y-78595939D01*
X157087425Y-78712574D01*
X157173600Y-78777922D01*
X157215123Y-78834114D01*
X157219675Y-78903836D01*
X157186356Y-78964407D01*
X156881286Y-79269478D01*
X156769481Y-79381282D01*
X156769480Y-79381284D01*
X156730982Y-79447965D01*
X156690423Y-79518215D01*
X156649499Y-79670943D01*
X156649499Y-79670945D01*
X156649499Y-79839046D01*
X156649500Y-79839059D01*
X156649500Y-80420234D01*
X156629815Y-80487273D01*
X156628602Y-80489125D01*
X156540609Y-80620814D01*
X156540602Y-80620827D01*
X156480264Y-80766498D01*
X156480261Y-80766510D01*
X156449500Y-80921153D01*
X156449500Y-81078846D01*
X156480261Y-81233489D01*
X156480264Y-81233501D01*
X156540602Y-81379172D01*
X156540609Y-81379185D01*
X156628210Y-81510288D01*
X156628213Y-81510292D01*
X156739707Y-81621786D01*
X156739711Y-81621789D01*
X156870814Y-81709390D01*
X156870827Y-81709397D01*
X156987199Y-81757599D01*
X157016503Y-81769737D01*
X157152472Y-81796783D01*
X157171153Y-81800499D01*
X157171156Y-81800500D01*
X157171158Y-81800500D01*
X157328844Y-81800500D01*
X157328845Y-81800499D01*
X157483497Y-81769737D01*
X157629179Y-81709394D01*
X157760289Y-81621789D01*
X157871789Y-81510289D01*
X157959394Y-81379179D01*
X158019737Y-81233497D01*
X158050500Y-81078842D01*
X158050500Y-80921158D01*
X158050500Y-80921155D01*
X158050499Y-80921153D01*
X158049785Y-80917562D01*
X158019737Y-80766503D01*
X157993253Y-80702565D01*
X157959397Y-80620827D01*
X157959390Y-80620814D01*
X157871398Y-80489125D01*
X157850520Y-80422447D01*
X157850500Y-80420234D01*
X157850500Y-80050096D01*
X157870185Y-79983057D01*
X157886815Y-79962419D01*
X158433713Y-79415521D01*
X158433716Y-79415520D01*
X158545520Y-79303716D01*
X158545521Y-79303714D01*
X158752819Y-79096416D01*
X158814142Y-79062931D01*
X158883834Y-79067915D01*
X158939767Y-79109787D01*
X158964184Y-79175251D01*
X158964500Y-79184097D01*
X158964500Y-81478330D01*
X158964499Y-81478348D01*
X158964499Y-81644054D01*
X158964498Y-81644054D01*
X159000234Y-81777423D01*
X159005423Y-81796785D01*
X159027678Y-81835331D01*
X159059203Y-81889934D01*
X159084479Y-81933714D01*
X159084481Y-81933717D01*
X159203349Y-82052585D01*
X159203355Y-82052590D01*
X159415425Y-82264660D01*
X159448910Y-82325983D01*
X159449361Y-82328149D01*
X159480261Y-82483491D01*
X159480264Y-82483501D01*
X159540602Y-82629172D01*
X159540609Y-82629185D01*
X159628210Y-82760288D01*
X159628213Y-82760292D01*
X159739707Y-82871786D01*
X159739711Y-82871789D01*
X159870814Y-82959390D01*
X159870827Y-82959397D01*
X160016498Y-83019735D01*
X160016503Y-83019737D01*
X160171153Y-83050499D01*
X160171156Y-83050500D01*
X160171158Y-83050500D01*
X160328844Y-83050500D01*
X160328845Y-83050499D01*
X160483497Y-83019737D01*
X160629179Y-82959394D01*
X160681110Y-82924694D01*
X160747785Y-82903816D01*
X160815165Y-82922300D01*
X160818863Y-82924676D01*
X160870821Y-82959394D01*
X160870823Y-82959395D01*
X160870825Y-82959396D01*
X161016498Y-83019735D01*
X161016503Y-83019737D01*
X161171153Y-83050499D01*
X161171156Y-83050500D01*
X161171158Y-83050500D01*
X161328844Y-83050500D01*
X161328845Y-83050499D01*
X161483497Y-83019737D01*
X161629179Y-82959394D01*
X161681110Y-82924694D01*
X161747785Y-82903816D01*
X161815165Y-82922300D01*
X161818863Y-82924676D01*
X161870821Y-82959394D01*
X161870823Y-82959395D01*
X161870825Y-82959396D01*
X162016498Y-83019735D01*
X162016503Y-83019737D01*
X162171153Y-83050499D01*
X162171156Y-83050500D01*
X162171158Y-83050500D01*
X162328844Y-83050500D01*
X162328845Y-83050499D01*
X162483497Y-83019737D01*
X162629179Y-82959394D01*
X162681110Y-82924694D01*
X162747785Y-82903816D01*
X162815165Y-82922300D01*
X162818863Y-82924676D01*
X162870821Y-82959394D01*
X162870823Y-82959395D01*
X162870825Y-82959396D01*
X163016498Y-83019735D01*
X163016503Y-83019737D01*
X163171153Y-83050499D01*
X163171156Y-83050500D01*
X163171158Y-83050500D01*
X163328844Y-83050500D01*
X163328845Y-83050499D01*
X163483497Y-83019737D01*
X163629179Y-82959394D01*
X163681110Y-82924694D01*
X163747785Y-82903816D01*
X163815165Y-82922300D01*
X163818863Y-82924676D01*
X163870821Y-82959394D01*
X163870823Y-82959395D01*
X163870825Y-82959396D01*
X164016498Y-83019735D01*
X164016503Y-83019737D01*
X164171153Y-83050499D01*
X164171156Y-83050500D01*
X164171158Y-83050500D01*
X164328844Y-83050500D01*
X164328845Y-83050499D01*
X164483497Y-83019737D01*
X164596166Y-82973067D01*
X164629172Y-82959397D01*
X164629172Y-82959396D01*
X164629179Y-82959394D01*
X164760289Y-82871789D01*
X164871789Y-82760289D01*
X164959394Y-82629179D01*
X165019737Y-82483497D01*
X165050500Y-82328842D01*
X165050500Y-82171158D01*
X165050500Y-82171155D01*
X165050499Y-82171153D01*
X165031201Y-82074138D01*
X165019737Y-82016503D01*
X164986895Y-81937214D01*
X164959397Y-81870827D01*
X164959390Y-81870814D01*
X164871789Y-81739711D01*
X164871786Y-81739707D01*
X164760292Y-81628213D01*
X164760288Y-81628210D01*
X164629185Y-81540609D01*
X164629172Y-81540602D01*
X164483501Y-81480264D01*
X164483491Y-81480261D01*
X164328149Y-81449361D01*
X164266238Y-81416976D01*
X164264660Y-81415425D01*
X163381310Y-80532075D01*
X163347825Y-80470752D01*
X163352809Y-80401060D01*
X163381311Y-80356712D01*
X163410729Y-80327294D01*
X163410736Y-80327285D01*
X163492404Y-80189191D01*
X163492405Y-80189188D01*
X163537164Y-80035128D01*
X163537165Y-80035122D01*
X163539929Y-80000000D01*
X162900597Y-80000000D01*
X162871156Y-79991355D01*
X162841170Y-79984832D01*
X162836154Y-79981077D01*
X162833558Y-79980315D01*
X162812916Y-79963681D01*
X162806317Y-79957082D01*
X162772832Y-79895759D01*
X162769998Y-79869401D01*
X162769998Y-79750000D01*
X162650597Y-79750000D01*
X162621156Y-79741355D01*
X162591170Y-79734832D01*
X162586154Y-79731077D01*
X162583558Y-79730315D01*
X162562916Y-79713681D01*
X162556818Y-79707583D01*
X162523333Y-79646260D01*
X162520499Y-79619902D01*
X162520499Y-79500831D01*
X162520498Y-79500809D01*
X162520380Y-79499308D01*
X162519998Y-79489582D01*
X162519998Y-78965856D01*
X162436891Y-78939404D01*
X162433558Y-78937154D01*
X163019998Y-78937154D01*
X163019998Y-79500000D01*
X163539929Y-79500000D01*
X163537165Y-79464877D01*
X163537164Y-79464871D01*
X163492405Y-79310811D01*
X163492404Y-79310808D01*
X163410736Y-79172714D01*
X163410729Y-79172705D01*
X163297292Y-79059268D01*
X163297283Y-79059261D01*
X163159189Y-78977593D01*
X163159186Y-78977591D01*
X163019999Y-78937153D01*
X163019998Y-78937154D01*
X162433558Y-78937154D01*
X162408902Y-78920511D01*
X162380556Y-78902180D01*
X162380032Y-78901024D01*
X162378980Y-78900314D01*
X162365648Y-78869290D01*
X162351712Y-78838542D01*
X162351570Y-78836529D01*
X162351395Y-78836120D01*
X162351498Y-78835498D01*
X162350500Y-78821245D01*
X162350500Y-77923120D01*
X162370185Y-77856081D01*
X162405405Y-77822879D01*
X162404426Y-77821588D01*
X162411183Y-77816463D01*
X162411185Y-77816463D01*
X162527931Y-77727931D01*
X162616463Y-77611185D01*
X162622827Y-77595044D01*
X162665730Y-77539902D01*
X162731637Y-77516706D01*
X162762373Y-77518916D01*
X162921153Y-77550499D01*
X162921156Y-77550500D01*
X162921158Y-77550500D01*
X163078844Y-77550500D01*
X163078845Y-77550499D01*
X163233497Y-77519737D01*
X163379179Y-77459394D01*
X163510289Y-77371789D01*
X163621789Y-77260289D01*
X163709394Y-77129179D01*
X163769737Y-76983497D01*
X163800500Y-76828842D01*
X163800500Y-76671158D01*
X163800500Y-76671155D01*
X163800499Y-76671153D01*
X163783228Y-76584326D01*
X163769737Y-76516503D01*
X163769721Y-76516465D01*
X163709397Y-76370827D01*
X163709390Y-76370814D01*
X163621789Y-76239711D01*
X163621786Y-76239707D01*
X163510292Y-76128213D01*
X163510288Y-76128210D01*
X163379185Y-76040609D01*
X163379172Y-76040602D01*
X163233501Y-75980264D01*
X163233491Y-75980261D01*
X163078151Y-75949362D01*
X163061393Y-75940595D01*
X163042912Y-75936575D01*
X163017876Y-75917832D01*
X163016241Y-75916977D01*
X163014658Y-75915423D01*
X163002084Y-75902848D01*
X162968602Y-75841523D01*
X162973589Y-75771832D01*
X163002086Y-75727491D01*
X163079835Y-75649742D01*
X163141156Y-75616259D01*
X163143323Y-75615808D01*
X163144012Y-75615671D01*
X163144013Y-75615671D01*
X163298668Y-75584908D01*
X163444350Y-75524565D01*
X163575460Y-75436960D01*
X163686960Y-75325460D01*
X163774565Y-75194350D01*
X163777658Y-75186884D01*
X163801489Y-75129350D01*
X163834908Y-75048668D01*
X163865671Y-74894013D01*
X163865671Y-74736329D01*
X163865671Y-74736326D01*
X163865670Y-74736324D01*
X163834908Y-74581674D01*
X163807987Y-74516681D01*
X163774568Y-74435998D01*
X163774566Y-74435994D01*
X163774565Y-74435992D01*
X163699117Y-74323077D01*
X163678240Y-74256401D01*
X163696724Y-74189021D01*
X163714535Y-74166510D01*
X165487819Y-72393227D01*
X165507255Y-72382614D01*
X165523989Y-72368114D01*
X165537320Y-72366197D01*
X165549142Y-72359742D01*
X165571228Y-72361321D01*
X165593147Y-72358170D01*
X165605398Y-72363765D01*
X165618834Y-72364726D01*
X165636560Y-72377996D01*
X165656703Y-72387195D01*
X165663985Y-72398526D01*
X165674767Y-72406598D01*
X165682504Y-72427343D01*
X165694477Y-72445973D01*
X165697628Y-72467891D01*
X165699184Y-72472062D01*
X165699500Y-72480908D01*
X165699500Y-72522653D01*
X165695275Y-72554746D01*
X165669499Y-72650943D01*
X165669499Y-72819046D01*
X165669500Y-72819059D01*
X165669500Y-73083333D01*
X165649815Y-73150372D01*
X165633181Y-73171014D01*
X165619887Y-73184307D01*
X165619881Y-73184315D01*
X165537505Y-73323606D01*
X165537504Y-73323609D01*
X165492357Y-73479002D01*
X165492356Y-73479008D01*
X165489500Y-73515302D01*
X165489500Y-73984697D01*
X165492356Y-74020991D01*
X165492357Y-74020997D01*
X165537504Y-74176390D01*
X165540603Y-74183551D01*
X165537535Y-74184878D01*
X165550876Y-74237984D01*
X165533707Y-74296207D01*
X165517509Y-74323597D01*
X165517504Y-74323610D01*
X165472357Y-74479002D01*
X165472356Y-74479008D01*
X165469500Y-74515302D01*
X165469500Y-74984697D01*
X165472356Y-75020991D01*
X165472357Y-75020997D01*
X165517505Y-75176394D01*
X165523708Y-75186884D01*
X165540887Y-75254608D01*
X165523708Y-75313116D01*
X165517505Y-75323605D01*
X165472357Y-75479002D01*
X165472356Y-75479008D01*
X165469500Y-75515302D01*
X165469500Y-75984697D01*
X165472356Y-76020991D01*
X165472357Y-76020997D01*
X165517504Y-76176390D01*
X165517505Y-76176393D01*
X165517506Y-76176395D01*
X165542015Y-76217837D01*
X165599881Y-76315684D01*
X165599887Y-76315692D01*
X165714307Y-76430112D01*
X165714311Y-76430115D01*
X165714313Y-76430117D01*
X165853605Y-76512494D01*
X165890231Y-76523135D01*
X166009002Y-76557642D01*
X166009005Y-76557642D01*
X166009007Y-76557643D01*
X166045310Y-76560500D01*
X166045318Y-76560500D01*
X166454682Y-76560500D01*
X166454690Y-76560500D01*
X166490993Y-76557643D01*
X166523543Y-76548186D01*
X166593412Y-76548385D01*
X166652083Y-76586326D01*
X166680927Y-76649964D01*
X166670786Y-76719094D01*
X166645820Y-76754943D01*
X166360339Y-77040425D01*
X166299016Y-77073910D01*
X166296850Y-77074361D01*
X166141508Y-77105261D01*
X166141498Y-77105264D01*
X165995827Y-77165602D01*
X165995814Y-77165609D01*
X165864711Y-77253210D01*
X165864707Y-77253213D01*
X165753213Y-77364707D01*
X165753210Y-77364711D01*
X165665609Y-77495814D01*
X165665602Y-77495827D01*
X165605264Y-77641498D01*
X165605261Y-77641510D01*
X165574500Y-77796153D01*
X165574500Y-77953846D01*
X165605261Y-78108489D01*
X165605264Y-78108501D01*
X165665602Y-78254172D01*
X165665609Y-78254185D01*
X165753210Y-78385288D01*
X165753213Y-78385292D01*
X165864707Y-78496786D01*
X165864711Y-78496789D01*
X165995814Y-78584390D01*
X165995827Y-78584397D01*
X166086101Y-78621789D01*
X166141503Y-78644737D01*
X166296153Y-78675499D01*
X166296156Y-78675500D01*
X166296158Y-78675500D01*
X166453844Y-78675500D01*
X166453845Y-78675499D01*
X166608497Y-78644737D01*
X166754179Y-78584394D01*
X166788340Y-78561567D01*
X166855013Y-78540690D01*
X166922393Y-78559173D01*
X166944910Y-78576989D01*
X166989707Y-78621786D01*
X166989711Y-78621789D01*
X167120814Y-78709390D01*
X167120827Y-78709397D01*
X167203262Y-78743542D01*
X167266503Y-78769737D01*
X167393287Y-78794956D01*
X167421153Y-78800499D01*
X167421156Y-78800500D01*
X167421158Y-78800500D01*
X167578844Y-78800500D01*
X167578845Y-78800499D01*
X167733497Y-78769737D01*
X167879179Y-78709394D01*
X168010289Y-78621789D01*
X168121789Y-78510289D01*
X168209394Y-78379179D01*
X168212854Y-78370827D01*
X168265667Y-78243322D01*
X168269737Y-78233497D01*
X168300500Y-78078842D01*
X168300500Y-78004500D01*
X168320185Y-77937461D01*
X168372989Y-77891706D01*
X168424500Y-77880500D01*
X168690139Y-77880500D01*
X168757178Y-77900185D01*
X168802933Y-77952989D01*
X168812877Y-78022147D01*
X168805001Y-78039393D01*
X168805001Y-78374177D01*
X168815276Y-78459760D01*
X168868977Y-78595937D01*
X168868978Y-78595939D01*
X168957425Y-78712574D01*
X169074060Y-78801021D01*
X169210239Y-78854723D01*
X169295801Y-78864998D01*
X169295812Y-78864999D01*
X169332017Y-78864995D01*
X169333811Y-78864016D01*
X169347508Y-78864993D01*
X169356358Y-78864993D01*
X169356358Y-78865625D01*
X169403503Y-78868992D01*
X169459442Y-78910856D01*
X169483868Y-78976317D01*
X169480071Y-79010253D01*
X169481451Y-79010528D01*
X169449500Y-79171153D01*
X169449500Y-79328846D01*
X169480261Y-79483489D01*
X169480264Y-79483501D01*
X169540602Y-79629172D01*
X169540609Y-79629185D01*
X169628210Y-79760288D01*
X169628213Y-79760292D01*
X169739707Y-79871786D01*
X169739711Y-79871789D01*
X169870814Y-79959390D01*
X169870827Y-79959397D01*
X170004246Y-80014660D01*
X170016503Y-80019737D01*
X170162285Y-80048735D01*
X170171153Y-80050499D01*
X170171156Y-80050500D01*
X170171158Y-80050500D01*
X170328844Y-80050500D01*
X170328845Y-80050499D01*
X170483497Y-80019737D01*
X170586189Y-79977200D01*
X170655656Y-79969732D01*
X170718136Y-80001007D01*
X170753788Y-80061096D01*
X170751294Y-80130921D01*
X170721321Y-80179443D01*
X161769481Y-89131282D01*
X161769477Y-89131287D01*
X161748843Y-89167029D01*
X161748842Y-89167031D01*
X161690423Y-89268215D01*
X161649499Y-89420943D01*
X161649499Y-89420945D01*
X161649499Y-89589046D01*
X161649500Y-89589059D01*
X161649500Y-107949902D01*
X161629815Y-108016941D01*
X161613181Y-108037583D01*
X159312181Y-110338583D01*
X159250858Y-110372068D01*
X159181166Y-110367084D01*
X159125233Y-110325212D01*
X159100816Y-110259748D01*
X159100500Y-110250902D01*
X159100500Y-110073713D01*
X159067246Y-109863757D01*
X159001557Y-109661588D01*
X158905051Y-109472184D01*
X158905049Y-109472181D01*
X158905048Y-109472179D01*
X158780109Y-109300213D01*
X158629786Y-109149890D01*
X158457820Y-109024951D01*
X158457115Y-109024591D01*
X158449054Y-109020485D01*
X158398259Y-108972512D01*
X158381463Y-108904692D01*
X158403999Y-108838556D01*
X158449054Y-108799515D01*
X158457816Y-108795051D01*
X158512876Y-108755048D01*
X158629786Y-108670109D01*
X158629788Y-108670106D01*
X158629792Y-108670104D01*
X158780104Y-108519792D01*
X158780106Y-108519788D01*
X158780109Y-108519786D01*
X158905048Y-108347820D01*
X158905047Y-108347820D01*
X158905051Y-108347816D01*
X159001557Y-108158412D01*
X159067246Y-107956243D01*
X159100500Y-107746287D01*
X159100500Y-107533713D01*
X159067246Y-107323757D01*
X159001557Y-107121588D01*
X158905051Y-106932184D01*
X158905049Y-106932181D01*
X158905048Y-106932179D01*
X158780109Y-106760213D01*
X158629786Y-106609890D01*
X158457820Y-106484951D01*
X158457115Y-106484591D01*
X158449054Y-106480485D01*
X158398259Y-106432512D01*
X158381463Y-106364692D01*
X158403999Y-106298556D01*
X158449054Y-106259515D01*
X158457816Y-106255051D01*
X158512876Y-106215048D01*
X158629786Y-106130109D01*
X158629788Y-106130106D01*
X158629792Y-106130104D01*
X158780104Y-105979792D01*
X158780106Y-105979788D01*
X158780109Y-105979786D01*
X158905048Y-105807820D01*
X158905047Y-105807820D01*
X158905051Y-105807816D01*
X159001557Y-105618412D01*
X159067246Y-105416243D01*
X159100500Y-105206287D01*
X159100500Y-104993713D01*
X159067246Y-104783757D01*
X159001557Y-104581588D01*
X158905051Y-104392184D01*
X158905049Y-104392181D01*
X158905048Y-104392179D01*
X158780109Y-104220213D01*
X158629786Y-104069890D01*
X158457820Y-103944951D01*
X158457115Y-103944591D01*
X158449054Y-103940485D01*
X158398259Y-103892512D01*
X158381463Y-103824692D01*
X158403999Y-103758556D01*
X158449054Y-103719515D01*
X158457816Y-103715051D01*
X158526739Y-103664976D01*
X158629786Y-103590109D01*
X158629788Y-103590106D01*
X158629792Y-103590104D01*
X158780104Y-103439792D01*
X158780106Y-103439788D01*
X158780109Y-103439786D01*
X158905048Y-103267820D01*
X158905047Y-103267820D01*
X158905051Y-103267816D01*
X159001557Y-103078412D01*
X159067246Y-102876243D01*
X159100500Y-102666287D01*
X159100500Y-102453713D01*
X159067246Y-102243757D01*
X159053506Y-102201473D01*
X159051512Y-102131635D01*
X159083755Y-102075478D01*
X159758506Y-101400728D01*
X159758511Y-101400724D01*
X159768714Y-101390520D01*
X159768716Y-101390520D01*
X159880520Y-101278716D01*
X159959577Y-101141784D01*
X159992075Y-101020500D01*
X160000500Y-100989058D01*
X160000500Y-100830943D01*
X160000500Y-93920943D01*
X159959577Y-93768216D01*
X159959577Y-93768215D01*
X159916315Y-93693283D01*
X159880520Y-93631284D01*
X159768716Y-93519480D01*
X159768715Y-93519479D01*
X159764385Y-93515149D01*
X159764374Y-93515139D01*
X159437590Y-93188355D01*
X159437588Y-93188352D01*
X159318717Y-93069481D01*
X159318716Y-93069480D01*
X159231904Y-93019360D01*
X159181785Y-92990423D01*
X159113110Y-92972021D01*
X159105852Y-92969054D01*
X159084432Y-92951954D01*
X159061023Y-92937686D01*
X159057516Y-92930468D01*
X159051248Y-92925464D01*
X159042472Y-92899498D01*
X159030494Y-92874839D01*
X159031148Y-92865989D01*
X159028878Y-92859272D01*
X159032803Y-92843590D01*
X159034846Y-92815958D01*
X159067246Y-92716243D01*
X159100500Y-92506287D01*
X159100500Y-92293713D01*
X159067246Y-92083757D01*
X159001557Y-91881588D01*
X158905051Y-91692184D01*
X158905049Y-91692181D01*
X158905048Y-91692179D01*
X158780109Y-91520213D01*
X158629786Y-91369890D01*
X158457820Y-91244951D01*
X158457115Y-91244591D01*
X158449054Y-91240485D01*
X158398259Y-91192512D01*
X158381463Y-91124692D01*
X158403999Y-91058556D01*
X158449054Y-91019515D01*
X158457816Y-91015051D01*
X158619369Y-90897677D01*
X158629786Y-90890109D01*
X158629788Y-90890106D01*
X158629792Y-90890104D01*
X158780104Y-90739792D01*
X158780106Y-90739788D01*
X158780109Y-90739786D01*
X158905048Y-90567820D01*
X158905047Y-90567820D01*
X158905051Y-90567816D01*
X159001557Y-90378412D01*
X159067246Y-90176243D01*
X159100500Y-89966287D01*
X159100500Y-89753713D01*
X159067246Y-89543757D01*
X159001557Y-89341588D01*
X158905051Y-89152184D01*
X158905049Y-89152181D01*
X158905048Y-89152179D01*
X158780109Y-88980213D01*
X158629786Y-88829890D01*
X158457820Y-88704951D01*
X158457115Y-88704591D01*
X158449054Y-88700485D01*
X158398259Y-88652512D01*
X158381463Y-88584692D01*
X158403999Y-88518556D01*
X158449054Y-88479515D01*
X158457816Y-88475051D01*
X158550420Y-88407771D01*
X158629786Y-88350109D01*
X158629788Y-88350106D01*
X158629792Y-88350104D01*
X158780104Y-88199792D01*
X158780106Y-88199788D01*
X158780109Y-88199786D01*
X158905048Y-88027820D01*
X158905047Y-88027820D01*
X158905051Y-88027816D01*
X159001557Y-87838412D01*
X159067246Y-87636243D01*
X159100500Y-87426287D01*
X159100500Y-87213713D01*
X159067246Y-87003757D01*
X159001557Y-86801588D01*
X158905051Y-86612184D01*
X158905049Y-86612181D01*
X158905048Y-86612179D01*
X158780109Y-86440213D01*
X158629786Y-86289890D01*
X158457820Y-86164951D01*
X158457115Y-86164591D01*
X158449054Y-86160485D01*
X158398259Y-86112512D01*
X158381463Y-86044692D01*
X158403999Y-85978556D01*
X158449054Y-85939515D01*
X158457816Y-85935051D01*
X158567626Y-85855270D01*
X158629786Y-85810109D01*
X158629788Y-85810106D01*
X158629792Y-85810104D01*
X158780104Y-85659792D01*
X158780106Y-85659788D01*
X158780109Y-85659786D01*
X158905048Y-85487820D01*
X158905047Y-85487820D01*
X158905051Y-85487816D01*
X159001557Y-85298412D01*
X159067246Y-85096243D01*
X159100500Y-84886287D01*
X159100500Y-84673713D01*
X159067246Y-84463757D01*
X159001557Y-84261588D01*
X158905051Y-84072184D01*
X158905049Y-84072181D01*
X158905048Y-84072179D01*
X158780109Y-83900213D01*
X158629786Y-83749890D01*
X158457820Y-83624951D01*
X158268414Y-83528444D01*
X158268413Y-83528443D01*
X158268412Y-83528443D01*
X158066243Y-83462754D01*
X158066241Y-83462753D01*
X158066240Y-83462753D01*
X157904957Y-83437208D01*
X157856287Y-83429500D01*
X157643713Y-83429500D01*
X157595042Y-83437208D01*
X157433760Y-83462753D01*
X157433757Y-83462754D01*
X157281773Y-83512137D01*
X157231585Y-83528444D01*
X157042179Y-83624951D01*
X156870213Y-83749890D01*
X156719890Y-83900213D01*
X156594951Y-84072179D01*
X156498444Y-84261585D01*
X156432753Y-84463760D01*
X156399500Y-84673713D01*
X156399500Y-84886286D01*
X156429890Y-85078164D01*
X156432754Y-85096243D01*
X156435056Y-85103329D01*
X156498444Y-85298414D01*
X156594951Y-85487820D01*
X156719890Y-85659786D01*
X156870213Y-85810109D01*
X157042182Y-85935050D01*
X157050946Y-85939516D01*
X157101742Y-85987491D01*
X157118536Y-86055312D01*
X157095998Y-86121447D01*
X157050946Y-86160484D01*
X157042182Y-86164949D01*
X156870213Y-86289890D01*
X156719890Y-86440213D01*
X156594951Y-86612179D01*
X156498444Y-86801585D01*
X156432753Y-87003760D01*
X156399500Y-87213713D01*
X156399500Y-87426286D01*
X156426418Y-87596243D01*
X156432754Y-87636243D01*
X156490641Y-87814401D01*
X156498444Y-87838414D01*
X156594951Y-88027820D01*
X156719890Y-88199786D01*
X156870213Y-88350109D01*
X157042182Y-88475050D01*
X157050946Y-88479516D01*
X157101742Y-88527491D01*
X157118536Y-88595312D01*
X157095998Y-88661447D01*
X157050946Y-88700484D01*
X157042182Y-88704949D01*
X156870213Y-88829890D01*
X156719890Y-88980213D01*
X156594951Y-89152179D01*
X156498444Y-89341585D01*
X156432753Y-89543760D01*
X156405835Y-89713713D01*
X156399500Y-89753713D01*
X156399500Y-89966287D01*
X156409534Y-90029644D01*
X156426418Y-90136243D01*
X156432754Y-90176243D01*
X156497284Y-90374846D01*
X156498444Y-90378414D01*
X156594951Y-90567820D01*
X156719890Y-90739786D01*
X156870213Y-90890109D01*
X157042182Y-91015050D01*
X157050946Y-91019516D01*
X157101742Y-91067491D01*
X157118536Y-91135312D01*
X157095998Y-91201447D01*
X157050946Y-91240484D01*
X157042182Y-91244949D01*
X156870213Y-91369890D01*
X156719890Y-91520213D01*
X156594951Y-91692179D01*
X156498444Y-91881583D01*
X156434032Y-92079823D01*
X156394594Y-92137498D01*
X156330235Y-92164696D01*
X156261389Y-92152781D01*
X156228420Y-92129185D01*
X155886819Y-91787584D01*
X155853334Y-91726261D01*
X155850500Y-91699903D01*
X155850500Y-82920945D01*
X155850498Y-82920936D01*
X155845360Y-82901757D01*
X155845023Y-82900500D01*
X155809577Y-82768215D01*
X155767145Y-82694721D01*
X155730520Y-82631284D01*
X155618716Y-82519480D01*
X155618715Y-82519479D01*
X155614385Y-82515149D01*
X155614374Y-82515139D01*
X153136819Y-80037584D01*
X153103334Y-79976261D01*
X153100500Y-79949903D01*
X153100500Y-77360259D01*
X153100500Y-77360256D01*
X153086921Y-77309577D01*
X153059577Y-77207528D01*
X153022735Y-77143717D01*
X152980520Y-77070597D01*
X152868716Y-76958793D01*
X152868715Y-76958792D01*
X152864385Y-76954462D01*
X152864374Y-76954452D01*
X150176819Y-74266897D01*
X150162115Y-74239969D01*
X150145523Y-74214151D01*
X150144631Y-74207950D01*
X150143334Y-74205574D01*
X150140500Y-74179216D01*
X150140500Y-74145808D01*
X150160185Y-74078769D01*
X150176820Y-74058126D01*
X150208076Y-74026870D01*
X150208081Y-74026865D01*
X150291744Y-73885398D01*
X150337598Y-73727569D01*
X150340500Y-73690694D01*
X150340500Y-71909306D01*
X150337598Y-71872431D01*
X150331598Y-71851780D01*
X150291745Y-71714606D01*
X150291744Y-71714603D01*
X150291744Y-71714602D01*
X150208081Y-71573135D01*
X150208079Y-71573133D01*
X150208076Y-71573129D01*
X150091870Y-71456923D01*
X150091862Y-71456917D01*
X149956242Y-71376712D01*
X149950398Y-71373256D01*
X149950397Y-71373255D01*
X149950396Y-71373255D01*
X149950393Y-71373254D01*
X149792573Y-71327402D01*
X149792567Y-71327401D01*
X149755701Y-71324500D01*
X149755694Y-71324500D01*
X149324306Y-71324500D01*
X149324298Y-71324500D01*
X149287432Y-71327401D01*
X149287426Y-71327402D01*
X149129606Y-71373254D01*
X149129603Y-71373255D01*
X148988137Y-71456917D01*
X148981969Y-71461702D01*
X148980072Y-71459256D01*
X148931358Y-71485857D01*
X148861666Y-71480873D01*
X148829296Y-71460069D01*
X148828031Y-71461702D01*
X148821862Y-71456917D01*
X148686242Y-71376712D01*
X148680398Y-71373256D01*
X148680397Y-71373255D01*
X148680396Y-71373255D01*
X148680393Y-71373254D01*
X148522573Y-71327402D01*
X148522567Y-71327401D01*
X148485701Y-71324500D01*
X148485694Y-71324500D01*
X148054306Y-71324500D01*
X148054298Y-71324500D01*
X148017432Y-71327401D01*
X148017426Y-71327402D01*
X147859606Y-71373254D01*
X147859603Y-71373255D01*
X147718137Y-71456917D01*
X147711969Y-71461702D01*
X147710072Y-71459256D01*
X147661358Y-71485857D01*
X147591666Y-71480873D01*
X147559296Y-71460069D01*
X147558031Y-71461702D01*
X147551862Y-71456917D01*
X147416242Y-71376712D01*
X147410398Y-71373256D01*
X147410397Y-71373255D01*
X147410396Y-71373255D01*
X147410393Y-71373254D01*
X147252573Y-71327402D01*
X147252567Y-71327401D01*
X147215701Y-71324500D01*
X147215694Y-71324500D01*
X146784306Y-71324500D01*
X146784298Y-71324500D01*
X146747432Y-71327401D01*
X146747426Y-71327402D01*
X146589606Y-71373254D01*
X146589603Y-71373255D01*
X146448137Y-71456917D01*
X146441969Y-71461702D01*
X146440072Y-71459256D01*
X146391358Y-71485857D01*
X146321666Y-71480873D01*
X146289296Y-71460069D01*
X146288031Y-71461702D01*
X146281862Y-71456917D01*
X146146242Y-71376712D01*
X146140398Y-71373256D01*
X146140397Y-71373255D01*
X146140396Y-71373255D01*
X146140393Y-71373254D01*
X145982573Y-71327402D01*
X145982567Y-71327401D01*
X145945701Y-71324500D01*
X145945694Y-71324500D01*
X145514306Y-71324500D01*
X145514298Y-71324500D01*
X145477432Y-71327401D01*
X145477426Y-71327402D01*
X145319606Y-71373254D01*
X145319603Y-71373255D01*
X145178137Y-71456917D01*
X145171969Y-71461702D01*
X145170072Y-71459256D01*
X145121358Y-71485857D01*
X145051666Y-71480873D01*
X145031269Y-71471060D01*
X145018139Y-71463193D01*
X145011865Y-71456919D01*
X144870398Y-71373256D01*
X144865799Y-71371919D01*
X144854869Y-71365371D01*
X144848898Y-71358902D01*
X144830919Y-71346683D01*
X144824397Y-71340161D01*
X144824374Y-71340140D01*
X137562932Y-64078698D01*
X137562930Y-64078695D01*
X137444059Y-63959824D01*
X137444058Y-63959823D01*
X137335894Y-63897375D01*
X137335893Y-63897374D01*
X137307125Y-63880765D01*
X137251223Y-63865786D01*
X137154399Y-63839842D01*
X136996285Y-63839842D01*
X136988689Y-63839842D01*
X136988673Y-63839843D01*
X136870475Y-63839843D01*
X136803436Y-63820158D01*
X136757681Y-63767354D01*
X136746475Y-63715843D01*
X136746474Y-63293395D01*
X136746473Y-63293389D01*
X136746472Y-63293382D01*
X136740066Y-63233783D01*
X136702997Y-63134397D01*
X136689772Y-63098937D01*
X136689768Y-63098930D01*
X136603522Y-62983721D01*
X136572917Y-62960810D01*
X136572915Y-62960808D01*
X136488310Y-62897472D01*
X136488303Y-62897468D01*
X136402864Y-62865602D01*
X147199500Y-62865602D01*
X147199500Y-63134397D01*
X147234582Y-63400880D01*
X147234583Y-63400885D01*
X147234584Y-63400891D01*
X147234585Y-63400893D01*
X147304152Y-63660524D01*
X147407011Y-63908850D01*
X147407019Y-63908866D01*
X147487830Y-64048832D01*
X147541413Y-64141641D01*
X147541415Y-64141644D01*
X147541416Y-64141645D01*
X147705042Y-64354888D01*
X147705048Y-64354895D01*
X147895104Y-64544951D01*
X147895110Y-64544956D01*
X148108359Y-64708587D01*
X148257968Y-64794964D01*
X148341133Y-64842980D01*
X148341149Y-64842988D01*
X148496008Y-64907132D01*
X148589474Y-64945847D01*
X148849109Y-65015416D01*
X149037319Y-65040193D01*
X149115602Y-65050500D01*
X149115603Y-65050500D01*
X149384398Y-65050500D01*
X149444905Y-65042534D01*
X149650891Y-65015416D01*
X149910526Y-64945847D01*
X150097457Y-64868417D01*
X150158850Y-64842988D01*
X150158853Y-64842986D01*
X150158859Y-64842984D01*
X150391641Y-64708587D01*
X150604890Y-64544956D01*
X150794956Y-64354890D01*
X150958587Y-64141641D01*
X151092984Y-63908859D01*
X151097741Y-63897376D01*
X151151597Y-63767354D01*
X151195847Y-63660526D01*
X151265416Y-63400891D01*
X151300500Y-63134397D01*
X151300500Y-62865603D01*
X151265416Y-62599109D01*
X151195847Y-62339474D01*
X151152883Y-62235750D01*
X151092988Y-62091149D01*
X151092983Y-62091140D01*
X151092979Y-62091133D01*
X150958587Y-61858359D01*
X150953811Y-61852135D01*
X162049500Y-61852135D01*
X162049500Y-64147870D01*
X162049501Y-64147876D01*
X162055908Y-64207483D01*
X162106202Y-64342328D01*
X162106206Y-64342335D01*
X162192452Y-64457544D01*
X162192455Y-64457547D01*
X162307664Y-64543793D01*
X162307671Y-64543797D01*
X162442517Y-64594091D01*
X162442516Y-64594091D01*
X162449444Y-64594835D01*
X162502127Y-64600500D01*
X164397872Y-64600499D01*
X164457483Y-64594091D01*
X164592331Y-64543796D01*
X164707546Y-64457546D01*
X164793796Y-64342331D01*
X164844091Y-64207483D01*
X164850500Y-64147873D01*
X164850499Y-61852135D01*
X173349500Y-61852135D01*
X173349500Y-64147870D01*
X173349501Y-64147876D01*
X173355908Y-64207483D01*
X173406202Y-64342328D01*
X173406206Y-64342335D01*
X173492452Y-64457544D01*
X173492455Y-64457547D01*
X173607664Y-64543793D01*
X173607671Y-64543797D01*
X173742517Y-64594091D01*
X173742516Y-64594091D01*
X173749444Y-64594835D01*
X173802127Y-64600500D01*
X175697872Y-64600499D01*
X175757483Y-64594091D01*
X175892331Y-64543796D01*
X176007546Y-64457546D01*
X176093796Y-64342331D01*
X176144091Y-64207483D01*
X176150500Y-64147873D01*
X176150499Y-61852128D01*
X176144091Y-61792517D01*
X176127766Y-61748748D01*
X176093797Y-61657671D01*
X176093793Y-61657664D01*
X176007547Y-61542455D01*
X176007544Y-61542452D01*
X175892335Y-61456206D01*
X175892328Y-61456202D01*
X175757482Y-61405908D01*
X175757483Y-61405908D01*
X175697883Y-61399501D01*
X175697881Y-61399500D01*
X175697873Y-61399500D01*
X175697864Y-61399500D01*
X173802129Y-61399500D01*
X173802123Y-61399501D01*
X173742516Y-61405908D01*
X173607671Y-61456202D01*
X173607664Y-61456206D01*
X173492455Y-61542452D01*
X173492452Y-61542455D01*
X173406206Y-61657664D01*
X173406202Y-61657671D01*
X173355908Y-61792517D01*
X173349501Y-61852116D01*
X173349501Y-61852123D01*
X173349500Y-61852135D01*
X164850499Y-61852135D01*
X164850499Y-61852128D01*
X164844091Y-61792517D01*
X164827766Y-61748748D01*
X164793797Y-61657671D01*
X164793793Y-61657664D01*
X164707547Y-61542455D01*
X164707544Y-61542452D01*
X164592335Y-61456206D01*
X164592328Y-61456202D01*
X164457482Y-61405908D01*
X164457483Y-61405908D01*
X164397883Y-61399501D01*
X164397881Y-61399500D01*
X164397873Y-61399500D01*
X164397864Y-61399500D01*
X162502129Y-61399500D01*
X162502123Y-61399501D01*
X162442516Y-61405908D01*
X162307671Y-61456202D01*
X162307664Y-61456206D01*
X162192455Y-61542452D01*
X162192452Y-61542455D01*
X162106206Y-61657664D01*
X162106202Y-61657671D01*
X162055908Y-61792517D01*
X162049501Y-61852116D01*
X162049501Y-61852123D01*
X162049500Y-61852135D01*
X150953811Y-61852135D01*
X150828743Y-61689142D01*
X150794957Y-61645111D01*
X150794951Y-61645104D01*
X150604895Y-61455048D01*
X150604888Y-61455042D01*
X150391645Y-61291416D01*
X150391644Y-61291415D01*
X150391641Y-61291413D01*
X150298832Y-61237830D01*
X150158866Y-61157019D01*
X150158850Y-61157011D01*
X149910524Y-61054152D01*
X149780708Y-61019368D01*
X149650891Y-60984584D01*
X149650885Y-60984583D01*
X149650880Y-60984582D01*
X149384398Y-60949500D01*
X149384397Y-60949500D01*
X149115603Y-60949500D01*
X149115602Y-60949500D01*
X148849119Y-60984582D01*
X148849112Y-60984583D01*
X148849109Y-60984584D01*
X148794239Y-60999286D01*
X148589475Y-61054152D01*
X148341149Y-61157011D01*
X148341133Y-61157019D01*
X148108354Y-61291416D01*
X147895111Y-61455042D01*
X147895104Y-61455048D01*
X147705048Y-61645104D01*
X147705042Y-61645111D01*
X147541416Y-61858354D01*
X147407019Y-62091133D01*
X147407011Y-62091149D01*
X147304152Y-62339475D01*
X147234585Y-62599106D01*
X147234582Y-62599119D01*
X147199500Y-62865602D01*
X136402864Y-62865602D01*
X136353461Y-62847176D01*
X136353460Y-62847175D01*
X136353458Y-62847175D01*
X136293848Y-62840766D01*
X136293838Y-62840766D01*
X135898105Y-62840766D01*
X135898094Y-62840767D01*
X135859228Y-62844945D01*
X135832723Y-62844945D01*
X135793849Y-62840766D01*
X135398105Y-62840766D01*
X135398094Y-62840767D01*
X135359228Y-62844945D01*
X135332723Y-62844945D01*
X135293849Y-62840766D01*
X134898105Y-62840766D01*
X134898094Y-62840767D01*
X134859228Y-62844945D01*
X134832723Y-62844945D01*
X134793849Y-62840766D01*
X134398105Y-62840766D01*
X134398094Y-62840767D01*
X134359228Y-62844945D01*
X134332723Y-62844945D01*
X134293849Y-62840766D01*
X133898105Y-62840766D01*
X133898094Y-62840767D01*
X133859228Y-62844945D01*
X133832723Y-62844945D01*
X133793849Y-62840766D01*
X133398105Y-62840766D01*
X133398094Y-62840767D01*
X133359228Y-62844945D01*
X133332723Y-62844945D01*
X133293849Y-62840766D01*
X132898105Y-62840766D01*
X132898094Y-62840767D01*
X132859228Y-62844945D01*
X132832723Y-62844945D01*
X132793849Y-62840766D01*
X132398104Y-62840766D01*
X132398098Y-62840767D01*
X132338491Y-62847174D01*
X132203646Y-62897468D01*
X132203639Y-62897472D01*
X132088430Y-62983718D01*
X132088427Y-62983721D01*
X132002181Y-63098930D01*
X132002177Y-63098937D01*
X131951883Y-63233783D01*
X131945476Y-63293382D01*
X131945476Y-63293389D01*
X131945475Y-63293401D01*
X131945475Y-64189136D01*
X131945476Y-64189142D01*
X131951883Y-64248749D01*
X131987657Y-64344661D01*
X131995475Y-64387994D01*
X131995475Y-66166914D01*
X131995474Y-66166918D01*
X131995474Y-66325032D01*
X131999166Y-66338812D01*
X131999474Y-66353850D01*
X131999266Y-66354612D01*
X131999500Y-66356382D01*
X131999500Y-74013330D01*
X131999499Y-74013348D01*
X131999499Y-74179054D01*
X131999498Y-74179054D01*
X132038231Y-74323607D01*
X132040423Y-74331785D01*
X132064928Y-74374228D01*
X132119479Y-74468714D01*
X132119481Y-74468717D01*
X132238349Y-74587585D01*
X132238355Y-74587590D01*
X137440139Y-79789374D01*
X137440149Y-79789385D01*
X137444479Y-79793715D01*
X137444480Y-79793716D01*
X137556284Y-79905520D01*
X137635221Y-79951094D01*
X137693215Y-79984577D01*
X137845942Y-80025500D01*
X137845943Y-80025500D01*
X143587125Y-80025500D01*
X143654164Y-80045185D01*
X143699919Y-80097989D01*
X143708742Y-80125308D01*
X143730261Y-80233491D01*
X143730264Y-80233501D01*
X143790602Y-80379172D01*
X143790609Y-80379185D01*
X143878210Y-80510288D01*
X143878213Y-80510292D01*
X143989707Y-80621786D01*
X143989711Y-80621789D01*
X144120814Y-80709390D01*
X144120827Y-80709397D01*
X144258683Y-80766498D01*
X144266503Y-80769737D01*
X144421153Y-80800499D01*
X144421156Y-80800500D01*
X144421158Y-80800500D01*
X144578844Y-80800500D01*
X144578845Y-80800499D01*
X144733497Y-80769737D01*
X144879179Y-80709394D01*
X145010289Y-80621789D01*
X145121789Y-80510289D01*
X145209394Y-80379179D01*
X145269737Y-80233497D01*
X145292163Y-80120755D01*
X145300638Y-80078150D01*
X145333023Y-80016239D01*
X145334516Y-80014718D01*
X145987819Y-79361417D01*
X146049142Y-79327932D01*
X146118834Y-79332916D01*
X146174767Y-79374788D01*
X146199184Y-79440252D01*
X146199500Y-79449098D01*
X146199500Y-79458846D01*
X146230261Y-79613489D01*
X146230264Y-79613501D01*
X146290602Y-79759172D01*
X146290609Y-79759185D01*
X146378210Y-79890288D01*
X146378213Y-79890292D01*
X146489707Y-80001786D01*
X146489711Y-80001789D01*
X146620814Y-80089390D01*
X146620827Y-80089397D01*
X146766498Y-80149735D01*
X146766503Y-80149737D01*
X146915844Y-80179443D01*
X146921153Y-80180499D01*
X146921156Y-80180500D01*
X146921158Y-80180500D01*
X147078844Y-80180500D01*
X147078845Y-80180499D01*
X147233497Y-80149737D01*
X147379179Y-80089394D01*
X147510289Y-80001789D01*
X147551374Y-79960704D01*
X147612697Y-79927218D01*
X147682388Y-79932202D01*
X147726738Y-79960704D01*
X147762448Y-79996415D01*
X147762452Y-79996418D01*
X147893555Y-80084019D01*
X147893568Y-80084026D01*
X148039239Y-80144364D01*
X148039244Y-80144366D01*
X148166214Y-80169622D01*
X148193894Y-80175128D01*
X148193897Y-80175129D01*
X148193899Y-80175129D01*
X148351585Y-80175129D01*
X148351586Y-80175128D01*
X148506238Y-80144366D01*
X148651920Y-80084023D01*
X148783030Y-79996418D01*
X148828707Y-79950740D01*
X148890027Y-79917255D01*
X148959719Y-79922238D01*
X149004069Y-79950740D01*
X149044238Y-79990909D01*
X149044242Y-79990912D01*
X149175345Y-80078513D01*
X149175358Y-80078520D01*
X149301867Y-80130921D01*
X149321034Y-80138860D01*
X149475684Y-80169622D01*
X149475687Y-80169623D01*
X149475689Y-80169623D01*
X149633375Y-80169623D01*
X149633376Y-80169622D01*
X149788028Y-80138860D01*
X149920427Y-80084019D01*
X149933703Y-80078520D01*
X149933703Y-80078519D01*
X149933710Y-80078517D01*
X150064820Y-79990912D01*
X150176320Y-79879412D01*
X150263925Y-79748302D01*
X150324268Y-79602620D01*
X150352758Y-79459394D01*
X150355031Y-79447966D01*
X150355031Y-79290278D01*
X150355030Y-79290276D01*
X150334002Y-79184561D01*
X150324268Y-79135626D01*
X150306604Y-79092980D01*
X150261594Y-78984315D01*
X150264184Y-78983241D01*
X150252384Y-78926626D01*
X150269255Y-78873425D01*
X150283424Y-78849465D01*
X150291744Y-78835398D01*
X150335072Y-78686265D01*
X150337597Y-78677573D01*
X150337598Y-78677567D01*
X150337935Y-78673283D01*
X150340500Y-78640694D01*
X150340500Y-77739097D01*
X150360185Y-77672058D01*
X150412989Y-77626303D01*
X150482147Y-77616359D01*
X150545703Y-77645384D01*
X150552181Y-77651416D01*
X151063181Y-78162416D01*
X151096666Y-78223739D01*
X151099500Y-78250097D01*
X151099500Y-80494702D01*
X151099499Y-80494720D01*
X151099499Y-80660426D01*
X151099498Y-80660426D01*
X151137031Y-80800500D01*
X151140423Y-80813157D01*
X151163540Y-80853196D01*
X151213411Y-80939576D01*
X151219479Y-80950086D01*
X151219481Y-80950089D01*
X151338349Y-81068957D01*
X151338355Y-81068962D01*
X153737495Y-83468101D01*
X153770980Y-83529424D01*
X153773814Y-83555782D01*
X153773814Y-94017644D01*
X153773813Y-94017662D01*
X153773813Y-94183368D01*
X153773812Y-94183368D01*
X153790076Y-94244064D01*
X153814737Y-94336099D01*
X153833569Y-94368716D01*
X153873719Y-94438258D01*
X153893793Y-94473029D01*
X154012663Y-94591899D01*
X154012669Y-94591904D01*
X156416241Y-96995476D01*
X156449726Y-97056799D01*
X156446492Y-97121473D01*
X156432753Y-97163757D01*
X156399500Y-97373713D01*
X156399500Y-97586286D01*
X156432753Y-97796239D01*
X156498444Y-97998414D01*
X156594951Y-98187820D01*
X156719890Y-98359786D01*
X156870213Y-98510109D01*
X157042182Y-98635050D01*
X157050946Y-98639516D01*
X157101742Y-98687491D01*
X157118536Y-98755312D01*
X157095998Y-98821447D01*
X157050946Y-98860484D01*
X157042182Y-98864949D01*
X156870213Y-98989890D01*
X156719890Y-99140213D01*
X156594951Y-99312179D01*
X156498445Y-99501582D01*
X156498443Y-99501587D01*
X156498443Y-99501588D01*
X156492429Y-99520094D01*
X156452992Y-99577768D01*
X156388633Y-99604965D01*
X156319787Y-99593050D01*
X156268312Y-99545805D01*
X156250500Y-99481773D01*
X156250500Y-98684110D01*
X156250500Y-98684108D01*
X156240132Y-98645417D01*
X156237355Y-98635050D01*
X156216392Y-98556814D01*
X156205654Y-98538215D01*
X156150500Y-98442686D01*
X156057314Y-98349500D01*
X156057313Y-98349499D01*
X156052983Y-98345169D01*
X156052972Y-98345159D01*
X152284518Y-94576704D01*
X152270067Y-94550240D01*
X152253538Y-94525017D01*
X152252466Y-94518005D01*
X152251033Y-94515381D01*
X152248204Y-94490128D01*
X152247593Y-94421583D01*
X152246162Y-94261049D01*
X152246822Y-94247130D01*
X152247139Y-94244075D01*
X152247142Y-94244064D01*
X152245494Y-94183877D01*
X152245456Y-94181716D01*
X152244920Y-94121540D01*
X152244918Y-94121535D01*
X152244490Y-94118489D01*
X152243325Y-94104602D01*
X152232199Y-93698043D01*
X152233240Y-93693283D01*
X152230397Y-93632223D01*
X152228727Y-93571175D01*
X152228725Y-93571171D01*
X152228168Y-93567677D01*
X152226750Y-93553897D01*
X152208925Y-93170954D01*
X152209907Y-93165997D01*
X152205865Y-93105214D01*
X152203033Y-93044361D01*
X152203031Y-93044355D01*
X152202322Y-93040402D01*
X152200648Y-93026747D01*
X152176228Y-92659456D01*
X152177140Y-92654293D01*
X152171860Y-92593769D01*
X152167833Y-92533191D01*
X152167830Y-92533183D01*
X152166945Y-92528749D01*
X152165010Y-92515233D01*
X152134866Y-92169652D01*
X152135697Y-92164281D01*
X152129147Y-92104085D01*
X152123887Y-92043780D01*
X152123880Y-92043760D01*
X152122796Y-92038860D01*
X152120592Y-92025471D01*
X152084580Y-91694497D01*
X152085318Y-91688914D01*
X152077462Y-91629080D01*
X152070935Y-91569085D01*
X152070933Y-91569079D01*
X152069615Y-91563676D01*
X152067137Y-91550433D01*
X152026294Y-91239316D01*
X152026925Y-91233517D01*
X152017728Y-91174065D01*
X152009900Y-91114437D01*
X152009897Y-91114431D01*
X152008322Y-91108540D01*
X152005565Y-91095443D01*
X151995053Y-91027491D01*
X151959539Y-90797920D01*
X151960050Y-90791903D01*
X151949478Y-90732881D01*
X151940316Y-90673651D01*
X151940314Y-90673648D01*
X151938449Y-90667266D01*
X151935410Y-90654340D01*
X151885351Y-90374846D01*
X151885726Y-90368613D01*
X151873749Y-90310068D01*
X151863218Y-90251271D01*
X151863218Y-90251270D01*
X151861028Y-90244391D01*
X151857704Y-90231642D01*
X151803107Y-89964762D01*
X151803331Y-89958313D01*
X151789924Y-89900321D01*
X151777989Y-89841979D01*
X151777988Y-89841978D01*
X151775437Y-89834595D01*
X151771825Y-89822033D01*
X151715655Y-89579060D01*
X151713893Y-89571436D01*
X151713949Y-89564772D01*
X151699067Y-89507306D01*
X151685710Y-89449528D01*
X151685708Y-89449524D01*
X151682858Y-89441908D01*
X151683656Y-89441609D01*
X151678900Y-89429437D01*
X151616994Y-89190384D01*
X151616866Y-89183511D01*
X151600504Y-89126710D01*
X151585680Y-89069465D01*
X151585677Y-89069461D01*
X151582633Y-89061933D01*
X151583370Y-89061634D01*
X151578243Y-89049427D01*
X151546783Y-88940208D01*
X151513479Y-88824588D01*
X151513150Y-88817515D01*
X151495276Y-88761393D01*
X151478964Y-88704763D01*
X151478961Y-88704758D01*
X151478961Y-88704757D01*
X151475714Y-88697313D01*
X151476410Y-88697009D01*
X151470884Y-88684807D01*
X151422076Y-88531557D01*
X151402613Y-88470444D01*
X151402066Y-88463174D01*
X151382653Y-88407771D01*
X151364835Y-88351823D01*
X151364834Y-88351821D01*
X151361378Y-88344466D01*
X151362035Y-88344157D01*
X151356096Y-88331979D01*
X151348431Y-88310104D01*
X151285378Y-88130149D01*
X151284595Y-88122695D01*
X151263620Y-88068052D01*
X151244278Y-88012850D01*
X151244276Y-88012847D01*
X151240614Y-88005599D01*
X151241229Y-88005288D01*
X151234871Y-87993157D01*
X151232822Y-87987820D01*
X151161087Y-87800938D01*
X151160052Y-87793314D01*
X151137520Y-87739542D01*
X151116620Y-87685093D01*
X151116619Y-87685092D01*
X151116618Y-87685088D01*
X151112741Y-87677948D01*
X151113316Y-87677635D01*
X151106523Y-87665568D01*
X151030553Y-87484263D01*
X151029250Y-87476485D01*
X151005127Y-87423585D01*
X150982670Y-87369989D01*
X150982666Y-87369984D01*
X150978575Y-87362963D01*
X150979112Y-87362649D01*
X150971882Y-87350678D01*
X150893234Y-87178202D01*
X150891648Y-87170287D01*
X150865940Y-87118345D01*
X150841906Y-87065639D01*
X150841902Y-87065634D01*
X150837599Y-87058751D01*
X150838097Y-87058439D01*
X150830419Y-87046577D01*
X150756010Y-86896238D01*
X150756010Y-86896237D01*
X150749675Y-86883439D01*
X150747795Y-86875417D01*
X150720507Y-86824508D01*
X150694876Y-86772722D01*
X150694873Y-86772718D01*
X150690351Y-86765972D01*
X150690814Y-86765661D01*
X150682683Y-86753942D01*
X150652563Y-86697750D01*
X150599580Y-86598903D01*
X150597391Y-86590784D01*
X150568514Y-86540947D01*
X150541296Y-86490167D01*
X150541294Y-86490165D01*
X150536552Y-86483563D01*
X150536982Y-86483253D01*
X150528397Y-86471710D01*
X150510147Y-86440213D01*
X150443123Y-86324537D01*
X150440619Y-86316354D01*
X150410153Y-86267634D01*
X150381346Y-86217916D01*
X150381343Y-86217913D01*
X150376388Y-86211476D01*
X150376789Y-86211166D01*
X150367756Y-86199834D01*
X150280358Y-86060070D01*
X150277531Y-86051848D01*
X150245496Y-86004319D01*
X150215099Y-85955708D01*
X150215096Y-85955705D01*
X150215094Y-85955702D01*
X150209925Y-85949434D01*
X150210295Y-85949128D01*
X150200816Y-85938027D01*
X150118888Y-85816472D01*
X150118888Y-85816471D01*
X150110982Y-85804741D01*
X150107830Y-85796515D01*
X150074230Y-85750214D01*
X150042255Y-85702773D01*
X150042254Y-85702772D01*
X150036874Y-85696687D01*
X150037220Y-85696380D01*
X150027300Y-85685544D01*
X149932904Y-85555464D01*
X149927468Y-85543248D01*
X149894315Y-85502287D01*
X149892391Y-85499636D01*
X149892390Y-85499635D01*
X149863356Y-85459627D01*
X149863351Y-85459623D01*
X149863074Y-85459398D01*
X149844781Y-85441090D01*
X149729297Y-85298412D01*
X149563941Y-85094117D01*
X149555433Y-85078164D01*
X149522628Y-85043075D01*
X149492406Y-85005736D01*
X149492404Y-85005734D01*
X149492403Y-85005733D01*
X149487359Y-85002067D01*
X149469690Y-84986451D01*
X149460149Y-84976246D01*
X149166602Y-84662259D01*
X149156906Y-84646854D01*
X149121751Y-84614286D01*
X149089032Y-84579288D01*
X149083604Y-84575906D01*
X149064915Y-84561631D01*
X148750398Y-84270252D01*
X148741717Y-84262210D01*
X148730979Y-84247585D01*
X148693541Y-84217578D01*
X148690288Y-84214564D01*
X148658358Y-84184983D01*
X148658346Y-84184974D01*
X148652767Y-84182031D01*
X148633079Y-84169117D01*
X148297246Y-83899946D01*
X148297246Y-83899945D01*
X148287965Y-83892507D01*
X148276379Y-83878861D01*
X148236723Y-83851437D01*
X148233296Y-83848690D01*
X148199108Y-83821289D01*
X148199100Y-83821284D01*
X148193594Y-83818866D01*
X148172936Y-83807325D01*
X148089883Y-83749890D01*
X147803604Y-83551916D01*
X147791393Y-83539398D01*
X147749607Y-83514574D01*
X147746083Y-83512137D01*
X147746082Y-83512136D01*
X147709606Y-83486912D01*
X147709603Y-83486910D01*
X147709602Y-83486910D01*
X147704412Y-83485055D01*
X147682815Y-83474896D01*
X147296810Y-83245585D01*
X147286378Y-83239388D01*
X147273787Y-83228095D01*
X147229911Y-83205844D01*
X147226341Y-83203723D01*
X147226340Y-83203722D01*
X147187623Y-83180722D01*
X147187621Y-83180721D01*
X147187619Y-83180720D01*
X147187615Y-83180719D01*
X147187613Y-83180718D01*
X147183020Y-83179426D01*
X147160519Y-83170653D01*
X146923591Y-83050499D01*
X146733382Y-82954038D01*
X146720667Y-82944020D01*
X146674808Y-82924333D01*
X146671281Y-82922544D01*
X146671280Y-82922543D01*
X146630292Y-82901757D01*
X146630289Y-82901756D01*
X146630286Y-82901755D01*
X146630281Y-82901754D01*
X146626488Y-82900955D01*
X146603131Y-82893562D01*
X146552406Y-82871786D01*
X146140912Y-82695135D01*
X146128315Y-82686390D01*
X146080546Y-82669220D01*
X146077098Y-82667740D01*
X146077091Y-82667737D01*
X146059680Y-82660263D01*
X146033906Y-82649198D01*
X146033895Y-82649195D01*
X146031114Y-82648793D01*
X146006943Y-82642764D01*
X145516157Y-82466361D01*
X145504139Y-82462041D01*
X145491900Y-82454533D01*
X145442329Y-82439824D01*
X145439028Y-82438638D01*
X145439017Y-82438635D01*
X145393640Y-82422325D01*
X145393638Y-82422324D01*
X145392038Y-82422191D01*
X145367091Y-82417499D01*
X144829218Y-82257905D01*
X144816725Y-82254198D01*
X144805051Y-82247853D01*
X144753745Y-82235510D01*
X144750630Y-82234586D01*
X144750628Y-82234585D01*
X144703130Y-82220492D01*
X144703113Y-82220490D01*
X144702850Y-82220483D01*
X144677175Y-82217089D01*
X144082934Y-82074138D01*
X144082933Y-82074138D01*
X144069979Y-82071021D01*
X144059077Y-82065753D01*
X144006087Y-82055651D01*
X144003216Y-82054960D01*
X144003214Y-82054959D01*
X143953627Y-82043031D01*
X143948245Y-82042463D01*
X143928434Y-82040848D01*
X143264838Y-81914350D01*
X143264836Y-81914349D01*
X143251429Y-81911793D01*
X143241507Y-81907509D01*
X143186885Y-81899488D01*
X143184272Y-81898990D01*
X143184262Y-81898989D01*
X143132599Y-81889142D01*
X143124486Y-81888675D01*
X143124493Y-81888538D01*
X143108324Y-81887952D01*
X142355564Y-81777423D01*
X142355564Y-81777422D01*
X142341699Y-81775386D01*
X142333006Y-81772006D01*
X142276670Y-81765838D01*
X142274400Y-81765505D01*
X142274395Y-81765505D01*
X142247786Y-81761598D01*
X142220547Y-81757598D01*
X142212430Y-81757478D01*
X142212435Y-81757102D01*
X142197353Y-81757154D01*
X141321272Y-81661239D01*
X141306895Y-81659665D01*
X141299807Y-81657148D01*
X141241511Y-81652507D01*
X141239665Y-81652304D01*
X141239664Y-81652304D01*
X141183375Y-81646141D01*
X141175258Y-81646319D01*
X141175243Y-81645637D01*
X141161531Y-81646139D01*
X140087074Y-81560600D01*
X140074652Y-81559611D01*
X140070184Y-81558117D01*
X140009071Y-81554390D01*
X140007925Y-81554298D01*
X139947985Y-81549527D01*
X139944823Y-81549690D01*
X139930907Y-81549624D01*
X138575655Y-81466991D01*
X138575655Y-81466990D01*
X138567303Y-81466480D01*
X138566944Y-81466362D01*
X138501711Y-81462483D01*
X138501497Y-81462470D01*
X138501463Y-81462468D01*
X138501458Y-81462468D01*
X138496246Y-81462150D01*
X138429146Y-81458059D01*
X138427441Y-81458067D01*
X137367560Y-81395056D01*
X137365988Y-81394953D01*
X136253495Y-81314617D01*
X136250276Y-81314342D01*
X135164153Y-81207402D01*
X135160633Y-81207005D01*
X135117217Y-81201474D01*
X135036245Y-81191158D01*
X134636049Y-81140175D01*
X134633080Y-81139760D01*
X134116808Y-81061264D01*
X134113345Y-81060687D01*
X133609145Y-80969354D01*
X133605167Y-80968566D01*
X133114197Y-80862940D01*
X133109691Y-80861883D01*
X132632926Y-80740533D01*
X132627885Y-80739136D01*
X132166443Y-80600721D01*
X132160875Y-80598906D01*
X131715766Y-80442127D01*
X131709699Y-80439810D01*
X131281622Y-80263328D01*
X131275108Y-80260420D01*
X130864885Y-80062981D01*
X130858008Y-80059403D01*
X130466097Y-79839617D01*
X130458975Y-79835302D01*
X130085776Y-79591720D01*
X130078560Y-79586635D01*
X129907247Y-79456544D01*
X129724264Y-79317591D01*
X129717131Y-79311743D01*
X129716073Y-79310808D01*
X129381892Y-79015381D01*
X129375034Y-79008834D01*
X129054673Y-78678592D01*
X129049815Y-78673283D01*
X128902951Y-78503137D01*
X128899871Y-78499426D01*
X128869111Y-78460853D01*
X128753952Y-78316443D01*
X128751112Y-78312737D01*
X128610092Y-78121104D01*
X128607360Y-78117236D01*
X128581323Y-78078842D01*
X128471418Y-77916775D01*
X128468849Y-77912828D01*
X128455671Y-77891706D01*
X128337965Y-77703045D01*
X128335622Y-77699126D01*
X128209941Y-77479758D01*
X128207773Y-77475807D01*
X128094644Y-77260292D01*
X128087417Y-77246524D01*
X128085408Y-77242523D01*
X128048304Y-77165176D01*
X128048303Y-77165172D01*
X128024524Y-77115602D01*
X129449500Y-77115602D01*
X129449500Y-77384397D01*
X129484582Y-77650880D01*
X129484583Y-77650885D01*
X129484584Y-77650891D01*
X129498569Y-77703083D01*
X129554152Y-77910524D01*
X129657011Y-78158850D01*
X129657019Y-78158866D01*
X129737830Y-78298832D01*
X129791413Y-78391641D01*
X129791415Y-78391644D01*
X129791416Y-78391645D01*
X129955042Y-78604888D01*
X129955048Y-78604895D01*
X130145104Y-78794951D01*
X130145111Y-78794957D01*
X130223000Y-78854723D01*
X130358359Y-78958587D01*
X130507968Y-79044964D01*
X130591133Y-79092980D01*
X130591149Y-79092988D01*
X130706224Y-79140653D01*
X130839474Y-79195847D01*
X131099109Y-79265416D01*
X131287319Y-79290193D01*
X131365602Y-79300500D01*
X131365603Y-79300500D01*
X131634398Y-79300500D01*
X131712057Y-79290276D01*
X131900891Y-79265416D01*
X132160526Y-79195847D01*
X132368293Y-79109787D01*
X132408850Y-79092988D01*
X132408853Y-79092986D01*
X132408859Y-79092984D01*
X132641641Y-78958587D01*
X132854890Y-78794956D01*
X133044956Y-78604890D01*
X133208587Y-78391641D01*
X133342984Y-78158859D01*
X133345735Y-78152219D01*
X133368417Y-78097457D01*
X133445847Y-77910526D01*
X133515416Y-77650891D01*
X133550500Y-77384397D01*
X133550500Y-77115603D01*
X133549138Y-77105261D01*
X133515417Y-76849119D01*
X133515416Y-76849109D01*
X133445847Y-76589474D01*
X133400656Y-76480373D01*
X133342988Y-76341149D01*
X133342980Y-76341133D01*
X133282542Y-76236453D01*
X133208587Y-76108359D01*
X133086585Y-75949362D01*
X133044957Y-75895111D01*
X133044951Y-75895104D01*
X132854895Y-75705048D01*
X132854888Y-75705042D01*
X132641645Y-75541416D01*
X132641644Y-75541415D01*
X132641641Y-75541413D01*
X132526406Y-75474882D01*
X132408866Y-75407019D01*
X132408850Y-75407011D01*
X132160524Y-75304152D01*
X132030708Y-75269368D01*
X131900891Y-75234584D01*
X131900885Y-75234583D01*
X131900880Y-75234582D01*
X131634398Y-75199500D01*
X131634397Y-75199500D01*
X131365603Y-75199500D01*
X131365602Y-75199500D01*
X131099119Y-75234582D01*
X131099112Y-75234583D01*
X131099109Y-75234584D01*
X131047726Y-75248352D01*
X130839475Y-75304152D01*
X130591149Y-75407011D01*
X130591133Y-75407019D01*
X130358354Y-75541416D01*
X130145111Y-75705042D01*
X130145104Y-75705048D01*
X129955048Y-75895104D01*
X129955042Y-75895111D01*
X129791416Y-76108354D01*
X129657019Y-76341133D01*
X129657011Y-76341149D01*
X129554152Y-76589475D01*
X129512436Y-76745163D01*
X129488087Y-76836038D01*
X129484585Y-76849106D01*
X129484582Y-76849119D01*
X129449500Y-77115602D01*
X128024524Y-77115602D01*
X127970529Y-77003045D01*
X127968709Y-76999074D01*
X127961901Y-76983497D01*
X127859434Y-76749056D01*
X127857811Y-76745163D01*
X127853155Y-76733428D01*
X127754263Y-76484208D01*
X127752826Y-76480402D01*
X127655226Y-76208354D01*
X127653940Y-76204577D01*
X127647222Y-76183765D01*
X127562449Y-75921124D01*
X127561321Y-75917433D01*
X127551560Y-75883623D01*
X127476080Y-75622173D01*
X127475106Y-75618596D01*
X127473084Y-75610711D01*
X127397454Y-75315754D01*
X127396241Y-75310562D01*
X127394889Y-75304152D01*
X127257882Y-74654823D01*
X127256691Y-74648322D01*
X127250842Y-74610772D01*
X127147364Y-73946394D01*
X127146577Y-73940370D01*
X127140761Y-73885393D01*
X127066768Y-73185926D01*
X127066308Y-73180378D01*
X127065677Y-73169933D01*
X127017425Y-72371658D01*
X127017225Y-72366647D01*
X127000523Y-71496411D01*
X127000500Y-71494032D01*
X127000500Y-62753750D01*
X127000726Y-62746263D01*
X127009348Y-62603720D01*
X127018271Y-62456201D01*
X127020076Y-62441340D01*
X127071780Y-62159202D01*
X127075364Y-62144664D01*
X127076267Y-62141766D01*
X127160699Y-61870812D01*
X127165997Y-61856842D01*
X127283727Y-61595258D01*
X127290680Y-61582012D01*
X127367434Y-61455044D01*
X127439075Y-61336534D01*
X127447567Y-61324230D01*
X127624481Y-61098417D01*
X127634396Y-61087226D01*
X127837226Y-60884396D01*
X127848417Y-60874481D01*
X128074230Y-60697567D01*
X128086534Y-60689075D01*
X128332012Y-60540680D01*
X128345258Y-60533727D01*
X128606842Y-60415997D01*
X128620812Y-60410699D01*
X128894668Y-60325362D01*
X128909198Y-60321780D01*
X129191344Y-60270075D01*
X129206201Y-60268271D01*
X129496264Y-60250726D01*
X129503751Y-60250500D01*
X129565892Y-60250500D01*
X130977414Y-60250500D01*
X131044453Y-60270185D01*
G37*
%TD.AperFunction*%
%TA.AperFunction,Conductor*%
G36*
X157284075Y-128152993D02*
G01*
X157349901Y-128267007D01*
X157442993Y-128360099D01*
X157557007Y-128425925D01*
X157620590Y-128442962D01*
X156988282Y-129075269D01*
X156988282Y-129075270D01*
X157042452Y-129114626D01*
X157042451Y-129114626D01*
X157051495Y-129119234D01*
X157102292Y-129167208D01*
X157119087Y-129235029D01*
X157096550Y-129301164D01*
X157051499Y-129340202D01*
X157042182Y-129344949D01*
X156870213Y-129469890D01*
X156719890Y-129620213D01*
X156594951Y-129792179D01*
X156498445Y-129981582D01*
X156498443Y-129981587D01*
X156498443Y-129981588D01*
X156492429Y-130000094D01*
X156452992Y-130057768D01*
X156388633Y-130084965D01*
X156319787Y-130073050D01*
X156268312Y-130025805D01*
X156250500Y-129961773D01*
X156250500Y-128496611D01*
X156270185Y-128429572D01*
X156322989Y-128383817D01*
X156392147Y-128373873D01*
X156455703Y-128402898D01*
X156492432Y-128458294D01*
X156498906Y-128478221D01*
X156595375Y-128667550D01*
X156634728Y-128721716D01*
X157267037Y-128089408D01*
X157284075Y-128152993D01*
G37*
%TD.AperFunction*%
%TA.AperFunction,Conductor*%
G36*
X156455703Y-125864513D02*
G01*
X156492431Y-125919908D01*
X156498444Y-125938414D01*
X156594951Y-126127820D01*
X156719890Y-126299786D01*
X156870213Y-126450109D01*
X157042179Y-126575048D01*
X157042181Y-126575049D01*
X157042184Y-126575051D01*
X157051493Y-126579794D01*
X157102290Y-126627766D01*
X157119087Y-126695587D01*
X157096552Y-126761722D01*
X157051505Y-126800760D01*
X157042446Y-126805376D01*
X157042440Y-126805380D01*
X156988282Y-126844727D01*
X156988282Y-126844728D01*
X157620591Y-127477037D01*
X157557007Y-127494075D01*
X157442993Y-127559901D01*
X157349901Y-127652993D01*
X157284075Y-127767007D01*
X157267037Y-127830591D01*
X156634728Y-127198282D01*
X156634727Y-127198282D01*
X156595380Y-127252439D01*
X156498904Y-127441782D01*
X156492431Y-127461706D01*
X156452994Y-127519381D01*
X156388635Y-127546580D01*
X156319789Y-127534665D01*
X156268313Y-127487421D01*
X156250500Y-127423388D01*
X156250500Y-125958226D01*
X156270185Y-125891187D01*
X156322989Y-125845432D01*
X156392147Y-125835488D01*
X156455703Y-125864513D01*
G37*
%TD.AperFunction*%
%TA.AperFunction,Conductor*%
G36*
X167403039Y-74769685D02*
G01*
X167448794Y-74822489D01*
X167460000Y-74874000D01*
X167460000Y-75500000D01*
X167635263Y-75500000D01*
X167702302Y-75519685D01*
X167748057Y-75572489D01*
X167758001Y-75641647D01*
X167728976Y-75705203D01*
X167697263Y-75731387D01*
X167631287Y-75769477D01*
X167631282Y-75769481D01*
X167437083Y-75963681D01*
X167410155Y-75978384D01*
X167384337Y-75994977D01*
X167378136Y-75995868D01*
X167375760Y-75997166D01*
X167349402Y-76000000D01*
X167334000Y-76000000D01*
X167266961Y-75980315D01*
X167221206Y-75927511D01*
X167210000Y-75876000D01*
X167210000Y-75750000D01*
X167154500Y-75750000D01*
X167087461Y-75730315D01*
X167041706Y-75677511D01*
X167030500Y-75626000D01*
X167030500Y-75515317D01*
X167030499Y-75515302D01*
X167029362Y-75500858D01*
X167027643Y-75479007D01*
X167026939Y-75476585D01*
X166982495Y-75323608D01*
X166982492Y-75323600D01*
X166977266Y-75314763D01*
X166972916Y-75298862D01*
X166965023Y-75286580D01*
X166960000Y-75251645D01*
X166960000Y-75248352D01*
X166977267Y-75185233D01*
X166982494Y-75176395D01*
X166999253Y-75118713D01*
X167027642Y-75020997D01*
X167027643Y-75020991D01*
X167030499Y-74984697D01*
X167030500Y-74984690D01*
X167030500Y-74874000D01*
X167033050Y-74865314D01*
X167031762Y-74856353D01*
X167042740Y-74832312D01*
X167050185Y-74806961D01*
X167057025Y-74801033D01*
X167060787Y-74792797D01*
X167083021Y-74778507D01*
X167102989Y-74761206D01*
X167113503Y-74758918D01*
X167119565Y-74755023D01*
X167154500Y-74750000D01*
X167336000Y-74750000D01*
X167403039Y-74769685D01*
G37*
%TD.AperFunction*%
%TA.AperFunction,Conductor*%
G36*
X155892539Y-74769685D02*
G01*
X155938294Y-74822489D01*
X155949500Y-74874000D01*
X155949500Y-74889229D01*
X155959115Y-74969298D01*
X155960000Y-74984082D01*
X155960000Y-75015919D01*
X155959115Y-75030703D01*
X155949500Y-75110770D01*
X155949500Y-75389229D01*
X155957594Y-75456634D01*
X155957594Y-75456636D01*
X155959786Y-75474882D01*
X155986614Y-75542913D01*
X156016649Y-75619076D01*
X156015044Y-75619708D01*
X156028457Y-75677890D01*
X156004853Y-75743651D01*
X155980169Y-75768944D01*
X155979476Y-75769475D01*
X155921681Y-75827271D01*
X155860358Y-75860756D01*
X155790666Y-75855772D01*
X155734733Y-75813900D01*
X155711434Y-75751434D01*
X155710000Y-75750000D01*
X155654500Y-75750000D01*
X155587461Y-75730315D01*
X155541706Y-75677511D01*
X155530500Y-75626000D01*
X155530500Y-75515317D01*
X155530499Y-75515302D01*
X155529362Y-75500858D01*
X155527643Y-75479007D01*
X155526939Y-75476585D01*
X155482495Y-75323608D01*
X155482492Y-75323600D01*
X155477266Y-75314763D01*
X155472916Y-75298862D01*
X155465023Y-75286580D01*
X155460000Y-75251645D01*
X155460000Y-75248352D01*
X155477267Y-75185233D01*
X155482494Y-75176395D01*
X155499253Y-75118713D01*
X155527642Y-75020997D01*
X155527643Y-75020991D01*
X155530499Y-74984697D01*
X155530500Y-74984690D01*
X155530500Y-74874000D01*
X155533050Y-74865314D01*
X155531762Y-74856353D01*
X155542740Y-74832312D01*
X155550185Y-74806961D01*
X155557025Y-74801033D01*
X155560787Y-74792797D01*
X155583021Y-74778507D01*
X155602989Y-74761206D01*
X155613503Y-74758918D01*
X155619565Y-74755023D01*
X155654500Y-74750000D01*
X155825500Y-74750000D01*
X155892539Y-74769685D01*
G37*
%TD.AperFunction*%
%TA.AperFunction,Conductor*%
G36*
X135401678Y-65612337D02*
G01*
X135408156Y-65618369D01*
X135510650Y-65720863D01*
X135587888Y-65765456D01*
X135647581Y-65799920D01*
X135800309Y-65840843D01*
X135958423Y-65840843D01*
X136443873Y-65840843D01*
X136510912Y-65860528D01*
X136531554Y-65877162D01*
X141283181Y-70628789D01*
X141316666Y-70690112D01*
X141319500Y-70716470D01*
X141319500Y-71309673D01*
X141299815Y-71376712D01*
X141247011Y-71422467D01*
X141177853Y-71432411D01*
X141132380Y-71416406D01*
X141060194Y-71373716D01*
X140902494Y-71327900D01*
X140902497Y-71327900D01*
X140900000Y-71327703D01*
X140900000Y-72676000D01*
X140880315Y-72743039D01*
X140827511Y-72788794D01*
X140776000Y-72800000D01*
X140524000Y-72800000D01*
X140456961Y-72780315D01*
X140411206Y-72727511D01*
X140400000Y-72676000D01*
X140400000Y-71327703D01*
X140397503Y-71327900D01*
X140239806Y-71373716D01*
X140239803Y-71373717D01*
X140098447Y-71457314D01*
X140098438Y-71457321D01*
X139982321Y-71573438D01*
X139982317Y-71573444D01*
X139917356Y-71683286D01*
X139866286Y-71730969D01*
X139797544Y-71743472D01*
X139732955Y-71716826D01*
X139722943Y-71707845D01*
X139660383Y-71645285D01*
X139660374Y-71645278D01*
X139521195Y-71562968D01*
X139521190Y-71562966D01*
X139365918Y-71517855D01*
X139365912Y-71517854D01*
X139345000Y-71516209D01*
X139345000Y-72171000D01*
X139325315Y-72238039D01*
X139272511Y-72283794D01*
X139221000Y-72295000D01*
X139095000Y-72295000D01*
X139095000Y-72350500D01*
X139075315Y-72417539D01*
X139022511Y-72463294D01*
X138971000Y-72474500D01*
X138860302Y-72474500D01*
X138824008Y-72477356D01*
X138824002Y-72477357D01*
X138668610Y-72522503D01*
X138668605Y-72522506D01*
X138659766Y-72527732D01*
X138596648Y-72545000D01*
X138290496Y-72545000D01*
X138332968Y-72691194D01*
X138344911Y-72711389D01*
X138362092Y-72779113D01*
X138344911Y-72837628D01*
X138332506Y-72858604D01*
X138332504Y-72858609D01*
X138287357Y-73014002D01*
X138287356Y-73014008D01*
X138284500Y-73050302D01*
X138284500Y-73459697D01*
X138287356Y-73495991D01*
X138287357Y-73495997D01*
X138332504Y-73651393D01*
X138336875Y-73658783D01*
X138354058Y-73726507D01*
X138344705Y-73769354D01*
X138326051Y-73814390D01*
X138326048Y-73814398D01*
X138295287Y-73969046D01*
X138295287Y-74025500D01*
X138275602Y-74092539D01*
X138222798Y-74138294D01*
X138171287Y-74149500D01*
X136365783Y-74149500D01*
X136298744Y-74129815D01*
X136278102Y-74113181D01*
X135236819Y-73071898D01*
X135203334Y-73010575D01*
X135200500Y-72984217D01*
X135200500Y-72045000D01*
X138290496Y-72045000D01*
X138845000Y-72045000D01*
X138845000Y-71516210D01*
X138844999Y-71516209D01*
X138824087Y-71517854D01*
X138824081Y-71517855D01*
X138668809Y-71562966D01*
X138668804Y-71562968D01*
X138529625Y-71645278D01*
X138529616Y-71645285D01*
X138415285Y-71759616D01*
X138415278Y-71759625D01*
X138332968Y-71898804D01*
X138290496Y-72045000D01*
X135200500Y-72045000D01*
X135200500Y-66170946D01*
X135199439Y-66162889D01*
X135199538Y-66162875D01*
X135196475Y-66139597D01*
X135196475Y-65706050D01*
X135216160Y-65639011D01*
X135268964Y-65593256D01*
X135338122Y-65583312D01*
X135401678Y-65612337D01*
G37*
%TD.AperFunction*%
%TD*%
M02*
