%TF.GenerationSoftware,KiCad,Pcbnew,10.0.3*%
%TF.CreationDate,2026-05-19T12:31:36+01:00*%
%TF.ProjectId,tactileskin,74616374-696c-4657-936b-696e2e6b6963,rev?*%
%TF.SameCoordinates,Original*%
%TF.FileFunction,Drillmap*%
%TF.FilePolarity,Positive*%
%FSLAX45Y45*%
G04 Gerber Fmt 4.5, Leading zero omitted, Abs format (unit mm)*
G04 Created by KiCad (PCBNEW 10.0.3) date 2026-05-19 12:31:36*
%MOMM*%
%LPD*%
G01*
G04 APERTURE LIST*
%ADD10C,0.050000*%
%ADD11C,0.200000*%
G04 APERTURE END LIST*
D10*
X12650000Y-6275000D02*
X12650000Y-7150000D01*
X12650000Y-6275000D02*
G75*
G02*
X12950000Y-5975000I300000J0D01*
G01*
X13250000Y-7725000D02*
G75*
G02*
X13050000Y-7725000I-100000J0D01*
G01*
X13050000Y-7725000D02*
G75*
G02*
X13250000Y-7725000I100000J0D01*
G01*
X15025000Y-6300000D02*
G75*
G02*
X14825000Y-6300000I-100000J0D01*
G01*
X14825000Y-6300000D02*
G75*
G02*
X15025000Y-6300000I100000J0D01*
G01*
X15175000Y-9475000D02*
X15174999Y-9472468D01*
X15174996Y-9469938D01*
X15174991Y-9467414D01*
X15174984Y-9464894D01*
X15174975Y-9462378D01*
X15174964Y-9459866D01*
X15174951Y-9457359D01*
X15174936Y-9454855D01*
X15174919Y-9452356D01*
X15174900Y-9449861D01*
X15174880Y-9447370D01*
X15174857Y-9444883D01*
X15174832Y-9442401D01*
X15174805Y-9439923D01*
X15174777Y-9437449D01*
X15174746Y-9434979D01*
X15174714Y-9432513D01*
X15174679Y-9430051D01*
X15174643Y-9427594D01*
X15174604Y-9425140D01*
X15174564Y-9422691D01*
X15174522Y-9420246D01*
X15174477Y-9417805D01*
X15174431Y-9415368D01*
X15174383Y-9412935D01*
X15174333Y-9410506D01*
X15174281Y-9408082D01*
X15174228Y-9405661D01*
X15174172Y-9403245D01*
X15174114Y-9400832D01*
X15174055Y-9398424D01*
X15173993Y-9396019D01*
X15173930Y-9393619D01*
X15173865Y-9391222D01*
X15173798Y-9388831D01*
X15173729Y-9386442D01*
X15173658Y-9384058D01*
X15173585Y-9381678D01*
X15173511Y-9379302D01*
X15173434Y-9376929D01*
X15173356Y-9374562D01*
X15173276Y-9372197D01*
X15173193Y-9369837D01*
X15173109Y-9367481D01*
X15173024Y-9365129D01*
X15172936Y-9362780D01*
X15172846Y-9360436D01*
X15172755Y-9358095D01*
X15172662Y-9355759D01*
X15172567Y-9353427D01*
X15172470Y-9351098D01*
X15172371Y-9348773D01*
X15172271Y-9346453D01*
X15172168Y-9344136D01*
X15172064Y-9341824D01*
X15171958Y-9339514D01*
X15171850Y-9337210D01*
X15171740Y-9334908D01*
X15171629Y-9332611D01*
X15171515Y-9330317D01*
X15171400Y-9328028D01*
X15171283Y-9325742D01*
X15171164Y-9323461D01*
X15171044Y-9321182D01*
X15170922Y-9318909D01*
X15170797Y-9316638D01*
X15170671Y-9314372D01*
X15170544Y-9312109D01*
X15170414Y-9309851D01*
X15170283Y-9307596D01*
X15170150Y-9305345D01*
X15170015Y-9303097D01*
X15169878Y-9300854D01*
X15169740Y-9298614D01*
X15169600Y-9296378D01*
X15169458Y-9294146D01*
X15169314Y-9291918D01*
X15169168Y-9289693D01*
X15169021Y-9287472D01*
X15168872Y-9285255D01*
X15168722Y-9283042D01*
X15168569Y-9280832D01*
X15168415Y-9278627D01*
X15168259Y-9276424D01*
X15168101Y-9274226D01*
X15167942Y-9272031D01*
X15167780Y-9269841D01*
X15167617Y-9267653D01*
X15167453Y-9265470D01*
X15167286Y-9263290D01*
X15167118Y-9261114D01*
X15166949Y-9258942D01*
X15166777Y-9256773D01*
X15166604Y-9254608D01*
X15166429Y-9252447D01*
X15166252Y-9250289D01*
X15166074Y-9248135D01*
X15165894Y-9245984D01*
X15165712Y-9243838D01*
X15165528Y-9241694D01*
X15165343Y-9239555D01*
X15165156Y-9237419D01*
X15164968Y-9235287D01*
X15164777Y-9233158D01*
X15164586Y-9231034D01*
X15164392Y-9228912D01*
X15164197Y-9226794D01*
X15164000Y-9224680D01*
X15163801Y-9222570D01*
X15163601Y-9220462D01*
X15163399Y-9218359D01*
X15163195Y-9216259D01*
X15162990Y-9214163D01*
X15162783Y-9212070D01*
X15162574Y-9209981D01*
X15162364Y-9207895D01*
X15162152Y-9205814D01*
X15161938Y-9203735D01*
X15161723Y-9201660D01*
X15161506Y-9199588D01*
X15161288Y-9197521D01*
X15161067Y-9195456D01*
X15160846Y-9193395D01*
X15160622Y-9191338D01*
X15160397Y-9189284D01*
X15160170Y-9187233D01*
X15159942Y-9185187D01*
X15159712Y-9183143D01*
X15159481Y-9181103D01*
X15159247Y-9179066D01*
X15159013Y-9177034D01*
X15158776Y-9175004D01*
X15158538Y-9172978D01*
X15158299Y-9170955D01*
X15158057Y-9168936D01*
X15157815Y-9166920D01*
X15157570Y-9164908D01*
X15157324Y-9162898D01*
X15157076Y-9160893D01*
X15156827Y-9158891D01*
X15156576Y-9156892D01*
X15156324Y-9154897D01*
X15156070Y-9152905D01*
X15155814Y-9150916D01*
X15155557Y-9148932D01*
X15155299Y-9146950D01*
X15155038Y-9144971D01*
X15154776Y-9142996D01*
X15154513Y-9141025D01*
X15154248Y-9139056D01*
X15153981Y-9137092D01*
X15153713Y-9135130D01*
X15153443Y-9133172D01*
X15153172Y-9131217D01*
X15152899Y-9129265D01*
X15152625Y-9127317D01*
X15152349Y-9125372D01*
X15152072Y-9123430D01*
X15151793Y-9121492D01*
X15151512Y-9119557D01*
X15151230Y-9117626D01*
X15150946Y-9115697D01*
X15150661Y-9113772D01*
X15150374Y-9111850D01*
X15150086Y-9109932D01*
X15149796Y-9108016D01*
X15149505Y-9106104D01*
X15149212Y-9104195D01*
X15148918Y-9102290D01*
X15148622Y-9100388D01*
X15148324Y-9098489D01*
X15148025Y-9096593D01*
X15147725Y-9094701D01*
X15147423Y-9092811D01*
X15147120Y-9090925D01*
X15146815Y-9089042D01*
X15146508Y-9087163D01*
X15146200Y-9085286D01*
X15145891Y-9083413D01*
X15145580Y-9081543D01*
X15145267Y-9079676D01*
X15144953Y-9077812D01*
X15144638Y-9075952D01*
X15144321Y-9074095D01*
X15144002Y-9072241D01*
X15143683Y-9070390D01*
X15143361Y-9068542D01*
X15143038Y-9066697D01*
X15142714Y-9064856D01*
X15142388Y-9063017D01*
X15142061Y-9061182D01*
X15141732Y-9059350D01*
X15141402Y-9057521D01*
X15141070Y-9055695D01*
X15140737Y-9053873D01*
X15140402Y-9052053D01*
X15140066Y-9050237D01*
X15139729Y-9048423D01*
X15139390Y-9046613D01*
X15139049Y-9044806D01*
X15138707Y-9043002D01*
X15138364Y-9041201D01*
X15138019Y-9039403D01*
X15137673Y-9037608D01*
X15137325Y-9035816D01*
X15136976Y-9034027D01*
X15136625Y-9032242D01*
X15136273Y-9030459D01*
X15135920Y-9028680D01*
X15135565Y-9026903D01*
X15135208Y-9025130D01*
X15134850Y-9023359D01*
X15134491Y-9021592D01*
X15134131Y-9019827D01*
X15133769Y-9018066D01*
X15133405Y-9016307D01*
X15133040Y-9014552D01*
X15132674Y-9012800D01*
X15132306Y-9011050D01*
X15131937Y-9009304D01*
X15131566Y-9007560D01*
X15131194Y-9005820D01*
X15130821Y-9004083D01*
X15130446Y-9002348D01*
X15130070Y-9000617D01*
X15129693Y-8998888D01*
X15129314Y-8997162D01*
X15128933Y-8995439D01*
X15128551Y-8993720D01*
X15128168Y-8992003D01*
X15127784Y-8990289D01*
X15127398Y-8988578D01*
X15127010Y-8986870D01*
X15126621Y-8985165D01*
X15126231Y-8983463D01*
X15125840Y-8981764D01*
X15125447Y-8980068D01*
X15125053Y-8978374D01*
X15124657Y-8976684D01*
X15124260Y-8974996D01*
X15123862Y-8973311D01*
X15123462Y-8971629D01*
X15123061Y-8969950D01*
X15122658Y-8968274D01*
X15122254Y-8966601D01*
X15121849Y-8964930D01*
X15121442Y-8963263D01*
X15121034Y-8961598D01*
X15120625Y-8959936D01*
X15120214Y-8958277D01*
X15119802Y-8956621D01*
X15119389Y-8954968D01*
X15118974Y-8953317D01*
X15118558Y-8951670D01*
X15118140Y-8950025D01*
X15117721Y-8948383D01*
X15117301Y-8946744D01*
X15116880Y-8945107D01*
X15116457Y-8943473D01*
X15116033Y-8941842D01*
X15115607Y-8940215D01*
X15115180Y-8938589D01*
X15114752Y-8936967D01*
X15114322Y-8935347D01*
X15113892Y-8933730D01*
X15113459Y-8932116D01*
X15113026Y-8930504D01*
X15112591Y-8928896D01*
X15112155Y-8927290D01*
X15111717Y-8925686D01*
X15111278Y-8924086D01*
X15110838Y-8922488D01*
X15110397Y-8920894D01*
X15109954Y-8919301D01*
X15109510Y-8917712D01*
X15109064Y-8916125D01*
X15108617Y-8914541D01*
X15108169Y-8912959D01*
X15107720Y-8911381D01*
X15107269Y-8909805D01*
X15106817Y-8908232D01*
X15106364Y-8906661D01*
X15105909Y-8905093D01*
X15105453Y-8903528D01*
X15104996Y-8901965D01*
X15104537Y-8900405D01*
X15104078Y-8898848D01*
X15103616Y-8897293D01*
X15103154Y-8895742D01*
X15102690Y-8894192D01*
X15102225Y-8892646D01*
X15101759Y-8891102D01*
X15101291Y-8889561D01*
X15100822Y-8888022D01*
X15100352Y-8886486D01*
X15099881Y-8884952D01*
X15099408Y-8883422D01*
X15098934Y-8881893D01*
X15098459Y-8880368D01*
X15097982Y-8878845D01*
X15097504Y-8877325D01*
X15097025Y-8875807D01*
X15096545Y-8874292D01*
X15096063Y-8872779D01*
X15095580Y-8871269D01*
X15095095Y-8869762D01*
X15094610Y-8868257D01*
X15094123Y-8866755D01*
X15093635Y-8865255D01*
X15093146Y-8863758D01*
X15092655Y-8862263D01*
X15092163Y-8860771D01*
X15091670Y-8859282D01*
X15091176Y-8857795D01*
X15090680Y-8856310D01*
X15090183Y-8854828D01*
X15089685Y-8853349D01*
X15089185Y-8851872D01*
X15088685Y-8850398D01*
X15088183Y-8848926D01*
X15087679Y-8847457D01*
X15087175Y-8845990D01*
X15086669Y-8844526D01*
X15086162Y-8843064D01*
X15085654Y-8841605D01*
X15085144Y-8840148D01*
X15084634Y-8838694D01*
X15084122Y-8837242D01*
X15083609Y-8835793D01*
X15083094Y-8834346D01*
X15082578Y-8832902D01*
X15082061Y-8831460D01*
X15081543Y-8830021D01*
X15081024Y-8828584D01*
X15080503Y-8827149D01*
X15079981Y-8825717D01*
X15079458Y-8824288D01*
X15078934Y-8822860D01*
X15078408Y-8821436D01*
X15077881Y-8820013D01*
X15077353Y-8818594D01*
X15076824Y-8817176D01*
X15076293Y-8815761D01*
X15075761Y-8814348D01*
X15075228Y-8812938D01*
X15074694Y-8811530D01*
X15074159Y-8810125D01*
X15073622Y-8808722D01*
X15073084Y-8807321D01*
X15072545Y-8805923D01*
X15072005Y-8804527D01*
X15071463Y-8803134D01*
X15070920Y-8801743D01*
X15070376Y-8800354D01*
X15069831Y-8798968D01*
X15069284Y-8797584D01*
X15068737Y-8796202D01*
X15068188Y-8794823D01*
X15067638Y-8793446D01*
X15067086Y-8792071D01*
X15066534Y-8790699D01*
X15065980Y-8789329D01*
X15065425Y-8787962D01*
X15064869Y-8786596D01*
X15064311Y-8785234D01*
X15063753Y-8783873D01*
X15063193Y-8782515D01*
X15062632Y-8781159D01*
X15062070Y-8779805D01*
X15061506Y-8778454D01*
X15060942Y-8777105D01*
X15060376Y-8775758D01*
X15059809Y-8774414D01*
X15059240Y-8773072D01*
X15058671Y-8771732D01*
X15058100Y-8770394D01*
X15057529Y-8769059D01*
X15056955Y-8767726D01*
X15056381Y-8766395D01*
X15055806Y-8765067D01*
X15055229Y-8763741D01*
X15054651Y-8762417D01*
X15054072Y-8761095D01*
X15053492Y-8759775D01*
X15052910Y-8758458D01*
X15052328Y-8757143D01*
X15051744Y-8755831D01*
X15051159Y-8754520D01*
X15050573Y-8753212D01*
X15049985Y-8751906D01*
X15049397Y-8750602D01*
X15048807Y-8749300D01*
X15048216Y-8748001D01*
X15047624Y-8746704D01*
X15047030Y-8745409D01*
X15046436Y-8744116D01*
X15045840Y-8742826D01*
X15045243Y-8741537D01*
X15044645Y-8740251D01*
X15044046Y-8738967D01*
X15043445Y-8737685D01*
X15042843Y-8736406D01*
X15042240Y-8735128D01*
X15041636Y-8733853D01*
X15041031Y-8732580D01*
X15040425Y-8731309D01*
X15039817Y-8730040D01*
X15039208Y-8728774D01*
X15038598Y-8727509D01*
X15037987Y-8726247D01*
X15037375Y-8724987D01*
X15036761Y-8723729D01*
X15036146Y-8722473D01*
X15035531Y-8721219D01*
X15034914Y-8719967D01*
X15034295Y-8718718D01*
X15033676Y-8717470D01*
X15033055Y-8716225D01*
X15032433Y-8714982D01*
X15031810Y-8713741D01*
X15031186Y-8712502D01*
X15030561Y-8711265D01*
X15029934Y-8710031D01*
X15029307Y-8708798D01*
X15028678Y-8707567D01*
X15028048Y-8706339D01*
X15027417Y-8705113D01*
X15026784Y-8703888D01*
X15026151Y-8702666D01*
X15025516Y-8701446D01*
X15024880Y-8700228D01*
X15024243Y-8699012D01*
X15023605Y-8697798D01*
X15022965Y-8696586D01*
X15022324Y-8695376D01*
X15021683Y-8694169D01*
X15021040Y-8692963D01*
X15020396Y-8691759D01*
X15019750Y-8690558D01*
X15019104Y-8689358D01*
X15018456Y-8688161D01*
X15017807Y-8686965D01*
X15017157Y-8685772D01*
X15016506Y-8684580D01*
X15015854Y-8683391D01*
X15015200Y-8682203D01*
X15014545Y-8681018D01*
X15013889Y-8679835D01*
X15013232Y-8678653D01*
X15012574Y-8677474D01*
X15011915Y-8676296D01*
X15011254Y-8675121D01*
X15010592Y-8673948D01*
X15009929Y-8672776D01*
X15009265Y-8671607D01*
X15008600Y-8670439D01*
X15007934Y-8669274D01*
X15007266Y-8668110D01*
X15006597Y-8666949D01*
X15005927Y-8665789D01*
X15005256Y-8664632D01*
X15004584Y-8663476D01*
X15003910Y-8662323D01*
X15003236Y-8661171D01*
X15002560Y-8660021D01*
X15001883Y-8658873D01*
X15001205Y-8657727D01*
X15000525Y-8656584D01*
X14999845Y-8655442D01*
X14999163Y-8654301D01*
X14998480Y-8653163D01*
X14997796Y-8652027D01*
X14997111Y-8650893D01*
X14996424Y-8649761D01*
X14995737Y-8648630D01*
X14995048Y-8647502D01*
X14994358Y-8646375D01*
X14993667Y-8645250D01*
X14992975Y-8644128D01*
X14992281Y-8643007D01*
X14991587Y-8641888D01*
X14990891Y-8640771D01*
X14990194Y-8639655D01*
X14989496Y-8638542D01*
X14988796Y-8637431D01*
X14988096Y-8636321D01*
X14987394Y-8635213D01*
X14986691Y-8634108D01*
X14985987Y-8633004D01*
X14985282Y-8631902D01*
X14984575Y-8630801D01*
X14983868Y-8629703D01*
X14983159Y-8628607D01*
X14982449Y-8627512D01*
X14981738Y-8626419D01*
X14981026Y-8625328D01*
X14980312Y-8624239D01*
X14979597Y-8623152D01*
X14978882Y-8622067D01*
X14978164Y-8620983D01*
X14977446Y-8619901D01*
X14976727Y-8618822D01*
X14976006Y-8617743D01*
X14975284Y-8616667D01*
X14974561Y-8615593D01*
X14973837Y-8614520D01*
X14973112Y-8613449D01*
X14972385Y-8612381D01*
X14971658Y-8611313D01*
X14970929Y-8610248D01*
X14970199Y-8609184D01*
X14969467Y-8608123D01*
X14968735Y-8607063D01*
X14968001Y-8606005D01*
X14967266Y-8604948D01*
X14966530Y-8603894D01*
X14965793Y-8602841D01*
X14965055Y-8601790D01*
X14964315Y-8600741D01*
X14963574Y-8599693D01*
X14962832Y-8598647D01*
X14962089Y-8597604D01*
X14961344Y-8596561D01*
X14960599Y-8595521D01*
X14959852Y-8594482D01*
X14959104Y-8593445D01*
X14958355Y-8592410D01*
X14957604Y-8591377D01*
X14956853Y-8590345D01*
X14956100Y-8589315D01*
X14955346Y-8588287D01*
X14954591Y-8587261D01*
X14953834Y-8586236D01*
X14953077Y-8585213D01*
X14952318Y-8584192D01*
X14951558Y-8583173D01*
X14950797Y-8582155D01*
X14950034Y-8581139D01*
X14948506Y-8579112D01*
X14946972Y-8577092D01*
X14945434Y-8575079D01*
X14943891Y-8573072D01*
X14942343Y-8571073D01*
X14940790Y-8569080D01*
X14939233Y-8567094D01*
X14937670Y-8565115D01*
X14936103Y-8563142D01*
X14934530Y-8561176D01*
X14932953Y-8559217D01*
X14931371Y-8557264D01*
X14929784Y-8555318D01*
X14928192Y-8553378D01*
X14926595Y-8551445D01*
X14924993Y-8549519D01*
X14923386Y-8547599D01*
X14921774Y-8545686D01*
X14920157Y-8543779D01*
X14918535Y-8541879D01*
X14916908Y-8539985D01*
X14915276Y-8538097D01*
X14913639Y-8536216D01*
X14911997Y-8534341D01*
X14910350Y-8532473D01*
X14908698Y-8530611D01*
X14907041Y-8528755D01*
X14905379Y-8526906D01*
X14903711Y-8525063D01*
X14902039Y-8523226D01*
X14900361Y-8521395D01*
X14898678Y-8519571D01*
X14896991Y-8517753D01*
X14895298Y-8515941D01*
X14893599Y-8514135D01*
X14891896Y-8512336D01*
X14890187Y-8510542D01*
X14888474Y-8508755D01*
X14886755Y-8506974D01*
X14885030Y-8505198D01*
X14883301Y-8503429D01*
X14881566Y-8501666D01*
X14879826Y-8499909D01*
X14878081Y-8498158D01*
X14876330Y-8496413D01*
X14874574Y-8494674D01*
X14872813Y-8492941D01*
X14871046Y-8491214D01*
X14869274Y-8489493D01*
X14867496Y-8487777D01*
X14865713Y-8486068D01*
X14863925Y-8484364D01*
X14862131Y-8482667D01*
X14860332Y-8480975D01*
X14858528Y-8479289D01*
X14856717Y-8477608D01*
X14854902Y-8475934D01*
X14853081Y-8474265D01*
X14851254Y-8472603D01*
X14849422Y-8470945D01*
X14847584Y-8469294D01*
X14845740Y-8467648D01*
X14843891Y-8466008D01*
X14842037Y-8464374D01*
X14840176Y-8462745D01*
X14838310Y-8461123D01*
X14836438Y-8459505D01*
X14834561Y-8457894D01*
X14832678Y-8456287D01*
X14830789Y-8454687D01*
X14828894Y-8453092D01*
X14826994Y-8451503D01*
X14825087Y-8449919D01*
X14823175Y-8448341D01*
X14821257Y-8446768D01*
X14819333Y-8445201D01*
X14817404Y-8443639D01*
X14815468Y-8442083D01*
X14813526Y-8440532D01*
X14811579Y-8438987D01*
X14809625Y-8437447D01*
X14807665Y-8435913D01*
X14805700Y-8434384D01*
X14803728Y-8432861D01*
X14801750Y-8431343D01*
X14799766Y-8429830D01*
X14797776Y-8428322D01*
X14795780Y-8426820D01*
X14793777Y-8425324D01*
X14791769Y-8423833D01*
X14789754Y-8422347D01*
X14787733Y-8420866D01*
X14785706Y-8419391D01*
X14783672Y-8417921D01*
X14781632Y-8416456D01*
X14779585Y-8414996D01*
X14777533Y-8413542D01*
X14775473Y-8412093D01*
X14773408Y-8410649D01*
X14771336Y-8409211D01*
X14769257Y-8407778D01*
X14767172Y-8406350D01*
X14765080Y-8404927D01*
X14762982Y-8403509D01*
X14760877Y-8402096D01*
X14758765Y-8400689D01*
X14756647Y-8399287D01*
X14754522Y-8397890D01*
X14752391Y-8396498D01*
X14750252Y-8395111D01*
X14748107Y-8393729D01*
X14745955Y-8392353D01*
X14743796Y-8390981D01*
X14741630Y-8389615D01*
X14739457Y-8388254D01*
X14737278Y-8386898D01*
X14735091Y-8385546D01*
X14732897Y-8384200D01*
X14730697Y-8382859D01*
X14728489Y-8381523D01*
X14726274Y-8380192D01*
X14724052Y-8378866D01*
X14721822Y-8377545D01*
X14719586Y-8376230D01*
X14717342Y-8374919D01*
X14715091Y-8373613D01*
X14712832Y-8372312D01*
X14710566Y-8371016D01*
X14708293Y-8369725D01*
X14706012Y-8368439D01*
X14703724Y-8367158D01*
X14701429Y-8365882D01*
X14699125Y-8364610D01*
X14696814Y-8363344D01*
X14694496Y-8362083D01*
X14692170Y-8360827D01*
X14689836Y-8359575D01*
X14687494Y-8358328D01*
X14685145Y-8357087D01*
X14682787Y-8355850D01*
X14680422Y-8354618D01*
X14678049Y-8353391D01*
X14675668Y-8352169D01*
X14673279Y-8350952D01*
X14670881Y-8349739D01*
X14668476Y-8348532D01*
X14666063Y-8347329D01*
X14663641Y-8346131D01*
X14661211Y-8344938D01*
X14658773Y-8343750D01*
X14656326Y-8342567D01*
X14653871Y-8341388D01*
X14651408Y-8340215D01*
X14648936Y-8339046D01*
X14646456Y-8337882D01*
X14643967Y-8336722D01*
X14641470Y-8335568D01*
X14638963Y-8334418D01*
X14636449Y-8333274D01*
X14633925Y-8332133D01*
X14631392Y-8330998D01*
X14628851Y-8329868D01*
X14626301Y-8328742D01*
X14623741Y-8327621D01*
X14621173Y-8326505D01*
X14618596Y-8325393D01*
X14616009Y-8324287D01*
X14613413Y-8323185D01*
X14610808Y-8322088D01*
X14608194Y-8320995D01*
X14605570Y-8319907D01*
X14602937Y-8318825D01*
X14600294Y-8317746D01*
X14597642Y-8316673D01*
X14594980Y-8315604D01*
X14592308Y-8314540D01*
X14589627Y-8313481D01*
X14586935Y-8312426D01*
X14584234Y-8311376D01*
X14581523Y-8310331D01*
X14578802Y-8309291D01*
X14576071Y-8308255D01*
X14573330Y-8307224D01*
X14570579Y-8306197D01*
X14567817Y-8305176D01*
X14565045Y-8304159D01*
X14562262Y-8303146D01*
X14559469Y-8302139D01*
X14556666Y-8301136D01*
X14553852Y-8300138D01*
X14551027Y-8299144D01*
X14548191Y-8298155D01*
X14545344Y-8297171D01*
X14542487Y-8296191D01*
X14539618Y-8295217D01*
X14536738Y-8294246D01*
X14533847Y-8293281D01*
X14530945Y-8292320D01*
X14528032Y-8291364D01*
X14525106Y-8290412D01*
X14522170Y-8289465D01*
X14519222Y-8288523D01*
X14516262Y-8287585D01*
X14513290Y-8286652D01*
X14510306Y-8285724D01*
X14507311Y-8284800D01*
X14504303Y-8283881D01*
X14501283Y-8282966D01*
X14498251Y-8282056D01*
X14495206Y-8281151D01*
X14492149Y-8280251D01*
X14489080Y-8279355D01*
X14485997Y-8278463D01*
X14482902Y-8277576D01*
X14479794Y-8276694D01*
X14476673Y-8275817D01*
X14473539Y-8274944D01*
X14470391Y-8274076D01*
X14467230Y-8273212D01*
X14464056Y-8272353D01*
X14460868Y-8271498D01*
X14457666Y-8270648D01*
X14454450Y-8269803D01*
X14451221Y-8268962D01*
X14447977Y-8268126D01*
X14444719Y-8267294D01*
X14441447Y-8266467D01*
X14438160Y-8265645D01*
X14434859Y-8264827D01*
X14431542Y-8264014D01*
X14428211Y-8263205D01*
X14424865Y-8262401D01*
X14421503Y-8261601D01*
X14418126Y-8260806D01*
X14414734Y-8260015D01*
X14411325Y-8259229D01*
X14407901Y-8258448D01*
X14404461Y-8257671D01*
X14401005Y-8256898D01*
X14397532Y-8256130D01*
X14394042Y-8255367D01*
X14390536Y-8254608D01*
X14387013Y-8253853D01*
X14383473Y-8253104D01*
X14379915Y-8252358D01*
X14376340Y-8251617D01*
X14372747Y-8250881D01*
X14369136Y-8250149D01*
X14365507Y-8249421D01*
X14361859Y-8248698D01*
X14358193Y-8247979D01*
X14354508Y-8247265D01*
X14350804Y-8246556D01*
X14347081Y-8245850D01*
X14343338Y-8245149D01*
X14339575Y-8244453D01*
X14335792Y-8243761D01*
X14331989Y-8243073D01*
X14328165Y-8242390D01*
X14324320Y-8241711D01*
X14320453Y-8241036D01*
X14316566Y-8240366D01*
X14312656Y-8239700D01*
X14308724Y-8239038D01*
X14304770Y-8238381D01*
X14300793Y-8237728D01*
X14296792Y-8237079D01*
X14292768Y-8236435D01*
X14288720Y-8235794D01*
X14284648Y-8235158D01*
X14280551Y-8234527D01*
X14276429Y-8233899D01*
X14272281Y-8233276D01*
X14268107Y-8232656D01*
X14263907Y-8232041D01*
X14259680Y-8231430D01*
X14255425Y-8230823D01*
X14251142Y-8230221D01*
X14246831Y-8229622D01*
X14242491Y-8229027D01*
X14238121Y-8228436D01*
X14233721Y-8227850D01*
X14229290Y-8227267D01*
X14224828Y-8226688D01*
X14220334Y-8226113D01*
X14215806Y-8225541D01*
X14211246Y-8224974D01*
X14206651Y-8224410D01*
X14202021Y-8223851D01*
X14197354Y-8223294D01*
X14192652Y-8222742D01*
X14187911Y-8222193D01*
X14183132Y-8221647D01*
X14178313Y-8221105D01*
X14173453Y-8220567D01*
X14168552Y-8220032D01*
X14163607Y-8219500D01*
X14158618Y-8218971D01*
X14153584Y-8218446D01*
X14148503Y-8217924D01*
X14143373Y-8217405D01*
X14138194Y-8216888D01*
X14132963Y-8216375D01*
X14127679Y-8215864D01*
X14122339Y-8215356D01*
X14116942Y-8214851D01*
X14111486Y-8214348D01*
X14105969Y-8213847D01*
X14100387Y-8213349D01*
X14094739Y-8212853D01*
X14089021Y-8212358D01*
X14083230Y-8211865D01*
X14077364Y-8211374D01*
X14071418Y-8210884D01*
X14065388Y-8210395D01*
X14059270Y-8209907D01*
X14053059Y-8209419D01*
X14046750Y-8208932D01*
X14040337Y-8208445D01*
X14033814Y-8207957D01*
X14027172Y-8207468D01*
X14020405Y-8206978D01*
X14013501Y-8206486D01*
X14006451Y-8205992D01*
X13999242Y-8205494D01*
X13991860Y-8204992D01*
X13984288Y-8204486D01*
X13976505Y-8203973D01*
X13968487Y-8203452D01*
X13960206Y-8202923D01*
X13951622Y-8202382D01*
X13942690Y-8201826D01*
X13933347Y-8201253D01*
X13923508Y-8200658D01*
X13913053Y-8200033D01*
X13901799Y-8199368D01*
X13889441Y-8198645D01*
X13875395Y-8197831D01*
X13858216Y-8196842D01*
X13847146Y-8196207D01*
X13832883Y-8195388D01*
X13818629Y-8194568D01*
X13804386Y-8193742D01*
X13797269Y-8193326D01*
X13790155Y-8192908D01*
X13783044Y-8192488D01*
X13775938Y-8192064D01*
X13768835Y-8191638D01*
X13761736Y-8191208D01*
X13754642Y-8190773D01*
X13747552Y-8190335D01*
X13740466Y-8189892D01*
X13733386Y-8189444D01*
X13726311Y-8188990D01*
X13719241Y-8188531D01*
X13712177Y-8188066D01*
X13705118Y-8187595D01*
X13698065Y-8187117D01*
X13691019Y-8186632D01*
X13683978Y-8186139D01*
X13680461Y-8185890D01*
X13676945Y-8185640D01*
X13673430Y-8185387D01*
X13669918Y-8185132D01*
X13666407Y-8184874D01*
X13662898Y-8184615D01*
X13659390Y-8184354D01*
X13655885Y-8184090D01*
X13652381Y-8183824D01*
X13648879Y-8183556D01*
X13645379Y-8183286D01*
X13641881Y-8183013D01*
X13638385Y-8182738D01*
X13634891Y-8182460D01*
X13631399Y-8182180D01*
X13627908Y-8181897D01*
X13624420Y-8181611D01*
X13620934Y-8181323D01*
X13617450Y-8181033D01*
X13613968Y-8180739D01*
X13610489Y-8180443D01*
X13607011Y-8180144D01*
X13603536Y-8179842D01*
X13600063Y-8179537D01*
X13596592Y-8179230D01*
X13593123Y-8178919D01*
X13589657Y-8178605D01*
X13586193Y-8178289D01*
X13582731Y-8177969D01*
X13579272Y-8177646D01*
X13575815Y-8177320D01*
X13572361Y-8176990D01*
X13568909Y-8176658D01*
X13565459Y-8176322D01*
X13562012Y-8175982D01*
X13558567Y-8175640D01*
X13555125Y-8175294D01*
X13551686Y-8174944D01*
X13548249Y-8174591D01*
X13544815Y-8174234D01*
X13541383Y-8173874D01*
X13537955Y-8173510D01*
X13534528Y-8173142D01*
X13531105Y-8172771D01*
X13527684Y-8172396D01*
X13524266Y-8172017D01*
X13520851Y-8171634D01*
X13517439Y-8171247D01*
X13514029Y-8170856D01*
X13510623Y-8170462D01*
X13507219Y-8170063D01*
X13503818Y-8169660D01*
X13500421Y-8169253D01*
X13497026Y-8168842D01*
X13493634Y-8168427D01*
X13490245Y-8168008D01*
X13486860Y-8167584D01*
X13483477Y-8167156D01*
X13480097Y-8166723D01*
X13476721Y-8166287D01*
X13473348Y-8165845D01*
X13469978Y-8165400D01*
X13466611Y-8164949D01*
X13463247Y-8164494D01*
X13459887Y-8164035D01*
X13456530Y-8163571D01*
X13453176Y-8163102D01*
X13449826Y-8162628D01*
X13446479Y-8162150D01*
X13443135Y-8161666D01*
X13439795Y-8161178D01*
X13436458Y-8160685D01*
X13433124Y-8160187D01*
X13429795Y-8159684D01*
X13426468Y-8159176D01*
X13423145Y-8158663D01*
X13419826Y-8158145D01*
X13416510Y-8157621D01*
X13413198Y-8157093D01*
X13409890Y-8156559D01*
X13406585Y-8156020D01*
X13403284Y-8155475D01*
X13399987Y-8154925D01*
X13396693Y-8154370D01*
X13393403Y-8153809D01*
X13390117Y-8153243D01*
X13386835Y-8152671D01*
X13383557Y-8152093D01*
X13380282Y-8151510D01*
X13377011Y-8150922D01*
X13373745Y-8150327D01*
X13370482Y-8149727D01*
X13367223Y-8149121D01*
X13363968Y-8148509D01*
X13360718Y-8147891D01*
X13357471Y-8147267D01*
X13354228Y-8146638D01*
X13350990Y-8146002D01*
X13347755Y-8145360D01*
X13344525Y-8144712D01*
X13341299Y-8144059D01*
X13338077Y-8143398D01*
X13334859Y-8142732D01*
X13331646Y-8142059D01*
X13328436Y-8141380D01*
X13325231Y-8140695D01*
X13322031Y-8140003D01*
X13318835Y-8139305D01*
X13315643Y-8138600D01*
X13312455Y-8137889D01*
X13309272Y-8137172D01*
X13306094Y-8136447D01*
X13302920Y-8135716D01*
X13299750Y-8134979D01*
X13296585Y-8134234D01*
X13293425Y-8133483D01*
X13290269Y-8132725D01*
X13287117Y-8131960D01*
X13283971Y-8131189D01*
X13280829Y-8130410D01*
X13277691Y-8129624D01*
X13274559Y-8128832D01*
X13272994Y-8128433D01*
X13271431Y-8128032D01*
X13269869Y-8127629D01*
X13268308Y-8127225D01*
X13266748Y-8126819D01*
X13265189Y-8126411D01*
X13263632Y-8126001D01*
X13262076Y-8125590D01*
X13260521Y-8125176D01*
X13258967Y-8124761D01*
X13257414Y-8124344D01*
X13255863Y-8123925D01*
X13254313Y-8123505D01*
X13252764Y-8123082D01*
X13251217Y-8122658D01*
X13249670Y-8122232D01*
X13248125Y-8121804D01*
X13246581Y-8121374D01*
X13245038Y-8120942D01*
X13243497Y-8120509D01*
X13241957Y-8120073D01*
X13240418Y-8119636D01*
X13238880Y-8119197D01*
X13237343Y-8118756D01*
X13235808Y-8118313D01*
X13234274Y-8117868D01*
X13232742Y-8117421D01*
X13231210Y-8116972D01*
X13229680Y-8116522D01*
X13228151Y-8116069D01*
X13226624Y-8115614D01*
X13225097Y-8115158D01*
X13223572Y-8114700D01*
X13222049Y-8114239D01*
X13220526Y-8113777D01*
X13219005Y-8113313D01*
X13217485Y-8112847D01*
X13215967Y-8112379D01*
X13214449Y-8111909D01*
X13212933Y-8111437D01*
X13211419Y-8110963D01*
X13209905Y-8110487D01*
X13208393Y-8110009D01*
X13206883Y-8109529D01*
X13205373Y-8109047D01*
X13203865Y-8108563D01*
X13202359Y-8108077D01*
X13200853Y-8107589D01*
X13199349Y-8107098D01*
X13197847Y-8106606D01*
X13196345Y-8106112D01*
X13194845Y-8105616D01*
X13193347Y-8105118D01*
X13191849Y-8104618D01*
X13190353Y-8104115D01*
X13188859Y-8103611D01*
X13187365Y-8103105D01*
X13185874Y-8102596D01*
X13184383Y-8102086D01*
X13182894Y-8101573D01*
X13181406Y-8101058D01*
X13179920Y-8100542D01*
X13178435Y-8100023D01*
X13176951Y-8099502D01*
X13175469Y-8098979D01*
X13173988Y-8098453D01*
X13172509Y-8097926D01*
X13171031Y-8097397D01*
X13169554Y-8096865D01*
X13168079Y-8096331D01*
X13166605Y-8095795D01*
X13165132Y-8095257D01*
X13163661Y-8094717D01*
X13162192Y-8094175D01*
X13160723Y-8093631D01*
X13159257Y-8093084D01*
X13157791Y-8092535D01*
X13156327Y-8091984D01*
X13154865Y-8091431D01*
X13153404Y-8090876D01*
X13151944Y-8090318D01*
X13150486Y-8089759D01*
X13149029Y-8089197D01*
X13147574Y-8088632D01*
X13146120Y-8088066D01*
X13144668Y-8087498D01*
X13143217Y-8086927D01*
X13141767Y-8086354D01*
X13140319Y-8085779D01*
X13138873Y-8085201D01*
X13137428Y-8084622D01*
X13135984Y-8084040D01*
X13134542Y-8083455D01*
X13133101Y-8082869D01*
X13131662Y-8082280D01*
X13130224Y-8081689D01*
X13128788Y-8081096D01*
X13127353Y-8080500D01*
X13125920Y-8079903D01*
X13124488Y-8079302D01*
X13123058Y-8078700D01*
X13121629Y-8078095D01*
X13120202Y-8077488D01*
X13118777Y-8076879D01*
X13117352Y-8076267D01*
X13115930Y-8075653D01*
X13114508Y-8075037D01*
X13113089Y-8074418D01*
X13111671Y-8073797D01*
X13110254Y-8073174D01*
X13108839Y-8072548D01*
X13107426Y-8071920D01*
X13106014Y-8071290D01*
X13104603Y-8070657D01*
X13103194Y-8070022D01*
X13101787Y-8069385D01*
X13100381Y-8068745D01*
X13098977Y-8068103D01*
X13097574Y-8067458D01*
X13096173Y-8066811D01*
X13094774Y-8066161D01*
X13093376Y-8065510D01*
X13091979Y-8064855D01*
X13090584Y-8064199D01*
X13089191Y-8063540D01*
X13087799Y-8062878D01*
X13086409Y-8062214D01*
X13085021Y-8061548D01*
X13083634Y-8060879D01*
X13082248Y-8060208D01*
X13080865Y-8059534D01*
X13079483Y-8058858D01*
X13078102Y-8058179D01*
X13076723Y-8057498D01*
X13075346Y-8056814D01*
X13073970Y-8056128D01*
X13072596Y-8055440D01*
X13071223Y-8054748D01*
X13069853Y-8054055D01*
X13068483Y-8053359D01*
X13067116Y-8052660D01*
X13065750Y-8051959D01*
X13064385Y-8051256D01*
X13063023Y-8050549D01*
X13061662Y-8049841D01*
X13060302Y-8049130D01*
X13058944Y-8048416D01*
X13057588Y-8047700D01*
X13056234Y-8046981D01*
X13054881Y-8046259D01*
X13053530Y-8045536D01*
X13052180Y-8044809D01*
X13050833Y-8044080D01*
X13049486Y-8043348D01*
X13048142Y-8042614D01*
X13046799Y-8041877D01*
X13045458Y-8041138D01*
X13044118Y-8040396D01*
X13042781Y-8039651D01*
X13041445Y-8038904D01*
X13040110Y-8038154D01*
X13038777Y-8037402D01*
X13037446Y-8036647D01*
X13036117Y-8035889D01*
X13034790Y-8035129D01*
X13033464Y-8034366D01*
X13032139Y-8033600D01*
X13030817Y-8032832D01*
X13029496Y-8032061D01*
X13028177Y-8031288D01*
X13026860Y-8030511D01*
X13025544Y-8029732D01*
X13024230Y-8028951D01*
X13022918Y-8028167D01*
X13021608Y-8027380D01*
X13020299Y-8026590D01*
X13018992Y-8025798D01*
X13017687Y-8025003D01*
X13016384Y-8024205D01*
X13015082Y-8023404D01*
X13013782Y-8022601D01*
X13012484Y-8021795D01*
X13011188Y-8020987D01*
X13009893Y-8020175D01*
X13008600Y-8019361D01*
X13007309Y-8018544D01*
X13006020Y-8017725D01*
X13004732Y-8016902D01*
X13003446Y-8016077D01*
X13002162Y-8015250D01*
X13000880Y-8014419D01*
X12999600Y-8013585D01*
X12998321Y-8012749D01*
X12997044Y-8011910D01*
X12995769Y-8011068D01*
X12994496Y-8010224D01*
X12993225Y-8009377D01*
X12991955Y-8008526D01*
X12990687Y-8007673D01*
X12989421Y-8006818D01*
X12988157Y-8005959D01*
X12986895Y-8005097D01*
X12985634Y-8004233D01*
X12984376Y-8003366D01*
X12983119Y-8002496D01*
X12981864Y-8001623D01*
X12980611Y-8000747D01*
X12979359Y-7999869D01*
X12978110Y-7998987D01*
X12976862Y-7998103D01*
X12975616Y-7997216D01*
X12974372Y-7996326D01*
X12973130Y-7995433D01*
X12971890Y-7994537D01*
X12970652Y-7993638D01*
X12969415Y-7992737D01*
X12968180Y-7991832D01*
X12966948Y-7990925D01*
X12965717Y-7990014D01*
X12964488Y-7989101D01*
X12963261Y-7988185D01*
X12962035Y-7987266D01*
X12960812Y-7986344D01*
X12959590Y-7985419D01*
X12958371Y-7984491D01*
X12957153Y-7983560D01*
X12955937Y-7982626D01*
X12954723Y-7981689D01*
X12953511Y-7980749D01*
X12952301Y-7979806D01*
X12951093Y-7978860D01*
X12949887Y-7977912D01*
X12948683Y-7976960D01*
X12947480Y-7976005D01*
X12946280Y-7975047D01*
X12945081Y-7974087D01*
X12943885Y-7973123D01*
X12942690Y-7972156D01*
X12941497Y-7971186D01*
X12940306Y-7970213D01*
X12939118Y-7969237D01*
X12937931Y-7968258D01*
X12936746Y-7967276D01*
X12935563Y-7966291D01*
X12934382Y-7965303D01*
X12933203Y-7964312D01*
X12932026Y-7963318D01*
X12930850Y-7962320D01*
X12929677Y-7961320D01*
X12928506Y-7960317D01*
X12927337Y-7959310D01*
X12926170Y-7958300D01*
X12925004Y-7957288D01*
X12923841Y-7956272D01*
X12922680Y-7955253D01*
X12921520Y-7954231D01*
X12920363Y-7953206D01*
X12919208Y-7952177D01*
X12918055Y-7951146D01*
X12916903Y-7950111D01*
X12915754Y-7949073D01*
X12914607Y-7948033D01*
X12913461Y-7946989D01*
X12912318Y-7945941D01*
X12911177Y-7944891D01*
X12910038Y-7943838D01*
X12908901Y-7942781D01*
X12907765Y-7941721D01*
X12906632Y-7940658D01*
X12905501Y-7939592D01*
X12904372Y-7938522D01*
X12903245Y-7937450D01*
X12902120Y-7936374D01*
X12900997Y-7935295D01*
X12899877Y-7934213D01*
X12898758Y-7933127D01*
X12897641Y-7932038D01*
X12896526Y-7930947D01*
X12895414Y-7929851D01*
X12894303Y-7928753D01*
X12893195Y-7927651D01*
X12892088Y-7926546D01*
X12890984Y-7925438D01*
X12889882Y-7924327D01*
X12888782Y-7923212D01*
X12887684Y-7922094D01*
X12886588Y-7920973D01*
X12885494Y-7919849D01*
X12884402Y-7918721D01*
X12883312Y-7917590D01*
X12882225Y-7916455D01*
X12881139Y-7915318D01*
X12880056Y-7914177D01*
X12878975Y-7913032D01*
X12877896Y-7911885D01*
X12876819Y-7910734D01*
X12875744Y-7909579D01*
X12874671Y-7908422D01*
X12873601Y-7907261D01*
X12872532Y-7906096D01*
X12871466Y-7904929D01*
X12870401Y-7903758D01*
X12869339Y-7902583D01*
X12868279Y-7901406D01*
X12867222Y-7900224D01*
X12866166Y-7899040D01*
X12865113Y-7897852D01*
X12864061Y-7896661D01*
X12863012Y-7895466D01*
X12861965Y-7894268D01*
X12860920Y-7893067D01*
X12859878Y-7891862D01*
X12858837Y-7890653D01*
X12857799Y-7889442D01*
X12856763Y-7888227D01*
X12855729Y-7887008D01*
X12854697Y-7885786D01*
X12853667Y-7884560D01*
X12852640Y-7883332D01*
X12851615Y-7882099D01*
X12850592Y-7880863D01*
X12849571Y-7879624D01*
X12848553Y-7878381D01*
X12847536Y-7877135D01*
X12846522Y-7875885D01*
X12845510Y-7874632D01*
X12844500Y-7873376D01*
X12843493Y-7872115D01*
X12842488Y-7870852D01*
X12841485Y-7869585D01*
X12840484Y-7868314D01*
X12839485Y-7867040D01*
X12838489Y-7865762D01*
X12837495Y-7864481D01*
X12836503Y-7863196D01*
X12835513Y-7861908D01*
X12834526Y-7860616D01*
X12833541Y-7859321D01*
X12832558Y-7858022D01*
X12831577Y-7856719D01*
X12830599Y-7855413D01*
X12829623Y-7854103D01*
X12828649Y-7852790D01*
X12827677Y-7851473D01*
X12826708Y-7850153D01*
X12825741Y-7848829D01*
X12824777Y-7847502D01*
X12823814Y-7846170D01*
X12822854Y-7844836D01*
X12821896Y-7843497D01*
X12820941Y-7842155D01*
X12819987Y-7840810D01*
X12819036Y-7839460D01*
X12818088Y-7838108D01*
X12817141Y-7836751D01*
X12816197Y-7835391D01*
X12815256Y-7834027D01*
X12814316Y-7832660D01*
X12813379Y-7831289D01*
X12812444Y-7829914D01*
X12811512Y-7828535D01*
X12810582Y-7827153D01*
X12809654Y-7825767D01*
X12808729Y-7824378D01*
X12807806Y-7822985D01*
X12806885Y-7821588D01*
X12805966Y-7820187D01*
X12805050Y-7818783D01*
X12804137Y-7817375D01*
X12803225Y-7815964D01*
X12802316Y-7814548D01*
X12801410Y-7813129D01*
X12800505Y-7811706D01*
X12799603Y-7810280D01*
X12798704Y-7808849D01*
X12797807Y-7807415D01*
X12796912Y-7805977D01*
X12796020Y-7804536D01*
X12795130Y-7803090D01*
X12794242Y-7801641D01*
X12793357Y-7800188D01*
X12792474Y-7798732D01*
X12791593Y-7797271D01*
X12790715Y-7795807D01*
X12789840Y-7794339D01*
X12788966Y-7792867D01*
X12788096Y-7791391D01*
X12787227Y-7789912D01*
X12786361Y-7788428D01*
X12785497Y-7786941D01*
X12784636Y-7785450D01*
X12783778Y-7783956D01*
X12782921Y-7782457D01*
X12782067Y-7780955D01*
X12781216Y-7779448D01*
X12780367Y-7777938D01*
X12779520Y-7776424D01*
X12778676Y-7774906D01*
X12777834Y-7773384D01*
X12776995Y-7771859D01*
X12776158Y-7770329D01*
X12775324Y-7768796D01*
X12774492Y-7767259D01*
X12773663Y-7765718D01*
X12772836Y-7764172D01*
X12772011Y-7762623D01*
X12771189Y-7761071D01*
X12770370Y-7759514D01*
X12769553Y-7757953D01*
X12768738Y-7756388D01*
X12767926Y-7754820D01*
X12767116Y-7753247D01*
X12766309Y-7751671D01*
X12765505Y-7750090D01*
X12764702Y-7748506D01*
X12763903Y-7746918D01*
X12763106Y-7745325D01*
X12762311Y-7743729D01*
X12761519Y-7742129D01*
X12760729Y-7740525D01*
X12759942Y-7738916D01*
X12759158Y-7737304D01*
X12758376Y-7735688D01*
X12757596Y-7734068D01*
X12756819Y-7732444D01*
X12756045Y-7730815D01*
X12755273Y-7729183D01*
X12754503Y-7727547D01*
X12753737Y-7725907D01*
X12752972Y-7724262D01*
X12752211Y-7722614D01*
X12751451Y-7720962D01*
X12750695Y-7719305D01*
X12749941Y-7717645D01*
X12749189Y-7715980D01*
X12748440Y-7714312D01*
X12747694Y-7712639D01*
X12746950Y-7710962D01*
X12746209Y-7709281D01*
X12745470Y-7707596D01*
X12744734Y-7705907D01*
X12744000Y-7704214D01*
X12743270Y-7702517D01*
X12742541Y-7700816D01*
X12741815Y-7699110D01*
X12741092Y-7697401D01*
X12740372Y-7695687D01*
X12739654Y-7693969D01*
X12738939Y-7692247D01*
X12738226Y-7690521D01*
X12737516Y-7688791D01*
X12736808Y-7687057D01*
X12736103Y-7685318D01*
X12735401Y-7683575D01*
X12734701Y-7681829D01*
X12734004Y-7680078D01*
X12733310Y-7678322D01*
X12732618Y-7676563D01*
X12731929Y-7674799D01*
X12731243Y-7673032D01*
X12730559Y-7671260D01*
X12729878Y-7669484D01*
X12729199Y-7667703D01*
X12728523Y-7665919D01*
X12727850Y-7664130D01*
X12727179Y-7662337D01*
X12726512Y-7660540D01*
X12725846Y-7658738D01*
X12725184Y-7656932D01*
X12724524Y-7655123D01*
X12723867Y-7653308D01*
X12723212Y-7651490D01*
X12722560Y-7649667D01*
X12721911Y-7647840D01*
X12721265Y-7646009D01*
X12720621Y-7644173D01*
X12719980Y-7642334D01*
X12719341Y-7640489D01*
X12718705Y-7638641D01*
X12718072Y-7636788D01*
X12717442Y-7634931D01*
X12716815Y-7633070D01*
X12716190Y-7631205D01*
X12715568Y-7629335D01*
X12714948Y-7627460D01*
X12714331Y-7625582D01*
X12713717Y-7623699D01*
X12713106Y-7621812D01*
X12712498Y-7619920D01*
X12711892Y-7618024D01*
X12711289Y-7616124D01*
X12710688Y-7614219D01*
X12710091Y-7612310D01*
X12709496Y-7610397D01*
X12708904Y-7608479D01*
X12708315Y-7606557D01*
X12707728Y-7604630D01*
X12707144Y-7602699D01*
X12706563Y-7600764D01*
X12705985Y-7598824D01*
X12705409Y-7596880D01*
X12704837Y-7594932D01*
X12704267Y-7592979D01*
X12703700Y-7591021D01*
X12703135Y-7589059D01*
X12702574Y-7587093D01*
X12702015Y-7585122D01*
X12701459Y-7583147D01*
X12700906Y-7581168D01*
X12700355Y-7579184D01*
X12699808Y-7577195D01*
X12699263Y-7575202D01*
X12698721Y-7573205D01*
X12698182Y-7571203D01*
X12697645Y-7569196D01*
X12697112Y-7567186D01*
X12696581Y-7565170D01*
X12696053Y-7563150D01*
X12695528Y-7561126D01*
X12695006Y-7559097D01*
X12694486Y-7557064D01*
X12693970Y-7555026D01*
X12693456Y-7552983D01*
X12692945Y-7550936D01*
X12692437Y-7548885D01*
X12691932Y-7546829D01*
X12691429Y-7544768D01*
X12690930Y-7542703D01*
X12690433Y-7540633D01*
X12689939Y-7538559D01*
X12689448Y-7536480D01*
X12688960Y-7534397D01*
X12688475Y-7532309D01*
X12687993Y-7530216D01*
X12687513Y-7528119D01*
X12687037Y-7526017D01*
X12686563Y-7523911D01*
X12686092Y-7521800D01*
X12685625Y-7519685D01*
X12685160Y-7517564D01*
X12684697Y-7515440D01*
X12684238Y-7513310D01*
X12683782Y-7511176D01*
X12683329Y-7509038D01*
X12682878Y-7506894D01*
X12682431Y-7504746D01*
X12681986Y-7502594D01*
X12681544Y-7500437D01*
X12681105Y-7498275D01*
X12680670Y-7496108D01*
X12680237Y-7493937D01*
X12679807Y-7491761D01*
X12679379Y-7489580D01*
X12678955Y-7487395D01*
X12678534Y-7485205D01*
X12678116Y-7483010D01*
X12677701Y-7480811D01*
X12677288Y-7478607D01*
X12676879Y-7476398D01*
X12676472Y-7474184D01*
X12676069Y-7471966D01*
X12675668Y-7469743D01*
X12675271Y-7467515D01*
X12674876Y-7465283D01*
X12674485Y-7463046D01*
X12674096Y-7460804D01*
X12673710Y-7458557D01*
X12673328Y-7456306D01*
X12672948Y-7454049D01*
X12672571Y-7451788D01*
X12672198Y-7449522D01*
X12671827Y-7447252D01*
X12671459Y-7444977D01*
X12671094Y-7442696D01*
X12670733Y-7440411D01*
X12670374Y-7438122D01*
X12670018Y-7435827D01*
X12669666Y-7433528D01*
X12669316Y-7431223D01*
X12668969Y-7428914D01*
X12668626Y-7426601D01*
X12668285Y-7424282D01*
X12667948Y-7421958D01*
X12667613Y-7419630D01*
X12667282Y-7417297D01*
X12666953Y-7414959D01*
X12666628Y-7412616D01*
X12666306Y-7410268D01*
X12665986Y-7407915D01*
X12665670Y-7405558D01*
X12665357Y-7403195D01*
X12665047Y-7400828D01*
X12664740Y-7398456D01*
X12664436Y-7396078D01*
X12664135Y-7393696D01*
X12663837Y-7391309D01*
X12663542Y-7388918D01*
X12663250Y-7386521D01*
X12662962Y-7384119D01*
X12662676Y-7381712D01*
X12662394Y-7379301D01*
X12662114Y-7376884D01*
X12661838Y-7374463D01*
X12661565Y-7372036D01*
X12661295Y-7369605D01*
X12661028Y-7367169D01*
X12660764Y-7364727D01*
X12660503Y-7362281D01*
X12660246Y-7359830D01*
X12659991Y-7357374D01*
X12659740Y-7354912D01*
X12659491Y-7352446D01*
X12659246Y-7349975D01*
X12659004Y-7347499D01*
X12658765Y-7345018D01*
X12658530Y-7342531D01*
X12658297Y-7340040D01*
X12658067Y-7337544D01*
X12657841Y-7335042D01*
X12657618Y-7332536D01*
X12657398Y-7330025D01*
X12657181Y-7327508D01*
X12656967Y-7324987D01*
X12656757Y-7322460D01*
X12656549Y-7319929D01*
X12656345Y-7317392D01*
X12656144Y-7314850D01*
X12655946Y-7312303D01*
X12655751Y-7309751D01*
X12655560Y-7307194D01*
X12655372Y-7304632D01*
X12655186Y-7302065D01*
X12655004Y-7299493D01*
X12654826Y-7296915D01*
X12654650Y-7294333D01*
X12654478Y-7291745D01*
X12654308Y-7289152D01*
X12654142Y-7286554D01*
X12653980Y-7283951D01*
X12653820Y-7281343D01*
X12653664Y-7278730D01*
X12653511Y-7276111D01*
X12653361Y-7273488D01*
X12653214Y-7270859D01*
X12653071Y-7268225D01*
X12652930Y-7265586D01*
X12652793Y-7262941D01*
X12652660Y-7260292D01*
X12652529Y-7257637D01*
X12652402Y-7254977D01*
X12652278Y-7252312D01*
X12652157Y-7249642D01*
X12652040Y-7246966D01*
X12651925Y-7244286D01*
X12651814Y-7241600D01*
X12651706Y-7238909D01*
X12651602Y-7236212D01*
X12651501Y-7233511D01*
X12651403Y-7230804D01*
X12651308Y-7228092D01*
X12651217Y-7225374D01*
X12651129Y-7222651D01*
X12651044Y-7219924D01*
X12650962Y-7217190D01*
X12650884Y-7214452D01*
X12650809Y-7211708D01*
X12650737Y-7208959D01*
X12650669Y-7206205D01*
X12650604Y-7203445D01*
X12650542Y-7200680D01*
X12650484Y-7197910D01*
X12650429Y-7195135D01*
X12650377Y-7192354D01*
X12650328Y-7189568D01*
X12650283Y-7186776D01*
X12650241Y-7183979D01*
X12650203Y-7181177D01*
X12650168Y-7178370D01*
X12650136Y-7175557D01*
X12650107Y-7172739D01*
X12650082Y-7169915D01*
X12650060Y-7167086D01*
X12650042Y-7164252D01*
X12650027Y-7161412D01*
X12650015Y-7158567D01*
X12650007Y-7155717D01*
X12650002Y-7152861D01*
X12650000Y-7150000D01*
X15575000Y-9875000D02*
X15175000Y-9475000D01*
X15575000Y-10825000D02*
X15575000Y-9875000D01*
X15575000Y-13475000D02*
X15575000Y-10825000D01*
X16625000Y-13050000D02*
G75*
G02*
X16425000Y-13050000I-100000J0D01*
G01*
X16425000Y-13050000D02*
G75*
G02*
X16625000Y-13050000I100000J0D01*
G01*
X17475000Y-11350000D02*
X17475000Y-13475000D01*
X17475000Y-13475000D02*
X15575000Y-13475000D01*
X17582107Y-5975000D02*
X12950000Y-5975000D01*
X17582107Y-5975000D02*
G75*
G02*
X17875084Y-6275000I-7107J-300000D01*
G01*
X17725000Y-10700000D02*
G75*
G02*
X17525000Y-10700000I-100000J0D01*
G01*
X17525000Y-10700000D02*
G75*
G02*
X17725000Y-10700000I100000J0D01*
G01*
X17875000Y-10950000D02*
X17475000Y-11350000D01*
X17875000Y-10950000D02*
X17875084Y-6275000D01*
D11*
X12908277Y-13788984D02*
X12908277Y-13588984D01*
X12908277Y-13588984D02*
X12955896Y-13588984D01*
X12955896Y-13588984D02*
X12984467Y-13598508D01*
X12984467Y-13598508D02*
X13003515Y-13617555D01*
X13003515Y-13617555D02*
X13013039Y-13636603D01*
X13013039Y-13636603D02*
X13022562Y-13674698D01*
X13022562Y-13674698D02*
X13022562Y-13703269D01*
X13022562Y-13703269D02*
X13013039Y-13741365D01*
X13013039Y-13741365D02*
X13003515Y-13760412D01*
X13003515Y-13760412D02*
X12984467Y-13779460D01*
X12984467Y-13779460D02*
X12955896Y-13788984D01*
X12955896Y-13788984D02*
X12908277Y-13788984D01*
X13108277Y-13788984D02*
X13108277Y-13655650D01*
X13108277Y-13693746D02*
X13117801Y-13674698D01*
X13117801Y-13674698D02*
X13127324Y-13665174D01*
X13127324Y-13665174D02*
X13146372Y-13655650D01*
X13146372Y-13655650D02*
X13165420Y-13655650D01*
X13232086Y-13788984D02*
X13232086Y-13655650D01*
X13232086Y-13588984D02*
X13222562Y-13598508D01*
X13222562Y-13598508D02*
X13232086Y-13608031D01*
X13232086Y-13608031D02*
X13241610Y-13598508D01*
X13241610Y-13598508D02*
X13232086Y-13588984D01*
X13232086Y-13588984D02*
X13232086Y-13608031D01*
X13355896Y-13788984D02*
X13336848Y-13779460D01*
X13336848Y-13779460D02*
X13327324Y-13760412D01*
X13327324Y-13760412D02*
X13327324Y-13588984D01*
X13460658Y-13788984D02*
X13441610Y-13779460D01*
X13441610Y-13779460D02*
X13432086Y-13760412D01*
X13432086Y-13760412D02*
X13432086Y-13588984D01*
X13689229Y-13788984D02*
X13689229Y-13588984D01*
X13689229Y-13588984D02*
X13755896Y-13731841D01*
X13755896Y-13731841D02*
X13822562Y-13588984D01*
X13822562Y-13588984D02*
X13822562Y-13788984D01*
X14003515Y-13788984D02*
X14003515Y-13684222D01*
X14003515Y-13684222D02*
X13993991Y-13665174D01*
X13993991Y-13665174D02*
X13974943Y-13655650D01*
X13974943Y-13655650D02*
X13936848Y-13655650D01*
X13936848Y-13655650D02*
X13917801Y-13665174D01*
X14003515Y-13779460D02*
X13984467Y-13788984D01*
X13984467Y-13788984D02*
X13936848Y-13788984D01*
X13936848Y-13788984D02*
X13917801Y-13779460D01*
X13917801Y-13779460D02*
X13908277Y-13760412D01*
X13908277Y-13760412D02*
X13908277Y-13741365D01*
X13908277Y-13741365D02*
X13917801Y-13722317D01*
X13917801Y-13722317D02*
X13936848Y-13712793D01*
X13936848Y-13712793D02*
X13984467Y-13712793D01*
X13984467Y-13712793D02*
X14003515Y-13703269D01*
X14098753Y-13655650D02*
X14098753Y-13855650D01*
X14098753Y-13665174D02*
X14117801Y-13655650D01*
X14117801Y-13655650D02*
X14155896Y-13655650D01*
X14155896Y-13655650D02*
X14174943Y-13665174D01*
X14174943Y-13665174D02*
X14184467Y-13674698D01*
X14184467Y-13674698D02*
X14193991Y-13693746D01*
X14193991Y-13693746D02*
X14193991Y-13750888D01*
X14193991Y-13750888D02*
X14184467Y-13769936D01*
X14184467Y-13769936D02*
X14174943Y-13779460D01*
X14174943Y-13779460D02*
X14155896Y-13788984D01*
X14155896Y-13788984D02*
X14117801Y-13788984D01*
X14117801Y-13788984D02*
X14098753Y-13779460D01*
X14279705Y-13769936D02*
X14289229Y-13779460D01*
X14289229Y-13779460D02*
X14279705Y-13788984D01*
X14279705Y-13788984D02*
X14270182Y-13779460D01*
X14270182Y-13779460D02*
X14279705Y-13769936D01*
X14279705Y-13769936D02*
X14279705Y-13788984D01*
X14279705Y-13665174D02*
X14289229Y-13674698D01*
X14289229Y-13674698D02*
X14279705Y-13684222D01*
X14279705Y-13684222D02*
X14270182Y-13674698D01*
X14270182Y-13674698D02*
X14279705Y-13665174D01*
X14279705Y-13665174D02*
X14279705Y-13684222D01*
M02*
