%TF.GenerationSoftware,KiCad,Pcbnew,10.0.3*%
%TF.CreationDate,2026-05-19T12:27:24+01:00*%
%TF.ProjectId,tactileskin,74616374-696c-4657-936b-696e2e6b6963,rev?*%
%TF.SameCoordinates,Original*%
%TF.FileFunction,Paste,Top*%
%TF.FilePolarity,Positive*%
%FSLAX46Y46*%
G04 Gerber Fmt 4.6, Leading zero omitted, Abs format (unit mm)*
G04 Created by KiCad (PCBNEW 10.0.3) date 2026-05-19 12:27:24*
%MOMM*%
%LPD*%
G01*
G04 APERTURE LIST*
G04 Aperture macros list*
%AMRoundRect*
0 Rectangle with rounded corners*
0 $1 Rounding radius*
0 $2 $3 $4 $5 $6 $7 $8 $9 X,Y pos of 4 corners*
0 Add a 4 corners polygon primitive as box body*
4,1,4,$2,$3,$4,$5,$6,$7,$8,$9,$2,$3,0*
0 Add four circle primitives for the rounded corners*
1,1,$1+$1,$2,$3*
1,1,$1+$1,$4,$5*
1,1,$1+$1,$6,$7*
1,1,$1+$1,$8,$9*
0 Add four rect primitives between the rounded corners*
20,1,$1+$1,$2,$3,$4,$5,0*
20,1,$1+$1,$4,$5,$6,$7,0*
20,1,$1+$1,$6,$7,$8,$9,0*
20,1,$1+$1,$8,$9,$2,$3,0*%
G04 Aperture macros list end*
%ADD10C,0.010000*%
%ADD11R,0.400000X0.800000*%
%ADD12R,0.300000X0.800000*%
%ADD13RoundRect,0.135000X0.135000X0.185000X-0.135000X0.185000X-0.135000X-0.185000X0.135000X-0.185000X0*%
%ADD14RoundRect,0.032500X-0.397500X0.097500X-0.397500X-0.097500X0.397500X-0.097500X0.397500X0.097500X0*%
%ADD15RoundRect,0.032500X-0.097500X0.397500X-0.097500X-0.397500X0.097500X-0.397500X0.097500X0.397500X0*%
%ADD16R,1.800000X2.200000*%
%ADD17RoundRect,0.150000X0.150000X-0.825000X0.150000X0.825000X-0.150000X0.825000X-0.150000X-0.825000X0*%
%ADD18RoundRect,0.140000X0.140000X0.170000X-0.140000X0.170000X-0.140000X-0.170000X0.140000X-0.170000X0*%
%ADD19RoundRect,0.140000X-0.170000X0.140000X-0.170000X-0.140000X0.170000X-0.140000X0.170000X0.140000X0*%
G04 APERTURE END LIST*
D10*
%TO.C,AD7142_a1*%
X172355000Y-74330000D02*
X172355000Y-76670000D01*
X170015000Y-76670000D01*
X170015000Y-74330000D01*
X172355000Y-74330000D01*
G36*
X172355000Y-76670000D02*
G01*
X170015000Y-76670000D01*
X170015000Y-74330000D01*
X172355000Y-74330000D01*
X172355000Y-76670000D01*
G37*
%TO.C,AD7142_b1*%
X160485000Y-74330000D02*
X160485000Y-76670000D01*
X158145000Y-76670000D01*
X158145000Y-74330000D01*
X160485000Y-74330000D01*
G36*
X160485000Y-76670000D02*
G01*
X158145000Y-76670000D01*
X158145000Y-74330000D01*
X160485000Y-74330000D01*
X160485000Y-76670000D01*
G37*
%TO.C,COLUMNS*%
X172975000Y-66900000D02*
X172725000Y-66900000D01*
X172725000Y-65600000D01*
X172975000Y-65600000D01*
X172975000Y-66900000D01*
G36*
X172975000Y-66900000D02*
G01*
X172725000Y-66900000D01*
X172725000Y-65600000D01*
X172975000Y-65600000D01*
X172975000Y-66900000D01*
G37*
X172475000Y-66900000D02*
X172225000Y-66900000D01*
X172225000Y-65600000D01*
X172475000Y-65600000D01*
X172475000Y-66900000D01*
G36*
X172475000Y-66900000D02*
G01*
X172225000Y-66900000D01*
X172225000Y-65600000D01*
X172475000Y-65600000D01*
X172475000Y-66900000D01*
G37*
X171975000Y-66900000D02*
X171725000Y-66900000D01*
X171725000Y-65600000D01*
X171975000Y-65600000D01*
X171975000Y-66900000D01*
G36*
X171975000Y-66900000D02*
G01*
X171725000Y-66900000D01*
X171725000Y-65600000D01*
X171975000Y-65600000D01*
X171975000Y-66900000D01*
G37*
X171475000Y-66900000D02*
X171225000Y-66900000D01*
X171225000Y-65600000D01*
X171475000Y-65600000D01*
X171475000Y-66900000D01*
G36*
X171475000Y-66900000D02*
G01*
X171225000Y-66900000D01*
X171225000Y-65600000D01*
X171475000Y-65600000D01*
X171475000Y-66900000D01*
G37*
X170975000Y-66900000D02*
X170725000Y-66900000D01*
X170725000Y-65600000D01*
X170975000Y-65600000D01*
X170975000Y-66900000D01*
G36*
X170975000Y-66900000D02*
G01*
X170725000Y-66900000D01*
X170725000Y-65600000D01*
X170975000Y-65600000D01*
X170975000Y-66900000D01*
G37*
X170475000Y-66900000D02*
X170225000Y-66900000D01*
X170225000Y-65600000D01*
X170475000Y-65600000D01*
X170475000Y-66900000D01*
G36*
X170475000Y-66900000D02*
G01*
X170225000Y-66900000D01*
X170225000Y-65600000D01*
X170475000Y-65600000D01*
X170475000Y-66900000D01*
G37*
X169975000Y-66900000D02*
X169725000Y-66900000D01*
X169725000Y-65600000D01*
X169975000Y-65600000D01*
X169975000Y-66900000D01*
G36*
X169975000Y-66900000D02*
G01*
X169725000Y-66900000D01*
X169725000Y-65600000D01*
X169975000Y-65600000D01*
X169975000Y-66900000D01*
G37*
X169475000Y-66900000D02*
X169225000Y-66900000D01*
X169225000Y-65600000D01*
X169475000Y-65600000D01*
X169475000Y-66900000D01*
G36*
X169475000Y-66900000D02*
G01*
X169225000Y-66900000D01*
X169225000Y-65600000D01*
X169475000Y-65600000D01*
X169475000Y-66900000D01*
G37*
X168975000Y-66900000D02*
X168725000Y-66900000D01*
X168725000Y-65600000D01*
X168975000Y-65600000D01*
X168975000Y-66900000D01*
G36*
X168975000Y-66900000D02*
G01*
X168725000Y-66900000D01*
X168725000Y-65600000D01*
X168975000Y-65600000D01*
X168975000Y-66900000D01*
G37*
X168475000Y-66900000D02*
X168225000Y-66900000D01*
X168225000Y-65600000D01*
X168475000Y-65600000D01*
X168475000Y-66900000D01*
G36*
X168475000Y-66900000D02*
G01*
X168225000Y-66900000D01*
X168225000Y-65600000D01*
X168475000Y-65600000D01*
X168475000Y-66900000D01*
G37*
X167975000Y-66900000D02*
X167725000Y-66900000D01*
X167725000Y-65600000D01*
X167975000Y-65600000D01*
X167975000Y-66900000D01*
G36*
X167975000Y-66900000D02*
G01*
X167725000Y-66900000D01*
X167725000Y-65600000D01*
X167975000Y-65600000D01*
X167975000Y-66900000D01*
G37*
X167475000Y-66900000D02*
X167225000Y-66900000D01*
X167225000Y-65600000D01*
X167475000Y-65600000D01*
X167475000Y-66900000D01*
G36*
X167475000Y-66900000D02*
G01*
X167225000Y-66900000D01*
X167225000Y-65600000D01*
X167475000Y-65600000D01*
X167475000Y-66900000D01*
G37*
X166975000Y-66900000D02*
X166725000Y-66900000D01*
X166725000Y-65600000D01*
X166975000Y-65600000D01*
X166975000Y-66900000D01*
G36*
X166975000Y-66900000D02*
G01*
X166725000Y-66900000D01*
X166725000Y-65600000D01*
X166975000Y-65600000D01*
X166975000Y-66900000D01*
G37*
X166475000Y-66900000D02*
X166225000Y-66900000D01*
X166225000Y-65600000D01*
X166475000Y-65600000D01*
X166475000Y-66900000D01*
G36*
X166475000Y-66900000D02*
G01*
X166225000Y-66900000D01*
X166225000Y-65600000D01*
X166475000Y-65600000D01*
X166475000Y-66900000D01*
G37*
X165975000Y-66900000D02*
X165725000Y-66900000D01*
X165725000Y-65600000D01*
X165975000Y-65600000D01*
X165975000Y-66900000D01*
G36*
X165975000Y-66900000D02*
G01*
X165725000Y-66900000D01*
X165725000Y-65600000D01*
X165975000Y-65600000D01*
X165975000Y-66900000D01*
G37*
X165475000Y-66900000D02*
X165225000Y-66900000D01*
X165225000Y-65600000D01*
X165475000Y-65600000D01*
X165475000Y-66900000D01*
G36*
X165475000Y-66900000D02*
G01*
X165225000Y-66900000D01*
X165225000Y-65600000D01*
X165475000Y-65600000D01*
X165475000Y-66900000D01*
G37*
%TD*%
D11*
%TO.C,FH19*%
X137095975Y-61241266D03*
X131595975Y-61241266D03*
D12*
X136095975Y-63741266D03*
X135595975Y-63741266D03*
X135095975Y-63741266D03*
X134595975Y-63741266D03*
X134095975Y-63741266D03*
X133595975Y-63741266D03*
X133095975Y-63741266D03*
X132595975Y-63741266D03*
%TD*%
D13*
%TO.C,R1*%
X173616834Y-79743965D03*
X174636832Y-79743965D03*
%TD*%
D14*
%TO.C,AD7142_a1*%
X173620000Y-73750000D03*
X173620000Y-74250000D03*
X173620000Y-74750000D03*
X173620000Y-75250000D03*
X173620000Y-75750000D03*
X173620000Y-76250000D03*
X173620000Y-76750000D03*
X173620000Y-77250000D03*
D15*
X172935000Y-77935000D03*
X172435000Y-77935000D03*
X171935000Y-77935000D03*
X171435000Y-77935000D03*
X170935000Y-77935000D03*
X170435000Y-77935000D03*
X169935000Y-77935000D03*
X169435000Y-77935000D03*
D14*
X168750000Y-77250000D03*
X168750000Y-76750000D03*
X168750000Y-76250000D03*
X168750000Y-75750000D03*
X168750000Y-75250000D03*
X168750000Y-74750000D03*
X168750000Y-74250000D03*
X168750000Y-73750000D03*
D15*
X169435000Y-73065000D03*
X169935000Y-73065000D03*
X170435000Y-73065000D03*
X170935000Y-73065000D03*
X171435000Y-73065000D03*
X171935000Y-73065000D03*
X172435000Y-73065000D03*
X172935000Y-73065000D03*
%TD*%
D14*
%TO.C,AD7142_b1*%
X161750000Y-73750000D03*
X161750000Y-74250000D03*
X161750000Y-74750000D03*
X161750000Y-75250000D03*
X161750000Y-75750000D03*
X161750000Y-76250000D03*
X161750000Y-76750000D03*
X161750000Y-77250000D03*
D15*
X161065000Y-77935000D03*
X160565000Y-77935000D03*
X160065000Y-77935000D03*
X159565000Y-77935000D03*
X159065000Y-77935000D03*
X158565000Y-77935000D03*
X158065000Y-77935000D03*
X157565000Y-77935000D03*
D14*
X156880000Y-77250000D03*
X156880000Y-76750000D03*
X156880000Y-76250000D03*
X156880000Y-75750000D03*
X156880000Y-75250000D03*
X156880000Y-74750000D03*
X156880000Y-74250000D03*
X156880000Y-73750000D03*
D15*
X157565000Y-73065000D03*
X158065000Y-73065000D03*
X158565000Y-73065000D03*
X159065000Y-73065000D03*
X159565000Y-73065000D03*
X160065000Y-73065000D03*
X160565000Y-73065000D03*
X161065000Y-73065000D03*
%TD*%
D16*
%TO.C,COLUMNS*%
X163450000Y-63000000D03*
X174750000Y-63000000D03*
%TD*%
D17*
%TO.C,74HC4051*%
X140650000Y-72800000D03*
X141920000Y-72800000D03*
X143190000Y-72800000D03*
X144460000Y-72800000D03*
X145730000Y-72800000D03*
X147000000Y-72800000D03*
X148270000Y-72800000D03*
X149540000Y-72800000D03*
X149540000Y-77750000D03*
X148270000Y-77750000D03*
X147000000Y-77750000D03*
X145730000Y-77750000D03*
X144460000Y-77750000D03*
X143190000Y-77750000D03*
X141920000Y-77750000D03*
X140650000Y-77750000D03*
%TD*%
D18*
%TO.C,C1*%
X167230000Y-73750000D03*
X166270000Y-73750000D03*
%TD*%
%TO.C,C6*%
X155710000Y-74750000D03*
X154750000Y-74750000D03*
%TD*%
D19*
%TO.C,C4*%
X139095000Y-72295000D03*
X139095000Y-73255000D03*
%TD*%
D13*
%TO.C,R2*%
X162769998Y-79750000D03*
X161750000Y-79750000D03*
%TD*%
D18*
%TO.C,C2*%
X167210000Y-74750000D03*
X166250000Y-74750000D03*
%TD*%
%TO.C,C5*%
X155705738Y-73748918D03*
X154745738Y-73748918D03*
%TD*%
%TO.C,C3*%
X167210000Y-75750000D03*
X166250000Y-75750000D03*
%TD*%
%TO.C,C7*%
X155710000Y-75750000D03*
X154750000Y-75750000D03*
%TD*%
M02*
